%
M48
M72
T01C0.0394
T02C0.0400
T03C0.0472
T04C0.0591
T05C0.0675
T06C0.1575
%
T01
X3693Y26084
X22000Y23131
X36961Y23131
X3693Y15651
X22000Y8171
X3693Y4431
X36961Y8171
T02
X12780Y5931
X12780Y2931
X20260Y5931
X20260Y10411
X20260Y13411
X27741Y10411
X27741Y13411
X35221Y10411
X35221Y5931
X35221Y2931
X42701Y5931
X42701Y2931
X42701Y10411
X42701Y13411
X42701Y17891
X42701Y20891
X35221Y20891
X35221Y17891
X35221Y13411
X27741Y17891
X27741Y20891
X20260Y20891
X20260Y17891
X12780Y17891
X12780Y20891
X6693Y20509
X6693Y19509
X6693Y18509
X693Y18509
X693Y19509
X693Y20509
X693Y21509
X693Y22509
X693Y23509
X693Y24509
X693Y25509
X693Y26509
X693Y27509
X693Y28509
X693Y29509
X6693Y26509
X6693Y25509
X6693Y24509
X6693Y23509
X6693Y22509
X6693Y21509
X12780Y25372
X12780Y28372
X20260Y28372
X20260Y25372
X27741Y28372
X27741Y25372
X35221Y28372
X35221Y25372
X42701Y28372
X42701Y25372
X27741Y5931
X27741Y2931
X20260Y2931
X12780Y10411
X12780Y13411
X6693Y27509
X6693Y28509
X6693Y29509
T03
X3890Y13978
X1922Y13978
X1922Y9057
X3890Y9057
T04
X8780Y5431
X9780Y2931
X16260Y5431
X17260Y2931
X23741Y5431
X24741Y2931
X31221Y5431
X32221Y2931
X38701Y5431
X39701Y2931
X39701Y10411
X38701Y12911
X31221Y12911
X32221Y10411
X23741Y12911
X24741Y10411
X17260Y10411
X16260Y12911
X8780Y12911
X9780Y10411
X9780Y17891
X8780Y20391
X9780Y25372
X8780Y27872
X16260Y27872
X17260Y25372
X24741Y25372
X23741Y27872
X31221Y27872
X32221Y25372
X39701Y25372
X38701Y27872
X38701Y20391
X39701Y17891
X31221Y20391
X32221Y17891
X23741Y20391
X24741Y17891
X16260Y20391
X17260Y17891
T05
X10780Y24872
X10780Y21391
X10780Y17391
X10780Y13911
X10780Y9911
X10780Y6431
X10780Y2431
X18260Y2431
X18260Y6431
X18260Y9911
X18260Y13911
X18260Y17391
X18260Y21391
X18260Y24872
X18260Y28872
X10780Y28872
X25741Y28872
X25741Y24872
X25741Y21391
X25741Y17391
X25741Y13911
X25741Y9911
X25741Y6431
X25741Y2431
X33221Y2431
X33221Y6431
X33221Y9911
X33221Y13911
X33221Y17391
X33221Y21391
X33221Y24872
X33221Y28872
X40701Y28872
X40701Y24872
X40701Y21391
X40701Y17391
X40701Y13911
X40701Y9911
X40701Y6431
X40701Y2431
T06
X10780Y26872
X18260Y26872
X25741Y26872
X33221Y26872
X40701Y26872
X40701Y19391
X33221Y19391
X25741Y19391
X18260Y19391
X10780Y19391
X10780Y11911
X18260Y11911
X18260Y4431
X10780Y4431
X25741Y4431
X33221Y4431
X33221Y11911
X25741Y11911
X40701Y11911
X40701Y4431
M30
