G75*
%MOIN*%
%OFA0B0*%
%FSLAX25Y25*%
%IPPOS*%
%LPD*%
%AMOC8*
5,1,8,0,0,1.08239X$1,22.5*
%
%ADD10C,0.00000*%
%ADD11C,0.01000*%
%ADD12C,0.00500*%
%ADD13C,0.00800*%
%ADD14C,0.02756*%
D10*
X0001501Y0001000D02*
X0001501Y0312024D01*
X0442446Y0312024D01*
X0442446Y0001000D01*
X0001501Y0001000D01*
X0034965Y0044307D02*
X0034967Y0044395D01*
X0034973Y0044483D01*
X0034983Y0044571D01*
X0034997Y0044659D01*
X0035014Y0044745D01*
X0035036Y0044831D01*
X0035061Y0044915D01*
X0035091Y0044999D01*
X0035123Y0045081D01*
X0035160Y0045161D01*
X0035200Y0045240D01*
X0035244Y0045317D01*
X0035291Y0045392D01*
X0035341Y0045464D01*
X0035395Y0045535D01*
X0035451Y0045602D01*
X0035511Y0045668D01*
X0035573Y0045730D01*
X0035639Y0045790D01*
X0035706Y0045846D01*
X0035777Y0045900D01*
X0035849Y0045950D01*
X0035924Y0045997D01*
X0036001Y0046041D01*
X0036080Y0046081D01*
X0036160Y0046118D01*
X0036242Y0046150D01*
X0036326Y0046180D01*
X0036410Y0046205D01*
X0036496Y0046227D01*
X0036582Y0046244D01*
X0036670Y0046258D01*
X0036758Y0046268D01*
X0036846Y0046274D01*
X0036934Y0046276D01*
X0037022Y0046274D01*
X0037110Y0046268D01*
X0037198Y0046258D01*
X0037286Y0046244D01*
X0037372Y0046227D01*
X0037458Y0046205D01*
X0037542Y0046180D01*
X0037626Y0046150D01*
X0037708Y0046118D01*
X0037788Y0046081D01*
X0037867Y0046041D01*
X0037944Y0045997D01*
X0038019Y0045950D01*
X0038091Y0045900D01*
X0038162Y0045846D01*
X0038229Y0045790D01*
X0038295Y0045730D01*
X0038357Y0045668D01*
X0038417Y0045602D01*
X0038473Y0045535D01*
X0038527Y0045464D01*
X0038577Y0045392D01*
X0038624Y0045317D01*
X0038668Y0045240D01*
X0038708Y0045161D01*
X0038745Y0045081D01*
X0038777Y0044999D01*
X0038807Y0044915D01*
X0038832Y0044831D01*
X0038854Y0044745D01*
X0038871Y0044659D01*
X0038885Y0044571D01*
X0038895Y0044483D01*
X0038901Y0044395D01*
X0038903Y0044307D01*
X0038901Y0044219D01*
X0038895Y0044131D01*
X0038885Y0044043D01*
X0038871Y0043955D01*
X0038854Y0043869D01*
X0038832Y0043783D01*
X0038807Y0043699D01*
X0038777Y0043615D01*
X0038745Y0043533D01*
X0038708Y0043453D01*
X0038668Y0043374D01*
X0038624Y0043297D01*
X0038577Y0043222D01*
X0038527Y0043150D01*
X0038473Y0043079D01*
X0038417Y0043012D01*
X0038357Y0042946D01*
X0038295Y0042884D01*
X0038229Y0042824D01*
X0038162Y0042768D01*
X0038091Y0042714D01*
X0038019Y0042664D01*
X0037944Y0042617D01*
X0037867Y0042573D01*
X0037788Y0042533D01*
X0037708Y0042496D01*
X0037626Y0042464D01*
X0037542Y0042434D01*
X0037458Y0042409D01*
X0037372Y0042387D01*
X0037286Y0042370D01*
X0037198Y0042356D01*
X0037110Y0042346D01*
X0037022Y0042340D01*
X0036934Y0042338D01*
X0036846Y0042340D01*
X0036758Y0042346D01*
X0036670Y0042356D01*
X0036582Y0042370D01*
X0036496Y0042387D01*
X0036410Y0042409D01*
X0036326Y0042434D01*
X0036242Y0042464D01*
X0036160Y0042496D01*
X0036080Y0042533D01*
X0036001Y0042573D01*
X0035924Y0042617D01*
X0035849Y0042664D01*
X0035777Y0042714D01*
X0035706Y0042768D01*
X0035639Y0042824D01*
X0035573Y0042884D01*
X0035511Y0042946D01*
X0035451Y0043012D01*
X0035395Y0043079D01*
X0035341Y0043150D01*
X0035291Y0043222D01*
X0035244Y0043297D01*
X0035200Y0043374D01*
X0035160Y0043453D01*
X0035123Y0043533D01*
X0035091Y0043615D01*
X0035061Y0043699D01*
X0035036Y0043783D01*
X0035014Y0043869D01*
X0034997Y0043955D01*
X0034983Y0044043D01*
X0034973Y0044131D01*
X0034967Y0044219D01*
X0034965Y0044307D01*
X0099925Y0044307D02*
X0099927Y0044500D01*
X0099934Y0044693D01*
X0099946Y0044886D01*
X0099963Y0045079D01*
X0099984Y0045271D01*
X0100010Y0045463D01*
X0100041Y0045653D01*
X0100076Y0045843D01*
X0100116Y0046032D01*
X0100161Y0046220D01*
X0100210Y0046407D01*
X0100264Y0046593D01*
X0100322Y0046777D01*
X0100385Y0046960D01*
X0100453Y0047141D01*
X0100524Y0047321D01*
X0100601Y0047498D01*
X0100681Y0047674D01*
X0100766Y0047848D01*
X0100855Y0048019D01*
X0100948Y0048189D01*
X0101045Y0048356D01*
X0101147Y0048520D01*
X0101252Y0048682D01*
X0101362Y0048841D01*
X0101475Y0048998D01*
X0101592Y0049152D01*
X0101713Y0049303D01*
X0101837Y0049451D01*
X0101965Y0049596D01*
X0102097Y0049737D01*
X0102232Y0049875D01*
X0102370Y0050010D01*
X0102511Y0050142D01*
X0102656Y0050270D01*
X0102804Y0050394D01*
X0102955Y0050515D01*
X0103109Y0050632D01*
X0103266Y0050745D01*
X0103425Y0050855D01*
X0103587Y0050960D01*
X0103751Y0051062D01*
X0103918Y0051159D01*
X0104088Y0051252D01*
X0104259Y0051341D01*
X0104433Y0051426D01*
X0104609Y0051506D01*
X0104786Y0051583D01*
X0104966Y0051654D01*
X0105147Y0051722D01*
X0105330Y0051785D01*
X0105514Y0051843D01*
X0105700Y0051897D01*
X0105887Y0051946D01*
X0106075Y0051991D01*
X0106264Y0052031D01*
X0106454Y0052066D01*
X0106644Y0052097D01*
X0106836Y0052123D01*
X0107028Y0052144D01*
X0107221Y0052161D01*
X0107414Y0052173D01*
X0107607Y0052180D01*
X0107800Y0052182D01*
X0107993Y0052180D01*
X0108186Y0052173D01*
X0108379Y0052161D01*
X0108572Y0052144D01*
X0108764Y0052123D01*
X0108956Y0052097D01*
X0109146Y0052066D01*
X0109336Y0052031D01*
X0109525Y0051991D01*
X0109713Y0051946D01*
X0109900Y0051897D01*
X0110086Y0051843D01*
X0110270Y0051785D01*
X0110453Y0051722D01*
X0110634Y0051654D01*
X0110814Y0051583D01*
X0110991Y0051506D01*
X0111167Y0051426D01*
X0111341Y0051341D01*
X0111512Y0051252D01*
X0111682Y0051159D01*
X0111849Y0051062D01*
X0112013Y0050960D01*
X0112175Y0050855D01*
X0112334Y0050745D01*
X0112491Y0050632D01*
X0112645Y0050515D01*
X0112796Y0050394D01*
X0112944Y0050270D01*
X0113089Y0050142D01*
X0113230Y0050010D01*
X0113368Y0049875D01*
X0113503Y0049737D01*
X0113635Y0049596D01*
X0113763Y0049451D01*
X0113887Y0049303D01*
X0114008Y0049152D01*
X0114125Y0048998D01*
X0114238Y0048841D01*
X0114348Y0048682D01*
X0114453Y0048520D01*
X0114555Y0048356D01*
X0114652Y0048189D01*
X0114745Y0048019D01*
X0114834Y0047848D01*
X0114919Y0047674D01*
X0114999Y0047498D01*
X0115076Y0047321D01*
X0115147Y0047141D01*
X0115215Y0046960D01*
X0115278Y0046777D01*
X0115336Y0046593D01*
X0115390Y0046407D01*
X0115439Y0046220D01*
X0115484Y0046032D01*
X0115524Y0045843D01*
X0115559Y0045653D01*
X0115590Y0045463D01*
X0115616Y0045271D01*
X0115637Y0045079D01*
X0115654Y0044886D01*
X0115666Y0044693D01*
X0115673Y0044500D01*
X0115675Y0044307D01*
X0115673Y0044114D01*
X0115666Y0043921D01*
X0115654Y0043728D01*
X0115637Y0043535D01*
X0115616Y0043343D01*
X0115590Y0043151D01*
X0115559Y0042961D01*
X0115524Y0042771D01*
X0115484Y0042582D01*
X0115439Y0042394D01*
X0115390Y0042207D01*
X0115336Y0042021D01*
X0115278Y0041837D01*
X0115215Y0041654D01*
X0115147Y0041473D01*
X0115076Y0041293D01*
X0114999Y0041116D01*
X0114919Y0040940D01*
X0114834Y0040766D01*
X0114745Y0040595D01*
X0114652Y0040425D01*
X0114555Y0040258D01*
X0114453Y0040094D01*
X0114348Y0039932D01*
X0114238Y0039773D01*
X0114125Y0039616D01*
X0114008Y0039462D01*
X0113887Y0039311D01*
X0113763Y0039163D01*
X0113635Y0039018D01*
X0113503Y0038877D01*
X0113368Y0038739D01*
X0113230Y0038604D01*
X0113089Y0038472D01*
X0112944Y0038344D01*
X0112796Y0038220D01*
X0112645Y0038099D01*
X0112491Y0037982D01*
X0112334Y0037869D01*
X0112175Y0037759D01*
X0112013Y0037654D01*
X0111849Y0037552D01*
X0111682Y0037455D01*
X0111512Y0037362D01*
X0111341Y0037273D01*
X0111167Y0037188D01*
X0110991Y0037108D01*
X0110814Y0037031D01*
X0110634Y0036960D01*
X0110453Y0036892D01*
X0110270Y0036829D01*
X0110086Y0036771D01*
X0109900Y0036717D01*
X0109713Y0036668D01*
X0109525Y0036623D01*
X0109336Y0036583D01*
X0109146Y0036548D01*
X0108956Y0036517D01*
X0108764Y0036491D01*
X0108572Y0036470D01*
X0108379Y0036453D01*
X0108186Y0036441D01*
X0107993Y0036434D01*
X0107800Y0036432D01*
X0107607Y0036434D01*
X0107414Y0036441D01*
X0107221Y0036453D01*
X0107028Y0036470D01*
X0106836Y0036491D01*
X0106644Y0036517D01*
X0106454Y0036548D01*
X0106264Y0036583D01*
X0106075Y0036623D01*
X0105887Y0036668D01*
X0105700Y0036717D01*
X0105514Y0036771D01*
X0105330Y0036829D01*
X0105147Y0036892D01*
X0104966Y0036960D01*
X0104786Y0037031D01*
X0104609Y0037108D01*
X0104433Y0037188D01*
X0104259Y0037273D01*
X0104088Y0037362D01*
X0103918Y0037455D01*
X0103751Y0037552D01*
X0103587Y0037654D01*
X0103425Y0037759D01*
X0103266Y0037869D01*
X0103109Y0037982D01*
X0102955Y0038099D01*
X0102804Y0038220D01*
X0102656Y0038344D01*
X0102511Y0038472D01*
X0102370Y0038604D01*
X0102232Y0038739D01*
X0102097Y0038877D01*
X0101965Y0039018D01*
X0101837Y0039163D01*
X0101713Y0039311D01*
X0101592Y0039462D01*
X0101475Y0039616D01*
X0101362Y0039773D01*
X0101252Y0039932D01*
X0101147Y0040094D01*
X0101045Y0040258D01*
X0100948Y0040425D01*
X0100855Y0040595D01*
X0100766Y0040766D01*
X0100681Y0040940D01*
X0100601Y0041116D01*
X0100524Y0041293D01*
X0100453Y0041473D01*
X0100385Y0041654D01*
X0100322Y0041837D01*
X0100264Y0042021D01*
X0100210Y0042207D01*
X0100161Y0042394D01*
X0100116Y0042582D01*
X0100076Y0042771D01*
X0100041Y0042961D01*
X0100010Y0043151D01*
X0099984Y0043343D01*
X0099963Y0043535D01*
X0099946Y0043728D01*
X0099934Y0043921D01*
X0099927Y0044114D01*
X0099925Y0044307D01*
X0174728Y0044307D02*
X0174730Y0044500D01*
X0174737Y0044693D01*
X0174749Y0044886D01*
X0174766Y0045079D01*
X0174787Y0045271D01*
X0174813Y0045463D01*
X0174844Y0045653D01*
X0174879Y0045843D01*
X0174919Y0046032D01*
X0174964Y0046220D01*
X0175013Y0046407D01*
X0175067Y0046593D01*
X0175125Y0046777D01*
X0175188Y0046960D01*
X0175256Y0047141D01*
X0175327Y0047321D01*
X0175404Y0047498D01*
X0175484Y0047674D01*
X0175569Y0047848D01*
X0175658Y0048019D01*
X0175751Y0048189D01*
X0175848Y0048356D01*
X0175950Y0048520D01*
X0176055Y0048682D01*
X0176165Y0048841D01*
X0176278Y0048998D01*
X0176395Y0049152D01*
X0176516Y0049303D01*
X0176640Y0049451D01*
X0176768Y0049596D01*
X0176900Y0049737D01*
X0177035Y0049875D01*
X0177173Y0050010D01*
X0177314Y0050142D01*
X0177459Y0050270D01*
X0177607Y0050394D01*
X0177758Y0050515D01*
X0177912Y0050632D01*
X0178069Y0050745D01*
X0178228Y0050855D01*
X0178390Y0050960D01*
X0178554Y0051062D01*
X0178721Y0051159D01*
X0178891Y0051252D01*
X0179062Y0051341D01*
X0179236Y0051426D01*
X0179412Y0051506D01*
X0179589Y0051583D01*
X0179769Y0051654D01*
X0179950Y0051722D01*
X0180133Y0051785D01*
X0180317Y0051843D01*
X0180503Y0051897D01*
X0180690Y0051946D01*
X0180878Y0051991D01*
X0181067Y0052031D01*
X0181257Y0052066D01*
X0181447Y0052097D01*
X0181639Y0052123D01*
X0181831Y0052144D01*
X0182024Y0052161D01*
X0182217Y0052173D01*
X0182410Y0052180D01*
X0182603Y0052182D01*
X0182796Y0052180D01*
X0182989Y0052173D01*
X0183182Y0052161D01*
X0183375Y0052144D01*
X0183567Y0052123D01*
X0183759Y0052097D01*
X0183949Y0052066D01*
X0184139Y0052031D01*
X0184328Y0051991D01*
X0184516Y0051946D01*
X0184703Y0051897D01*
X0184889Y0051843D01*
X0185073Y0051785D01*
X0185256Y0051722D01*
X0185437Y0051654D01*
X0185617Y0051583D01*
X0185794Y0051506D01*
X0185970Y0051426D01*
X0186144Y0051341D01*
X0186315Y0051252D01*
X0186485Y0051159D01*
X0186652Y0051062D01*
X0186816Y0050960D01*
X0186978Y0050855D01*
X0187137Y0050745D01*
X0187294Y0050632D01*
X0187448Y0050515D01*
X0187599Y0050394D01*
X0187747Y0050270D01*
X0187892Y0050142D01*
X0188033Y0050010D01*
X0188171Y0049875D01*
X0188306Y0049737D01*
X0188438Y0049596D01*
X0188566Y0049451D01*
X0188690Y0049303D01*
X0188811Y0049152D01*
X0188928Y0048998D01*
X0189041Y0048841D01*
X0189151Y0048682D01*
X0189256Y0048520D01*
X0189358Y0048356D01*
X0189455Y0048189D01*
X0189548Y0048019D01*
X0189637Y0047848D01*
X0189722Y0047674D01*
X0189802Y0047498D01*
X0189879Y0047321D01*
X0189950Y0047141D01*
X0190018Y0046960D01*
X0190081Y0046777D01*
X0190139Y0046593D01*
X0190193Y0046407D01*
X0190242Y0046220D01*
X0190287Y0046032D01*
X0190327Y0045843D01*
X0190362Y0045653D01*
X0190393Y0045463D01*
X0190419Y0045271D01*
X0190440Y0045079D01*
X0190457Y0044886D01*
X0190469Y0044693D01*
X0190476Y0044500D01*
X0190478Y0044307D01*
X0190476Y0044114D01*
X0190469Y0043921D01*
X0190457Y0043728D01*
X0190440Y0043535D01*
X0190419Y0043343D01*
X0190393Y0043151D01*
X0190362Y0042961D01*
X0190327Y0042771D01*
X0190287Y0042582D01*
X0190242Y0042394D01*
X0190193Y0042207D01*
X0190139Y0042021D01*
X0190081Y0041837D01*
X0190018Y0041654D01*
X0189950Y0041473D01*
X0189879Y0041293D01*
X0189802Y0041116D01*
X0189722Y0040940D01*
X0189637Y0040766D01*
X0189548Y0040595D01*
X0189455Y0040425D01*
X0189358Y0040258D01*
X0189256Y0040094D01*
X0189151Y0039932D01*
X0189041Y0039773D01*
X0188928Y0039616D01*
X0188811Y0039462D01*
X0188690Y0039311D01*
X0188566Y0039163D01*
X0188438Y0039018D01*
X0188306Y0038877D01*
X0188171Y0038739D01*
X0188033Y0038604D01*
X0187892Y0038472D01*
X0187747Y0038344D01*
X0187599Y0038220D01*
X0187448Y0038099D01*
X0187294Y0037982D01*
X0187137Y0037869D01*
X0186978Y0037759D01*
X0186816Y0037654D01*
X0186652Y0037552D01*
X0186485Y0037455D01*
X0186315Y0037362D01*
X0186144Y0037273D01*
X0185970Y0037188D01*
X0185794Y0037108D01*
X0185617Y0037031D01*
X0185437Y0036960D01*
X0185256Y0036892D01*
X0185073Y0036829D01*
X0184889Y0036771D01*
X0184703Y0036717D01*
X0184516Y0036668D01*
X0184328Y0036623D01*
X0184139Y0036583D01*
X0183949Y0036548D01*
X0183759Y0036517D01*
X0183567Y0036491D01*
X0183375Y0036470D01*
X0183182Y0036453D01*
X0182989Y0036441D01*
X0182796Y0036434D01*
X0182603Y0036432D01*
X0182410Y0036434D01*
X0182217Y0036441D01*
X0182024Y0036453D01*
X0181831Y0036470D01*
X0181639Y0036491D01*
X0181447Y0036517D01*
X0181257Y0036548D01*
X0181067Y0036583D01*
X0180878Y0036623D01*
X0180690Y0036668D01*
X0180503Y0036717D01*
X0180317Y0036771D01*
X0180133Y0036829D01*
X0179950Y0036892D01*
X0179769Y0036960D01*
X0179589Y0037031D01*
X0179412Y0037108D01*
X0179236Y0037188D01*
X0179062Y0037273D01*
X0178891Y0037362D01*
X0178721Y0037455D01*
X0178554Y0037552D01*
X0178390Y0037654D01*
X0178228Y0037759D01*
X0178069Y0037869D01*
X0177912Y0037982D01*
X0177758Y0038099D01*
X0177607Y0038220D01*
X0177459Y0038344D01*
X0177314Y0038472D01*
X0177173Y0038604D01*
X0177035Y0038739D01*
X0176900Y0038877D01*
X0176768Y0039018D01*
X0176640Y0039163D01*
X0176516Y0039311D01*
X0176395Y0039462D01*
X0176278Y0039616D01*
X0176165Y0039773D01*
X0176055Y0039932D01*
X0175950Y0040094D01*
X0175848Y0040258D01*
X0175751Y0040425D01*
X0175658Y0040595D01*
X0175569Y0040766D01*
X0175484Y0040940D01*
X0175404Y0041116D01*
X0175327Y0041293D01*
X0175256Y0041473D01*
X0175188Y0041654D01*
X0175125Y0041837D01*
X0175067Y0042021D01*
X0175013Y0042207D01*
X0174964Y0042394D01*
X0174919Y0042582D01*
X0174879Y0042771D01*
X0174844Y0042961D01*
X0174813Y0043151D01*
X0174787Y0043343D01*
X0174766Y0043535D01*
X0174749Y0043728D01*
X0174737Y0043921D01*
X0174730Y0044114D01*
X0174728Y0044307D01*
X0218036Y0081709D02*
X0218038Y0081797D01*
X0218044Y0081885D01*
X0218054Y0081973D01*
X0218068Y0082061D01*
X0218085Y0082147D01*
X0218107Y0082233D01*
X0218132Y0082317D01*
X0218162Y0082401D01*
X0218194Y0082483D01*
X0218231Y0082563D01*
X0218271Y0082642D01*
X0218315Y0082719D01*
X0218362Y0082794D01*
X0218412Y0082866D01*
X0218466Y0082937D01*
X0218522Y0083004D01*
X0218582Y0083070D01*
X0218644Y0083132D01*
X0218710Y0083192D01*
X0218777Y0083248D01*
X0218848Y0083302D01*
X0218920Y0083352D01*
X0218995Y0083399D01*
X0219072Y0083443D01*
X0219151Y0083483D01*
X0219231Y0083520D01*
X0219313Y0083552D01*
X0219397Y0083582D01*
X0219481Y0083607D01*
X0219567Y0083629D01*
X0219653Y0083646D01*
X0219741Y0083660D01*
X0219829Y0083670D01*
X0219917Y0083676D01*
X0220005Y0083678D01*
X0220093Y0083676D01*
X0220181Y0083670D01*
X0220269Y0083660D01*
X0220357Y0083646D01*
X0220443Y0083629D01*
X0220529Y0083607D01*
X0220613Y0083582D01*
X0220697Y0083552D01*
X0220779Y0083520D01*
X0220859Y0083483D01*
X0220938Y0083443D01*
X0221015Y0083399D01*
X0221090Y0083352D01*
X0221162Y0083302D01*
X0221233Y0083248D01*
X0221300Y0083192D01*
X0221366Y0083132D01*
X0221428Y0083070D01*
X0221488Y0083004D01*
X0221544Y0082937D01*
X0221598Y0082866D01*
X0221648Y0082794D01*
X0221695Y0082719D01*
X0221739Y0082642D01*
X0221779Y0082563D01*
X0221816Y0082483D01*
X0221848Y0082401D01*
X0221878Y0082317D01*
X0221903Y0082233D01*
X0221925Y0082147D01*
X0221942Y0082061D01*
X0221956Y0081973D01*
X0221966Y0081885D01*
X0221972Y0081797D01*
X0221974Y0081709D01*
X0221972Y0081621D01*
X0221966Y0081533D01*
X0221956Y0081445D01*
X0221942Y0081357D01*
X0221925Y0081271D01*
X0221903Y0081185D01*
X0221878Y0081101D01*
X0221848Y0081017D01*
X0221816Y0080935D01*
X0221779Y0080855D01*
X0221739Y0080776D01*
X0221695Y0080699D01*
X0221648Y0080624D01*
X0221598Y0080552D01*
X0221544Y0080481D01*
X0221488Y0080414D01*
X0221428Y0080348D01*
X0221366Y0080286D01*
X0221300Y0080226D01*
X0221233Y0080170D01*
X0221162Y0080116D01*
X0221090Y0080066D01*
X0221015Y0080019D01*
X0220938Y0079975D01*
X0220859Y0079935D01*
X0220779Y0079898D01*
X0220697Y0079866D01*
X0220613Y0079836D01*
X0220529Y0079811D01*
X0220443Y0079789D01*
X0220357Y0079772D01*
X0220269Y0079758D01*
X0220181Y0079748D01*
X0220093Y0079742D01*
X0220005Y0079740D01*
X0219917Y0079742D01*
X0219829Y0079748D01*
X0219741Y0079758D01*
X0219653Y0079772D01*
X0219567Y0079789D01*
X0219481Y0079811D01*
X0219397Y0079836D01*
X0219313Y0079866D01*
X0219231Y0079898D01*
X0219151Y0079935D01*
X0219072Y0079975D01*
X0218995Y0080019D01*
X0218920Y0080066D01*
X0218848Y0080116D01*
X0218777Y0080170D01*
X0218710Y0080226D01*
X0218644Y0080286D01*
X0218582Y0080348D01*
X0218522Y0080414D01*
X0218466Y0080481D01*
X0218412Y0080552D01*
X0218362Y0080624D01*
X0218315Y0080699D01*
X0218271Y0080776D01*
X0218231Y0080855D01*
X0218194Y0080935D01*
X0218162Y0081017D01*
X0218132Y0081101D01*
X0218107Y0081185D01*
X0218085Y0081271D01*
X0218068Y0081357D01*
X0218054Y0081445D01*
X0218044Y0081533D01*
X0218038Y0081621D01*
X0218036Y0081709D01*
X0174728Y0119110D02*
X0174730Y0119303D01*
X0174737Y0119496D01*
X0174749Y0119689D01*
X0174766Y0119882D01*
X0174787Y0120074D01*
X0174813Y0120266D01*
X0174844Y0120456D01*
X0174879Y0120646D01*
X0174919Y0120835D01*
X0174964Y0121023D01*
X0175013Y0121210D01*
X0175067Y0121396D01*
X0175125Y0121580D01*
X0175188Y0121763D01*
X0175256Y0121944D01*
X0175327Y0122124D01*
X0175404Y0122301D01*
X0175484Y0122477D01*
X0175569Y0122651D01*
X0175658Y0122822D01*
X0175751Y0122992D01*
X0175848Y0123159D01*
X0175950Y0123323D01*
X0176055Y0123485D01*
X0176165Y0123644D01*
X0176278Y0123801D01*
X0176395Y0123955D01*
X0176516Y0124106D01*
X0176640Y0124254D01*
X0176768Y0124399D01*
X0176900Y0124540D01*
X0177035Y0124678D01*
X0177173Y0124813D01*
X0177314Y0124945D01*
X0177459Y0125073D01*
X0177607Y0125197D01*
X0177758Y0125318D01*
X0177912Y0125435D01*
X0178069Y0125548D01*
X0178228Y0125658D01*
X0178390Y0125763D01*
X0178554Y0125865D01*
X0178721Y0125962D01*
X0178891Y0126055D01*
X0179062Y0126144D01*
X0179236Y0126229D01*
X0179412Y0126309D01*
X0179589Y0126386D01*
X0179769Y0126457D01*
X0179950Y0126525D01*
X0180133Y0126588D01*
X0180317Y0126646D01*
X0180503Y0126700D01*
X0180690Y0126749D01*
X0180878Y0126794D01*
X0181067Y0126834D01*
X0181257Y0126869D01*
X0181447Y0126900D01*
X0181639Y0126926D01*
X0181831Y0126947D01*
X0182024Y0126964D01*
X0182217Y0126976D01*
X0182410Y0126983D01*
X0182603Y0126985D01*
X0182796Y0126983D01*
X0182989Y0126976D01*
X0183182Y0126964D01*
X0183375Y0126947D01*
X0183567Y0126926D01*
X0183759Y0126900D01*
X0183949Y0126869D01*
X0184139Y0126834D01*
X0184328Y0126794D01*
X0184516Y0126749D01*
X0184703Y0126700D01*
X0184889Y0126646D01*
X0185073Y0126588D01*
X0185256Y0126525D01*
X0185437Y0126457D01*
X0185617Y0126386D01*
X0185794Y0126309D01*
X0185970Y0126229D01*
X0186144Y0126144D01*
X0186315Y0126055D01*
X0186485Y0125962D01*
X0186652Y0125865D01*
X0186816Y0125763D01*
X0186978Y0125658D01*
X0187137Y0125548D01*
X0187294Y0125435D01*
X0187448Y0125318D01*
X0187599Y0125197D01*
X0187747Y0125073D01*
X0187892Y0124945D01*
X0188033Y0124813D01*
X0188171Y0124678D01*
X0188306Y0124540D01*
X0188438Y0124399D01*
X0188566Y0124254D01*
X0188690Y0124106D01*
X0188811Y0123955D01*
X0188928Y0123801D01*
X0189041Y0123644D01*
X0189151Y0123485D01*
X0189256Y0123323D01*
X0189358Y0123159D01*
X0189455Y0122992D01*
X0189548Y0122822D01*
X0189637Y0122651D01*
X0189722Y0122477D01*
X0189802Y0122301D01*
X0189879Y0122124D01*
X0189950Y0121944D01*
X0190018Y0121763D01*
X0190081Y0121580D01*
X0190139Y0121396D01*
X0190193Y0121210D01*
X0190242Y0121023D01*
X0190287Y0120835D01*
X0190327Y0120646D01*
X0190362Y0120456D01*
X0190393Y0120266D01*
X0190419Y0120074D01*
X0190440Y0119882D01*
X0190457Y0119689D01*
X0190469Y0119496D01*
X0190476Y0119303D01*
X0190478Y0119110D01*
X0190476Y0118917D01*
X0190469Y0118724D01*
X0190457Y0118531D01*
X0190440Y0118338D01*
X0190419Y0118146D01*
X0190393Y0117954D01*
X0190362Y0117764D01*
X0190327Y0117574D01*
X0190287Y0117385D01*
X0190242Y0117197D01*
X0190193Y0117010D01*
X0190139Y0116824D01*
X0190081Y0116640D01*
X0190018Y0116457D01*
X0189950Y0116276D01*
X0189879Y0116096D01*
X0189802Y0115919D01*
X0189722Y0115743D01*
X0189637Y0115569D01*
X0189548Y0115398D01*
X0189455Y0115228D01*
X0189358Y0115061D01*
X0189256Y0114897D01*
X0189151Y0114735D01*
X0189041Y0114576D01*
X0188928Y0114419D01*
X0188811Y0114265D01*
X0188690Y0114114D01*
X0188566Y0113966D01*
X0188438Y0113821D01*
X0188306Y0113680D01*
X0188171Y0113542D01*
X0188033Y0113407D01*
X0187892Y0113275D01*
X0187747Y0113147D01*
X0187599Y0113023D01*
X0187448Y0112902D01*
X0187294Y0112785D01*
X0187137Y0112672D01*
X0186978Y0112562D01*
X0186816Y0112457D01*
X0186652Y0112355D01*
X0186485Y0112258D01*
X0186315Y0112165D01*
X0186144Y0112076D01*
X0185970Y0111991D01*
X0185794Y0111911D01*
X0185617Y0111834D01*
X0185437Y0111763D01*
X0185256Y0111695D01*
X0185073Y0111632D01*
X0184889Y0111574D01*
X0184703Y0111520D01*
X0184516Y0111471D01*
X0184328Y0111426D01*
X0184139Y0111386D01*
X0183949Y0111351D01*
X0183759Y0111320D01*
X0183567Y0111294D01*
X0183375Y0111273D01*
X0183182Y0111256D01*
X0182989Y0111244D01*
X0182796Y0111237D01*
X0182603Y0111235D01*
X0182410Y0111237D01*
X0182217Y0111244D01*
X0182024Y0111256D01*
X0181831Y0111273D01*
X0181639Y0111294D01*
X0181447Y0111320D01*
X0181257Y0111351D01*
X0181067Y0111386D01*
X0180878Y0111426D01*
X0180690Y0111471D01*
X0180503Y0111520D01*
X0180317Y0111574D01*
X0180133Y0111632D01*
X0179950Y0111695D01*
X0179769Y0111763D01*
X0179589Y0111834D01*
X0179412Y0111911D01*
X0179236Y0111991D01*
X0179062Y0112076D01*
X0178891Y0112165D01*
X0178721Y0112258D01*
X0178554Y0112355D01*
X0178390Y0112457D01*
X0178228Y0112562D01*
X0178069Y0112672D01*
X0177912Y0112785D01*
X0177758Y0112902D01*
X0177607Y0113023D01*
X0177459Y0113147D01*
X0177314Y0113275D01*
X0177173Y0113407D01*
X0177035Y0113542D01*
X0176900Y0113680D01*
X0176768Y0113821D01*
X0176640Y0113966D01*
X0176516Y0114114D01*
X0176395Y0114265D01*
X0176278Y0114419D01*
X0176165Y0114576D01*
X0176055Y0114735D01*
X0175950Y0114897D01*
X0175848Y0115061D01*
X0175751Y0115228D01*
X0175658Y0115398D01*
X0175569Y0115569D01*
X0175484Y0115743D01*
X0175404Y0115919D01*
X0175327Y0116096D01*
X0175256Y0116276D01*
X0175188Y0116457D01*
X0175125Y0116640D01*
X0175067Y0116824D01*
X0175013Y0117010D01*
X0174964Y0117197D01*
X0174919Y0117385D01*
X0174879Y0117574D01*
X0174844Y0117764D01*
X0174813Y0117954D01*
X0174787Y0118146D01*
X0174766Y0118338D01*
X0174749Y0118531D01*
X0174737Y0118724D01*
X0174730Y0118917D01*
X0174728Y0119110D01*
X0099925Y0119110D02*
X0099927Y0119303D01*
X0099934Y0119496D01*
X0099946Y0119689D01*
X0099963Y0119882D01*
X0099984Y0120074D01*
X0100010Y0120266D01*
X0100041Y0120456D01*
X0100076Y0120646D01*
X0100116Y0120835D01*
X0100161Y0121023D01*
X0100210Y0121210D01*
X0100264Y0121396D01*
X0100322Y0121580D01*
X0100385Y0121763D01*
X0100453Y0121944D01*
X0100524Y0122124D01*
X0100601Y0122301D01*
X0100681Y0122477D01*
X0100766Y0122651D01*
X0100855Y0122822D01*
X0100948Y0122992D01*
X0101045Y0123159D01*
X0101147Y0123323D01*
X0101252Y0123485D01*
X0101362Y0123644D01*
X0101475Y0123801D01*
X0101592Y0123955D01*
X0101713Y0124106D01*
X0101837Y0124254D01*
X0101965Y0124399D01*
X0102097Y0124540D01*
X0102232Y0124678D01*
X0102370Y0124813D01*
X0102511Y0124945D01*
X0102656Y0125073D01*
X0102804Y0125197D01*
X0102955Y0125318D01*
X0103109Y0125435D01*
X0103266Y0125548D01*
X0103425Y0125658D01*
X0103587Y0125763D01*
X0103751Y0125865D01*
X0103918Y0125962D01*
X0104088Y0126055D01*
X0104259Y0126144D01*
X0104433Y0126229D01*
X0104609Y0126309D01*
X0104786Y0126386D01*
X0104966Y0126457D01*
X0105147Y0126525D01*
X0105330Y0126588D01*
X0105514Y0126646D01*
X0105700Y0126700D01*
X0105887Y0126749D01*
X0106075Y0126794D01*
X0106264Y0126834D01*
X0106454Y0126869D01*
X0106644Y0126900D01*
X0106836Y0126926D01*
X0107028Y0126947D01*
X0107221Y0126964D01*
X0107414Y0126976D01*
X0107607Y0126983D01*
X0107800Y0126985D01*
X0107993Y0126983D01*
X0108186Y0126976D01*
X0108379Y0126964D01*
X0108572Y0126947D01*
X0108764Y0126926D01*
X0108956Y0126900D01*
X0109146Y0126869D01*
X0109336Y0126834D01*
X0109525Y0126794D01*
X0109713Y0126749D01*
X0109900Y0126700D01*
X0110086Y0126646D01*
X0110270Y0126588D01*
X0110453Y0126525D01*
X0110634Y0126457D01*
X0110814Y0126386D01*
X0110991Y0126309D01*
X0111167Y0126229D01*
X0111341Y0126144D01*
X0111512Y0126055D01*
X0111682Y0125962D01*
X0111849Y0125865D01*
X0112013Y0125763D01*
X0112175Y0125658D01*
X0112334Y0125548D01*
X0112491Y0125435D01*
X0112645Y0125318D01*
X0112796Y0125197D01*
X0112944Y0125073D01*
X0113089Y0124945D01*
X0113230Y0124813D01*
X0113368Y0124678D01*
X0113503Y0124540D01*
X0113635Y0124399D01*
X0113763Y0124254D01*
X0113887Y0124106D01*
X0114008Y0123955D01*
X0114125Y0123801D01*
X0114238Y0123644D01*
X0114348Y0123485D01*
X0114453Y0123323D01*
X0114555Y0123159D01*
X0114652Y0122992D01*
X0114745Y0122822D01*
X0114834Y0122651D01*
X0114919Y0122477D01*
X0114999Y0122301D01*
X0115076Y0122124D01*
X0115147Y0121944D01*
X0115215Y0121763D01*
X0115278Y0121580D01*
X0115336Y0121396D01*
X0115390Y0121210D01*
X0115439Y0121023D01*
X0115484Y0120835D01*
X0115524Y0120646D01*
X0115559Y0120456D01*
X0115590Y0120266D01*
X0115616Y0120074D01*
X0115637Y0119882D01*
X0115654Y0119689D01*
X0115666Y0119496D01*
X0115673Y0119303D01*
X0115675Y0119110D01*
X0115673Y0118917D01*
X0115666Y0118724D01*
X0115654Y0118531D01*
X0115637Y0118338D01*
X0115616Y0118146D01*
X0115590Y0117954D01*
X0115559Y0117764D01*
X0115524Y0117574D01*
X0115484Y0117385D01*
X0115439Y0117197D01*
X0115390Y0117010D01*
X0115336Y0116824D01*
X0115278Y0116640D01*
X0115215Y0116457D01*
X0115147Y0116276D01*
X0115076Y0116096D01*
X0114999Y0115919D01*
X0114919Y0115743D01*
X0114834Y0115569D01*
X0114745Y0115398D01*
X0114652Y0115228D01*
X0114555Y0115061D01*
X0114453Y0114897D01*
X0114348Y0114735D01*
X0114238Y0114576D01*
X0114125Y0114419D01*
X0114008Y0114265D01*
X0113887Y0114114D01*
X0113763Y0113966D01*
X0113635Y0113821D01*
X0113503Y0113680D01*
X0113368Y0113542D01*
X0113230Y0113407D01*
X0113089Y0113275D01*
X0112944Y0113147D01*
X0112796Y0113023D01*
X0112645Y0112902D01*
X0112491Y0112785D01*
X0112334Y0112672D01*
X0112175Y0112562D01*
X0112013Y0112457D01*
X0111849Y0112355D01*
X0111682Y0112258D01*
X0111512Y0112165D01*
X0111341Y0112076D01*
X0111167Y0111991D01*
X0110991Y0111911D01*
X0110814Y0111834D01*
X0110634Y0111763D01*
X0110453Y0111695D01*
X0110270Y0111632D01*
X0110086Y0111574D01*
X0109900Y0111520D01*
X0109713Y0111471D01*
X0109525Y0111426D01*
X0109336Y0111386D01*
X0109146Y0111351D01*
X0108956Y0111320D01*
X0108764Y0111294D01*
X0108572Y0111273D01*
X0108379Y0111256D01*
X0108186Y0111244D01*
X0107993Y0111237D01*
X0107800Y0111235D01*
X0107607Y0111237D01*
X0107414Y0111244D01*
X0107221Y0111256D01*
X0107028Y0111273D01*
X0106836Y0111294D01*
X0106644Y0111320D01*
X0106454Y0111351D01*
X0106264Y0111386D01*
X0106075Y0111426D01*
X0105887Y0111471D01*
X0105700Y0111520D01*
X0105514Y0111574D01*
X0105330Y0111632D01*
X0105147Y0111695D01*
X0104966Y0111763D01*
X0104786Y0111834D01*
X0104609Y0111911D01*
X0104433Y0111991D01*
X0104259Y0112076D01*
X0104088Y0112165D01*
X0103918Y0112258D01*
X0103751Y0112355D01*
X0103587Y0112457D01*
X0103425Y0112562D01*
X0103266Y0112672D01*
X0103109Y0112785D01*
X0102955Y0112902D01*
X0102804Y0113023D01*
X0102656Y0113147D01*
X0102511Y0113275D01*
X0102370Y0113407D01*
X0102232Y0113542D01*
X0102097Y0113680D01*
X0101965Y0113821D01*
X0101837Y0113966D01*
X0101713Y0114114D01*
X0101592Y0114265D01*
X0101475Y0114419D01*
X0101362Y0114576D01*
X0101252Y0114735D01*
X0101147Y0114897D01*
X0101045Y0115061D01*
X0100948Y0115228D01*
X0100855Y0115398D01*
X0100766Y0115569D01*
X0100681Y0115743D01*
X0100601Y0115919D01*
X0100524Y0116096D01*
X0100453Y0116276D01*
X0100385Y0116457D01*
X0100322Y0116640D01*
X0100264Y0116824D01*
X0100210Y0117010D01*
X0100161Y0117197D01*
X0100116Y0117385D01*
X0100076Y0117574D01*
X0100041Y0117764D01*
X0100010Y0117954D01*
X0099984Y0118146D01*
X0099963Y0118338D01*
X0099946Y0118531D01*
X0099934Y0118724D01*
X0099927Y0118917D01*
X0099925Y0119110D01*
X0034965Y0156512D02*
X0034967Y0156600D01*
X0034973Y0156688D01*
X0034983Y0156776D01*
X0034997Y0156864D01*
X0035014Y0156950D01*
X0035036Y0157036D01*
X0035061Y0157120D01*
X0035091Y0157204D01*
X0035123Y0157286D01*
X0035160Y0157366D01*
X0035200Y0157445D01*
X0035244Y0157522D01*
X0035291Y0157597D01*
X0035341Y0157669D01*
X0035395Y0157740D01*
X0035451Y0157807D01*
X0035511Y0157873D01*
X0035573Y0157935D01*
X0035639Y0157995D01*
X0035706Y0158051D01*
X0035777Y0158105D01*
X0035849Y0158155D01*
X0035924Y0158202D01*
X0036001Y0158246D01*
X0036080Y0158286D01*
X0036160Y0158323D01*
X0036242Y0158355D01*
X0036326Y0158385D01*
X0036410Y0158410D01*
X0036496Y0158432D01*
X0036582Y0158449D01*
X0036670Y0158463D01*
X0036758Y0158473D01*
X0036846Y0158479D01*
X0036934Y0158481D01*
X0037022Y0158479D01*
X0037110Y0158473D01*
X0037198Y0158463D01*
X0037286Y0158449D01*
X0037372Y0158432D01*
X0037458Y0158410D01*
X0037542Y0158385D01*
X0037626Y0158355D01*
X0037708Y0158323D01*
X0037788Y0158286D01*
X0037867Y0158246D01*
X0037944Y0158202D01*
X0038019Y0158155D01*
X0038091Y0158105D01*
X0038162Y0158051D01*
X0038229Y0157995D01*
X0038295Y0157935D01*
X0038357Y0157873D01*
X0038417Y0157807D01*
X0038473Y0157740D01*
X0038527Y0157669D01*
X0038577Y0157597D01*
X0038624Y0157522D01*
X0038668Y0157445D01*
X0038708Y0157366D01*
X0038745Y0157286D01*
X0038777Y0157204D01*
X0038807Y0157120D01*
X0038832Y0157036D01*
X0038854Y0156950D01*
X0038871Y0156864D01*
X0038885Y0156776D01*
X0038895Y0156688D01*
X0038901Y0156600D01*
X0038903Y0156512D01*
X0038901Y0156424D01*
X0038895Y0156336D01*
X0038885Y0156248D01*
X0038871Y0156160D01*
X0038854Y0156074D01*
X0038832Y0155988D01*
X0038807Y0155904D01*
X0038777Y0155820D01*
X0038745Y0155738D01*
X0038708Y0155658D01*
X0038668Y0155579D01*
X0038624Y0155502D01*
X0038577Y0155427D01*
X0038527Y0155355D01*
X0038473Y0155284D01*
X0038417Y0155217D01*
X0038357Y0155151D01*
X0038295Y0155089D01*
X0038229Y0155029D01*
X0038162Y0154973D01*
X0038091Y0154919D01*
X0038019Y0154869D01*
X0037944Y0154822D01*
X0037867Y0154778D01*
X0037788Y0154738D01*
X0037708Y0154701D01*
X0037626Y0154669D01*
X0037542Y0154639D01*
X0037458Y0154614D01*
X0037372Y0154592D01*
X0037286Y0154575D01*
X0037198Y0154561D01*
X0037110Y0154551D01*
X0037022Y0154545D01*
X0036934Y0154543D01*
X0036846Y0154545D01*
X0036758Y0154551D01*
X0036670Y0154561D01*
X0036582Y0154575D01*
X0036496Y0154592D01*
X0036410Y0154614D01*
X0036326Y0154639D01*
X0036242Y0154669D01*
X0036160Y0154701D01*
X0036080Y0154738D01*
X0036001Y0154778D01*
X0035924Y0154822D01*
X0035849Y0154869D01*
X0035777Y0154919D01*
X0035706Y0154973D01*
X0035639Y0155029D01*
X0035573Y0155089D01*
X0035511Y0155151D01*
X0035451Y0155217D01*
X0035395Y0155284D01*
X0035341Y0155355D01*
X0035291Y0155427D01*
X0035244Y0155502D01*
X0035200Y0155579D01*
X0035160Y0155658D01*
X0035123Y0155738D01*
X0035091Y0155820D01*
X0035061Y0155904D01*
X0035036Y0155988D01*
X0035014Y0156074D01*
X0034997Y0156160D01*
X0034983Y0156248D01*
X0034973Y0156336D01*
X0034967Y0156424D01*
X0034965Y0156512D01*
X0099925Y0193913D02*
X0099927Y0194106D01*
X0099934Y0194299D01*
X0099946Y0194492D01*
X0099963Y0194685D01*
X0099984Y0194877D01*
X0100010Y0195069D01*
X0100041Y0195259D01*
X0100076Y0195449D01*
X0100116Y0195638D01*
X0100161Y0195826D01*
X0100210Y0196013D01*
X0100264Y0196199D01*
X0100322Y0196383D01*
X0100385Y0196566D01*
X0100453Y0196747D01*
X0100524Y0196927D01*
X0100601Y0197104D01*
X0100681Y0197280D01*
X0100766Y0197454D01*
X0100855Y0197625D01*
X0100948Y0197795D01*
X0101045Y0197962D01*
X0101147Y0198126D01*
X0101252Y0198288D01*
X0101362Y0198447D01*
X0101475Y0198604D01*
X0101592Y0198758D01*
X0101713Y0198909D01*
X0101837Y0199057D01*
X0101965Y0199202D01*
X0102097Y0199343D01*
X0102232Y0199481D01*
X0102370Y0199616D01*
X0102511Y0199748D01*
X0102656Y0199876D01*
X0102804Y0200000D01*
X0102955Y0200121D01*
X0103109Y0200238D01*
X0103266Y0200351D01*
X0103425Y0200461D01*
X0103587Y0200566D01*
X0103751Y0200668D01*
X0103918Y0200765D01*
X0104088Y0200858D01*
X0104259Y0200947D01*
X0104433Y0201032D01*
X0104609Y0201112D01*
X0104786Y0201189D01*
X0104966Y0201260D01*
X0105147Y0201328D01*
X0105330Y0201391D01*
X0105514Y0201449D01*
X0105700Y0201503D01*
X0105887Y0201552D01*
X0106075Y0201597D01*
X0106264Y0201637D01*
X0106454Y0201672D01*
X0106644Y0201703D01*
X0106836Y0201729D01*
X0107028Y0201750D01*
X0107221Y0201767D01*
X0107414Y0201779D01*
X0107607Y0201786D01*
X0107800Y0201788D01*
X0107993Y0201786D01*
X0108186Y0201779D01*
X0108379Y0201767D01*
X0108572Y0201750D01*
X0108764Y0201729D01*
X0108956Y0201703D01*
X0109146Y0201672D01*
X0109336Y0201637D01*
X0109525Y0201597D01*
X0109713Y0201552D01*
X0109900Y0201503D01*
X0110086Y0201449D01*
X0110270Y0201391D01*
X0110453Y0201328D01*
X0110634Y0201260D01*
X0110814Y0201189D01*
X0110991Y0201112D01*
X0111167Y0201032D01*
X0111341Y0200947D01*
X0111512Y0200858D01*
X0111682Y0200765D01*
X0111849Y0200668D01*
X0112013Y0200566D01*
X0112175Y0200461D01*
X0112334Y0200351D01*
X0112491Y0200238D01*
X0112645Y0200121D01*
X0112796Y0200000D01*
X0112944Y0199876D01*
X0113089Y0199748D01*
X0113230Y0199616D01*
X0113368Y0199481D01*
X0113503Y0199343D01*
X0113635Y0199202D01*
X0113763Y0199057D01*
X0113887Y0198909D01*
X0114008Y0198758D01*
X0114125Y0198604D01*
X0114238Y0198447D01*
X0114348Y0198288D01*
X0114453Y0198126D01*
X0114555Y0197962D01*
X0114652Y0197795D01*
X0114745Y0197625D01*
X0114834Y0197454D01*
X0114919Y0197280D01*
X0114999Y0197104D01*
X0115076Y0196927D01*
X0115147Y0196747D01*
X0115215Y0196566D01*
X0115278Y0196383D01*
X0115336Y0196199D01*
X0115390Y0196013D01*
X0115439Y0195826D01*
X0115484Y0195638D01*
X0115524Y0195449D01*
X0115559Y0195259D01*
X0115590Y0195069D01*
X0115616Y0194877D01*
X0115637Y0194685D01*
X0115654Y0194492D01*
X0115666Y0194299D01*
X0115673Y0194106D01*
X0115675Y0193913D01*
X0115673Y0193720D01*
X0115666Y0193527D01*
X0115654Y0193334D01*
X0115637Y0193141D01*
X0115616Y0192949D01*
X0115590Y0192757D01*
X0115559Y0192567D01*
X0115524Y0192377D01*
X0115484Y0192188D01*
X0115439Y0192000D01*
X0115390Y0191813D01*
X0115336Y0191627D01*
X0115278Y0191443D01*
X0115215Y0191260D01*
X0115147Y0191079D01*
X0115076Y0190899D01*
X0114999Y0190722D01*
X0114919Y0190546D01*
X0114834Y0190372D01*
X0114745Y0190201D01*
X0114652Y0190031D01*
X0114555Y0189864D01*
X0114453Y0189700D01*
X0114348Y0189538D01*
X0114238Y0189379D01*
X0114125Y0189222D01*
X0114008Y0189068D01*
X0113887Y0188917D01*
X0113763Y0188769D01*
X0113635Y0188624D01*
X0113503Y0188483D01*
X0113368Y0188345D01*
X0113230Y0188210D01*
X0113089Y0188078D01*
X0112944Y0187950D01*
X0112796Y0187826D01*
X0112645Y0187705D01*
X0112491Y0187588D01*
X0112334Y0187475D01*
X0112175Y0187365D01*
X0112013Y0187260D01*
X0111849Y0187158D01*
X0111682Y0187061D01*
X0111512Y0186968D01*
X0111341Y0186879D01*
X0111167Y0186794D01*
X0110991Y0186714D01*
X0110814Y0186637D01*
X0110634Y0186566D01*
X0110453Y0186498D01*
X0110270Y0186435D01*
X0110086Y0186377D01*
X0109900Y0186323D01*
X0109713Y0186274D01*
X0109525Y0186229D01*
X0109336Y0186189D01*
X0109146Y0186154D01*
X0108956Y0186123D01*
X0108764Y0186097D01*
X0108572Y0186076D01*
X0108379Y0186059D01*
X0108186Y0186047D01*
X0107993Y0186040D01*
X0107800Y0186038D01*
X0107607Y0186040D01*
X0107414Y0186047D01*
X0107221Y0186059D01*
X0107028Y0186076D01*
X0106836Y0186097D01*
X0106644Y0186123D01*
X0106454Y0186154D01*
X0106264Y0186189D01*
X0106075Y0186229D01*
X0105887Y0186274D01*
X0105700Y0186323D01*
X0105514Y0186377D01*
X0105330Y0186435D01*
X0105147Y0186498D01*
X0104966Y0186566D01*
X0104786Y0186637D01*
X0104609Y0186714D01*
X0104433Y0186794D01*
X0104259Y0186879D01*
X0104088Y0186968D01*
X0103918Y0187061D01*
X0103751Y0187158D01*
X0103587Y0187260D01*
X0103425Y0187365D01*
X0103266Y0187475D01*
X0103109Y0187588D01*
X0102955Y0187705D01*
X0102804Y0187826D01*
X0102656Y0187950D01*
X0102511Y0188078D01*
X0102370Y0188210D01*
X0102232Y0188345D01*
X0102097Y0188483D01*
X0101965Y0188624D01*
X0101837Y0188769D01*
X0101713Y0188917D01*
X0101592Y0189068D01*
X0101475Y0189222D01*
X0101362Y0189379D01*
X0101252Y0189538D01*
X0101147Y0189700D01*
X0101045Y0189864D01*
X0100948Y0190031D01*
X0100855Y0190201D01*
X0100766Y0190372D01*
X0100681Y0190546D01*
X0100601Y0190722D01*
X0100524Y0190899D01*
X0100453Y0191079D01*
X0100385Y0191260D01*
X0100322Y0191443D01*
X0100264Y0191627D01*
X0100210Y0191813D01*
X0100161Y0192000D01*
X0100116Y0192188D01*
X0100076Y0192377D01*
X0100041Y0192567D01*
X0100010Y0192757D01*
X0099984Y0192949D01*
X0099963Y0193141D01*
X0099946Y0193334D01*
X0099934Y0193527D01*
X0099927Y0193720D01*
X0099925Y0193913D01*
X0174728Y0193913D02*
X0174730Y0194106D01*
X0174737Y0194299D01*
X0174749Y0194492D01*
X0174766Y0194685D01*
X0174787Y0194877D01*
X0174813Y0195069D01*
X0174844Y0195259D01*
X0174879Y0195449D01*
X0174919Y0195638D01*
X0174964Y0195826D01*
X0175013Y0196013D01*
X0175067Y0196199D01*
X0175125Y0196383D01*
X0175188Y0196566D01*
X0175256Y0196747D01*
X0175327Y0196927D01*
X0175404Y0197104D01*
X0175484Y0197280D01*
X0175569Y0197454D01*
X0175658Y0197625D01*
X0175751Y0197795D01*
X0175848Y0197962D01*
X0175950Y0198126D01*
X0176055Y0198288D01*
X0176165Y0198447D01*
X0176278Y0198604D01*
X0176395Y0198758D01*
X0176516Y0198909D01*
X0176640Y0199057D01*
X0176768Y0199202D01*
X0176900Y0199343D01*
X0177035Y0199481D01*
X0177173Y0199616D01*
X0177314Y0199748D01*
X0177459Y0199876D01*
X0177607Y0200000D01*
X0177758Y0200121D01*
X0177912Y0200238D01*
X0178069Y0200351D01*
X0178228Y0200461D01*
X0178390Y0200566D01*
X0178554Y0200668D01*
X0178721Y0200765D01*
X0178891Y0200858D01*
X0179062Y0200947D01*
X0179236Y0201032D01*
X0179412Y0201112D01*
X0179589Y0201189D01*
X0179769Y0201260D01*
X0179950Y0201328D01*
X0180133Y0201391D01*
X0180317Y0201449D01*
X0180503Y0201503D01*
X0180690Y0201552D01*
X0180878Y0201597D01*
X0181067Y0201637D01*
X0181257Y0201672D01*
X0181447Y0201703D01*
X0181639Y0201729D01*
X0181831Y0201750D01*
X0182024Y0201767D01*
X0182217Y0201779D01*
X0182410Y0201786D01*
X0182603Y0201788D01*
X0182796Y0201786D01*
X0182989Y0201779D01*
X0183182Y0201767D01*
X0183375Y0201750D01*
X0183567Y0201729D01*
X0183759Y0201703D01*
X0183949Y0201672D01*
X0184139Y0201637D01*
X0184328Y0201597D01*
X0184516Y0201552D01*
X0184703Y0201503D01*
X0184889Y0201449D01*
X0185073Y0201391D01*
X0185256Y0201328D01*
X0185437Y0201260D01*
X0185617Y0201189D01*
X0185794Y0201112D01*
X0185970Y0201032D01*
X0186144Y0200947D01*
X0186315Y0200858D01*
X0186485Y0200765D01*
X0186652Y0200668D01*
X0186816Y0200566D01*
X0186978Y0200461D01*
X0187137Y0200351D01*
X0187294Y0200238D01*
X0187448Y0200121D01*
X0187599Y0200000D01*
X0187747Y0199876D01*
X0187892Y0199748D01*
X0188033Y0199616D01*
X0188171Y0199481D01*
X0188306Y0199343D01*
X0188438Y0199202D01*
X0188566Y0199057D01*
X0188690Y0198909D01*
X0188811Y0198758D01*
X0188928Y0198604D01*
X0189041Y0198447D01*
X0189151Y0198288D01*
X0189256Y0198126D01*
X0189358Y0197962D01*
X0189455Y0197795D01*
X0189548Y0197625D01*
X0189637Y0197454D01*
X0189722Y0197280D01*
X0189802Y0197104D01*
X0189879Y0196927D01*
X0189950Y0196747D01*
X0190018Y0196566D01*
X0190081Y0196383D01*
X0190139Y0196199D01*
X0190193Y0196013D01*
X0190242Y0195826D01*
X0190287Y0195638D01*
X0190327Y0195449D01*
X0190362Y0195259D01*
X0190393Y0195069D01*
X0190419Y0194877D01*
X0190440Y0194685D01*
X0190457Y0194492D01*
X0190469Y0194299D01*
X0190476Y0194106D01*
X0190478Y0193913D01*
X0190476Y0193720D01*
X0190469Y0193527D01*
X0190457Y0193334D01*
X0190440Y0193141D01*
X0190419Y0192949D01*
X0190393Y0192757D01*
X0190362Y0192567D01*
X0190327Y0192377D01*
X0190287Y0192188D01*
X0190242Y0192000D01*
X0190193Y0191813D01*
X0190139Y0191627D01*
X0190081Y0191443D01*
X0190018Y0191260D01*
X0189950Y0191079D01*
X0189879Y0190899D01*
X0189802Y0190722D01*
X0189722Y0190546D01*
X0189637Y0190372D01*
X0189548Y0190201D01*
X0189455Y0190031D01*
X0189358Y0189864D01*
X0189256Y0189700D01*
X0189151Y0189538D01*
X0189041Y0189379D01*
X0188928Y0189222D01*
X0188811Y0189068D01*
X0188690Y0188917D01*
X0188566Y0188769D01*
X0188438Y0188624D01*
X0188306Y0188483D01*
X0188171Y0188345D01*
X0188033Y0188210D01*
X0187892Y0188078D01*
X0187747Y0187950D01*
X0187599Y0187826D01*
X0187448Y0187705D01*
X0187294Y0187588D01*
X0187137Y0187475D01*
X0186978Y0187365D01*
X0186816Y0187260D01*
X0186652Y0187158D01*
X0186485Y0187061D01*
X0186315Y0186968D01*
X0186144Y0186879D01*
X0185970Y0186794D01*
X0185794Y0186714D01*
X0185617Y0186637D01*
X0185437Y0186566D01*
X0185256Y0186498D01*
X0185073Y0186435D01*
X0184889Y0186377D01*
X0184703Y0186323D01*
X0184516Y0186274D01*
X0184328Y0186229D01*
X0184139Y0186189D01*
X0183949Y0186154D01*
X0183759Y0186123D01*
X0183567Y0186097D01*
X0183375Y0186076D01*
X0183182Y0186059D01*
X0182989Y0186047D01*
X0182796Y0186040D01*
X0182603Y0186038D01*
X0182410Y0186040D01*
X0182217Y0186047D01*
X0182024Y0186059D01*
X0181831Y0186076D01*
X0181639Y0186097D01*
X0181447Y0186123D01*
X0181257Y0186154D01*
X0181067Y0186189D01*
X0180878Y0186229D01*
X0180690Y0186274D01*
X0180503Y0186323D01*
X0180317Y0186377D01*
X0180133Y0186435D01*
X0179950Y0186498D01*
X0179769Y0186566D01*
X0179589Y0186637D01*
X0179412Y0186714D01*
X0179236Y0186794D01*
X0179062Y0186879D01*
X0178891Y0186968D01*
X0178721Y0187061D01*
X0178554Y0187158D01*
X0178390Y0187260D01*
X0178228Y0187365D01*
X0178069Y0187475D01*
X0177912Y0187588D01*
X0177758Y0187705D01*
X0177607Y0187826D01*
X0177459Y0187950D01*
X0177314Y0188078D01*
X0177173Y0188210D01*
X0177035Y0188345D01*
X0176900Y0188483D01*
X0176768Y0188624D01*
X0176640Y0188769D01*
X0176516Y0188917D01*
X0176395Y0189068D01*
X0176278Y0189222D01*
X0176165Y0189379D01*
X0176055Y0189538D01*
X0175950Y0189700D01*
X0175848Y0189864D01*
X0175751Y0190031D01*
X0175658Y0190201D01*
X0175569Y0190372D01*
X0175484Y0190546D01*
X0175404Y0190722D01*
X0175327Y0190899D01*
X0175256Y0191079D01*
X0175188Y0191260D01*
X0175125Y0191443D01*
X0175067Y0191627D01*
X0175013Y0191813D01*
X0174964Y0192000D01*
X0174919Y0192188D01*
X0174879Y0192377D01*
X0174844Y0192567D01*
X0174813Y0192757D01*
X0174787Y0192949D01*
X0174766Y0193141D01*
X0174749Y0193334D01*
X0174737Y0193527D01*
X0174730Y0193720D01*
X0174728Y0193913D01*
X0218036Y0231315D02*
X0218038Y0231403D01*
X0218044Y0231491D01*
X0218054Y0231579D01*
X0218068Y0231667D01*
X0218085Y0231753D01*
X0218107Y0231839D01*
X0218132Y0231923D01*
X0218162Y0232007D01*
X0218194Y0232089D01*
X0218231Y0232169D01*
X0218271Y0232248D01*
X0218315Y0232325D01*
X0218362Y0232400D01*
X0218412Y0232472D01*
X0218466Y0232543D01*
X0218522Y0232610D01*
X0218582Y0232676D01*
X0218644Y0232738D01*
X0218710Y0232798D01*
X0218777Y0232854D01*
X0218848Y0232908D01*
X0218920Y0232958D01*
X0218995Y0233005D01*
X0219072Y0233049D01*
X0219151Y0233089D01*
X0219231Y0233126D01*
X0219313Y0233158D01*
X0219397Y0233188D01*
X0219481Y0233213D01*
X0219567Y0233235D01*
X0219653Y0233252D01*
X0219741Y0233266D01*
X0219829Y0233276D01*
X0219917Y0233282D01*
X0220005Y0233284D01*
X0220093Y0233282D01*
X0220181Y0233276D01*
X0220269Y0233266D01*
X0220357Y0233252D01*
X0220443Y0233235D01*
X0220529Y0233213D01*
X0220613Y0233188D01*
X0220697Y0233158D01*
X0220779Y0233126D01*
X0220859Y0233089D01*
X0220938Y0233049D01*
X0221015Y0233005D01*
X0221090Y0232958D01*
X0221162Y0232908D01*
X0221233Y0232854D01*
X0221300Y0232798D01*
X0221366Y0232738D01*
X0221428Y0232676D01*
X0221488Y0232610D01*
X0221544Y0232543D01*
X0221598Y0232472D01*
X0221648Y0232400D01*
X0221695Y0232325D01*
X0221739Y0232248D01*
X0221779Y0232169D01*
X0221816Y0232089D01*
X0221848Y0232007D01*
X0221878Y0231923D01*
X0221903Y0231839D01*
X0221925Y0231753D01*
X0221942Y0231667D01*
X0221956Y0231579D01*
X0221966Y0231491D01*
X0221972Y0231403D01*
X0221974Y0231315D01*
X0221972Y0231227D01*
X0221966Y0231139D01*
X0221956Y0231051D01*
X0221942Y0230963D01*
X0221925Y0230877D01*
X0221903Y0230791D01*
X0221878Y0230707D01*
X0221848Y0230623D01*
X0221816Y0230541D01*
X0221779Y0230461D01*
X0221739Y0230382D01*
X0221695Y0230305D01*
X0221648Y0230230D01*
X0221598Y0230158D01*
X0221544Y0230087D01*
X0221488Y0230020D01*
X0221428Y0229954D01*
X0221366Y0229892D01*
X0221300Y0229832D01*
X0221233Y0229776D01*
X0221162Y0229722D01*
X0221090Y0229672D01*
X0221015Y0229625D01*
X0220938Y0229581D01*
X0220859Y0229541D01*
X0220779Y0229504D01*
X0220697Y0229472D01*
X0220613Y0229442D01*
X0220529Y0229417D01*
X0220443Y0229395D01*
X0220357Y0229378D01*
X0220269Y0229364D01*
X0220181Y0229354D01*
X0220093Y0229348D01*
X0220005Y0229346D01*
X0219917Y0229348D01*
X0219829Y0229354D01*
X0219741Y0229364D01*
X0219653Y0229378D01*
X0219567Y0229395D01*
X0219481Y0229417D01*
X0219397Y0229442D01*
X0219313Y0229472D01*
X0219231Y0229504D01*
X0219151Y0229541D01*
X0219072Y0229581D01*
X0218995Y0229625D01*
X0218920Y0229672D01*
X0218848Y0229722D01*
X0218777Y0229776D01*
X0218710Y0229832D01*
X0218644Y0229892D01*
X0218582Y0229954D01*
X0218522Y0230020D01*
X0218466Y0230087D01*
X0218412Y0230158D01*
X0218362Y0230230D01*
X0218315Y0230305D01*
X0218271Y0230382D01*
X0218231Y0230461D01*
X0218194Y0230541D01*
X0218162Y0230623D01*
X0218132Y0230707D01*
X0218107Y0230791D01*
X0218085Y0230877D01*
X0218068Y0230963D01*
X0218054Y0231051D01*
X0218044Y0231139D01*
X0218038Y0231227D01*
X0218036Y0231315D01*
X0174728Y0268717D02*
X0174730Y0268910D01*
X0174737Y0269103D01*
X0174749Y0269296D01*
X0174766Y0269489D01*
X0174787Y0269681D01*
X0174813Y0269873D01*
X0174844Y0270063D01*
X0174879Y0270253D01*
X0174919Y0270442D01*
X0174964Y0270630D01*
X0175013Y0270817D01*
X0175067Y0271003D01*
X0175125Y0271187D01*
X0175188Y0271370D01*
X0175256Y0271551D01*
X0175327Y0271731D01*
X0175404Y0271908D01*
X0175484Y0272084D01*
X0175569Y0272258D01*
X0175658Y0272429D01*
X0175751Y0272599D01*
X0175848Y0272766D01*
X0175950Y0272930D01*
X0176055Y0273092D01*
X0176165Y0273251D01*
X0176278Y0273408D01*
X0176395Y0273562D01*
X0176516Y0273713D01*
X0176640Y0273861D01*
X0176768Y0274006D01*
X0176900Y0274147D01*
X0177035Y0274285D01*
X0177173Y0274420D01*
X0177314Y0274552D01*
X0177459Y0274680D01*
X0177607Y0274804D01*
X0177758Y0274925D01*
X0177912Y0275042D01*
X0178069Y0275155D01*
X0178228Y0275265D01*
X0178390Y0275370D01*
X0178554Y0275472D01*
X0178721Y0275569D01*
X0178891Y0275662D01*
X0179062Y0275751D01*
X0179236Y0275836D01*
X0179412Y0275916D01*
X0179589Y0275993D01*
X0179769Y0276064D01*
X0179950Y0276132D01*
X0180133Y0276195D01*
X0180317Y0276253D01*
X0180503Y0276307D01*
X0180690Y0276356D01*
X0180878Y0276401D01*
X0181067Y0276441D01*
X0181257Y0276476D01*
X0181447Y0276507D01*
X0181639Y0276533D01*
X0181831Y0276554D01*
X0182024Y0276571D01*
X0182217Y0276583D01*
X0182410Y0276590D01*
X0182603Y0276592D01*
X0182796Y0276590D01*
X0182989Y0276583D01*
X0183182Y0276571D01*
X0183375Y0276554D01*
X0183567Y0276533D01*
X0183759Y0276507D01*
X0183949Y0276476D01*
X0184139Y0276441D01*
X0184328Y0276401D01*
X0184516Y0276356D01*
X0184703Y0276307D01*
X0184889Y0276253D01*
X0185073Y0276195D01*
X0185256Y0276132D01*
X0185437Y0276064D01*
X0185617Y0275993D01*
X0185794Y0275916D01*
X0185970Y0275836D01*
X0186144Y0275751D01*
X0186315Y0275662D01*
X0186485Y0275569D01*
X0186652Y0275472D01*
X0186816Y0275370D01*
X0186978Y0275265D01*
X0187137Y0275155D01*
X0187294Y0275042D01*
X0187448Y0274925D01*
X0187599Y0274804D01*
X0187747Y0274680D01*
X0187892Y0274552D01*
X0188033Y0274420D01*
X0188171Y0274285D01*
X0188306Y0274147D01*
X0188438Y0274006D01*
X0188566Y0273861D01*
X0188690Y0273713D01*
X0188811Y0273562D01*
X0188928Y0273408D01*
X0189041Y0273251D01*
X0189151Y0273092D01*
X0189256Y0272930D01*
X0189358Y0272766D01*
X0189455Y0272599D01*
X0189548Y0272429D01*
X0189637Y0272258D01*
X0189722Y0272084D01*
X0189802Y0271908D01*
X0189879Y0271731D01*
X0189950Y0271551D01*
X0190018Y0271370D01*
X0190081Y0271187D01*
X0190139Y0271003D01*
X0190193Y0270817D01*
X0190242Y0270630D01*
X0190287Y0270442D01*
X0190327Y0270253D01*
X0190362Y0270063D01*
X0190393Y0269873D01*
X0190419Y0269681D01*
X0190440Y0269489D01*
X0190457Y0269296D01*
X0190469Y0269103D01*
X0190476Y0268910D01*
X0190478Y0268717D01*
X0190476Y0268524D01*
X0190469Y0268331D01*
X0190457Y0268138D01*
X0190440Y0267945D01*
X0190419Y0267753D01*
X0190393Y0267561D01*
X0190362Y0267371D01*
X0190327Y0267181D01*
X0190287Y0266992D01*
X0190242Y0266804D01*
X0190193Y0266617D01*
X0190139Y0266431D01*
X0190081Y0266247D01*
X0190018Y0266064D01*
X0189950Y0265883D01*
X0189879Y0265703D01*
X0189802Y0265526D01*
X0189722Y0265350D01*
X0189637Y0265176D01*
X0189548Y0265005D01*
X0189455Y0264835D01*
X0189358Y0264668D01*
X0189256Y0264504D01*
X0189151Y0264342D01*
X0189041Y0264183D01*
X0188928Y0264026D01*
X0188811Y0263872D01*
X0188690Y0263721D01*
X0188566Y0263573D01*
X0188438Y0263428D01*
X0188306Y0263287D01*
X0188171Y0263149D01*
X0188033Y0263014D01*
X0187892Y0262882D01*
X0187747Y0262754D01*
X0187599Y0262630D01*
X0187448Y0262509D01*
X0187294Y0262392D01*
X0187137Y0262279D01*
X0186978Y0262169D01*
X0186816Y0262064D01*
X0186652Y0261962D01*
X0186485Y0261865D01*
X0186315Y0261772D01*
X0186144Y0261683D01*
X0185970Y0261598D01*
X0185794Y0261518D01*
X0185617Y0261441D01*
X0185437Y0261370D01*
X0185256Y0261302D01*
X0185073Y0261239D01*
X0184889Y0261181D01*
X0184703Y0261127D01*
X0184516Y0261078D01*
X0184328Y0261033D01*
X0184139Y0260993D01*
X0183949Y0260958D01*
X0183759Y0260927D01*
X0183567Y0260901D01*
X0183375Y0260880D01*
X0183182Y0260863D01*
X0182989Y0260851D01*
X0182796Y0260844D01*
X0182603Y0260842D01*
X0182410Y0260844D01*
X0182217Y0260851D01*
X0182024Y0260863D01*
X0181831Y0260880D01*
X0181639Y0260901D01*
X0181447Y0260927D01*
X0181257Y0260958D01*
X0181067Y0260993D01*
X0180878Y0261033D01*
X0180690Y0261078D01*
X0180503Y0261127D01*
X0180317Y0261181D01*
X0180133Y0261239D01*
X0179950Y0261302D01*
X0179769Y0261370D01*
X0179589Y0261441D01*
X0179412Y0261518D01*
X0179236Y0261598D01*
X0179062Y0261683D01*
X0178891Y0261772D01*
X0178721Y0261865D01*
X0178554Y0261962D01*
X0178390Y0262064D01*
X0178228Y0262169D01*
X0178069Y0262279D01*
X0177912Y0262392D01*
X0177758Y0262509D01*
X0177607Y0262630D01*
X0177459Y0262754D01*
X0177314Y0262882D01*
X0177173Y0263014D01*
X0177035Y0263149D01*
X0176900Y0263287D01*
X0176768Y0263428D01*
X0176640Y0263573D01*
X0176516Y0263721D01*
X0176395Y0263872D01*
X0176278Y0264026D01*
X0176165Y0264183D01*
X0176055Y0264342D01*
X0175950Y0264504D01*
X0175848Y0264668D01*
X0175751Y0264835D01*
X0175658Y0265005D01*
X0175569Y0265176D01*
X0175484Y0265350D01*
X0175404Y0265526D01*
X0175327Y0265703D01*
X0175256Y0265883D01*
X0175188Y0266064D01*
X0175125Y0266247D01*
X0175067Y0266431D01*
X0175013Y0266617D01*
X0174964Y0266804D01*
X0174919Y0266992D01*
X0174879Y0267181D01*
X0174844Y0267371D01*
X0174813Y0267561D01*
X0174787Y0267753D01*
X0174766Y0267945D01*
X0174749Y0268138D01*
X0174737Y0268331D01*
X0174730Y0268524D01*
X0174728Y0268717D01*
X0099925Y0268717D02*
X0099927Y0268910D01*
X0099934Y0269103D01*
X0099946Y0269296D01*
X0099963Y0269489D01*
X0099984Y0269681D01*
X0100010Y0269873D01*
X0100041Y0270063D01*
X0100076Y0270253D01*
X0100116Y0270442D01*
X0100161Y0270630D01*
X0100210Y0270817D01*
X0100264Y0271003D01*
X0100322Y0271187D01*
X0100385Y0271370D01*
X0100453Y0271551D01*
X0100524Y0271731D01*
X0100601Y0271908D01*
X0100681Y0272084D01*
X0100766Y0272258D01*
X0100855Y0272429D01*
X0100948Y0272599D01*
X0101045Y0272766D01*
X0101147Y0272930D01*
X0101252Y0273092D01*
X0101362Y0273251D01*
X0101475Y0273408D01*
X0101592Y0273562D01*
X0101713Y0273713D01*
X0101837Y0273861D01*
X0101965Y0274006D01*
X0102097Y0274147D01*
X0102232Y0274285D01*
X0102370Y0274420D01*
X0102511Y0274552D01*
X0102656Y0274680D01*
X0102804Y0274804D01*
X0102955Y0274925D01*
X0103109Y0275042D01*
X0103266Y0275155D01*
X0103425Y0275265D01*
X0103587Y0275370D01*
X0103751Y0275472D01*
X0103918Y0275569D01*
X0104088Y0275662D01*
X0104259Y0275751D01*
X0104433Y0275836D01*
X0104609Y0275916D01*
X0104786Y0275993D01*
X0104966Y0276064D01*
X0105147Y0276132D01*
X0105330Y0276195D01*
X0105514Y0276253D01*
X0105700Y0276307D01*
X0105887Y0276356D01*
X0106075Y0276401D01*
X0106264Y0276441D01*
X0106454Y0276476D01*
X0106644Y0276507D01*
X0106836Y0276533D01*
X0107028Y0276554D01*
X0107221Y0276571D01*
X0107414Y0276583D01*
X0107607Y0276590D01*
X0107800Y0276592D01*
X0107993Y0276590D01*
X0108186Y0276583D01*
X0108379Y0276571D01*
X0108572Y0276554D01*
X0108764Y0276533D01*
X0108956Y0276507D01*
X0109146Y0276476D01*
X0109336Y0276441D01*
X0109525Y0276401D01*
X0109713Y0276356D01*
X0109900Y0276307D01*
X0110086Y0276253D01*
X0110270Y0276195D01*
X0110453Y0276132D01*
X0110634Y0276064D01*
X0110814Y0275993D01*
X0110991Y0275916D01*
X0111167Y0275836D01*
X0111341Y0275751D01*
X0111512Y0275662D01*
X0111682Y0275569D01*
X0111849Y0275472D01*
X0112013Y0275370D01*
X0112175Y0275265D01*
X0112334Y0275155D01*
X0112491Y0275042D01*
X0112645Y0274925D01*
X0112796Y0274804D01*
X0112944Y0274680D01*
X0113089Y0274552D01*
X0113230Y0274420D01*
X0113368Y0274285D01*
X0113503Y0274147D01*
X0113635Y0274006D01*
X0113763Y0273861D01*
X0113887Y0273713D01*
X0114008Y0273562D01*
X0114125Y0273408D01*
X0114238Y0273251D01*
X0114348Y0273092D01*
X0114453Y0272930D01*
X0114555Y0272766D01*
X0114652Y0272599D01*
X0114745Y0272429D01*
X0114834Y0272258D01*
X0114919Y0272084D01*
X0114999Y0271908D01*
X0115076Y0271731D01*
X0115147Y0271551D01*
X0115215Y0271370D01*
X0115278Y0271187D01*
X0115336Y0271003D01*
X0115390Y0270817D01*
X0115439Y0270630D01*
X0115484Y0270442D01*
X0115524Y0270253D01*
X0115559Y0270063D01*
X0115590Y0269873D01*
X0115616Y0269681D01*
X0115637Y0269489D01*
X0115654Y0269296D01*
X0115666Y0269103D01*
X0115673Y0268910D01*
X0115675Y0268717D01*
X0115673Y0268524D01*
X0115666Y0268331D01*
X0115654Y0268138D01*
X0115637Y0267945D01*
X0115616Y0267753D01*
X0115590Y0267561D01*
X0115559Y0267371D01*
X0115524Y0267181D01*
X0115484Y0266992D01*
X0115439Y0266804D01*
X0115390Y0266617D01*
X0115336Y0266431D01*
X0115278Y0266247D01*
X0115215Y0266064D01*
X0115147Y0265883D01*
X0115076Y0265703D01*
X0114999Y0265526D01*
X0114919Y0265350D01*
X0114834Y0265176D01*
X0114745Y0265005D01*
X0114652Y0264835D01*
X0114555Y0264668D01*
X0114453Y0264504D01*
X0114348Y0264342D01*
X0114238Y0264183D01*
X0114125Y0264026D01*
X0114008Y0263872D01*
X0113887Y0263721D01*
X0113763Y0263573D01*
X0113635Y0263428D01*
X0113503Y0263287D01*
X0113368Y0263149D01*
X0113230Y0263014D01*
X0113089Y0262882D01*
X0112944Y0262754D01*
X0112796Y0262630D01*
X0112645Y0262509D01*
X0112491Y0262392D01*
X0112334Y0262279D01*
X0112175Y0262169D01*
X0112013Y0262064D01*
X0111849Y0261962D01*
X0111682Y0261865D01*
X0111512Y0261772D01*
X0111341Y0261683D01*
X0111167Y0261598D01*
X0110991Y0261518D01*
X0110814Y0261441D01*
X0110634Y0261370D01*
X0110453Y0261302D01*
X0110270Y0261239D01*
X0110086Y0261181D01*
X0109900Y0261127D01*
X0109713Y0261078D01*
X0109525Y0261033D01*
X0109336Y0260993D01*
X0109146Y0260958D01*
X0108956Y0260927D01*
X0108764Y0260901D01*
X0108572Y0260880D01*
X0108379Y0260863D01*
X0108186Y0260851D01*
X0107993Y0260844D01*
X0107800Y0260842D01*
X0107607Y0260844D01*
X0107414Y0260851D01*
X0107221Y0260863D01*
X0107028Y0260880D01*
X0106836Y0260901D01*
X0106644Y0260927D01*
X0106454Y0260958D01*
X0106264Y0260993D01*
X0106075Y0261033D01*
X0105887Y0261078D01*
X0105700Y0261127D01*
X0105514Y0261181D01*
X0105330Y0261239D01*
X0105147Y0261302D01*
X0104966Y0261370D01*
X0104786Y0261441D01*
X0104609Y0261518D01*
X0104433Y0261598D01*
X0104259Y0261683D01*
X0104088Y0261772D01*
X0103918Y0261865D01*
X0103751Y0261962D01*
X0103587Y0262064D01*
X0103425Y0262169D01*
X0103266Y0262279D01*
X0103109Y0262392D01*
X0102955Y0262509D01*
X0102804Y0262630D01*
X0102656Y0262754D01*
X0102511Y0262882D01*
X0102370Y0263014D01*
X0102232Y0263149D01*
X0102097Y0263287D01*
X0101965Y0263428D01*
X0101837Y0263573D01*
X0101713Y0263721D01*
X0101592Y0263872D01*
X0101475Y0264026D01*
X0101362Y0264183D01*
X0101252Y0264342D01*
X0101147Y0264504D01*
X0101045Y0264668D01*
X0100948Y0264835D01*
X0100855Y0265005D01*
X0100766Y0265176D01*
X0100681Y0265350D01*
X0100601Y0265526D01*
X0100524Y0265703D01*
X0100453Y0265883D01*
X0100385Y0266064D01*
X0100322Y0266247D01*
X0100264Y0266431D01*
X0100210Y0266617D01*
X0100161Y0266804D01*
X0100116Y0266992D01*
X0100076Y0267181D01*
X0100041Y0267371D01*
X0100010Y0267561D01*
X0099984Y0267753D01*
X0099963Y0267945D01*
X0099946Y0268138D01*
X0099934Y0268331D01*
X0099927Y0268524D01*
X0099925Y0268717D01*
X0034965Y0260843D02*
X0034967Y0260931D01*
X0034973Y0261019D01*
X0034983Y0261107D01*
X0034997Y0261195D01*
X0035014Y0261281D01*
X0035036Y0261367D01*
X0035061Y0261451D01*
X0035091Y0261535D01*
X0035123Y0261617D01*
X0035160Y0261697D01*
X0035200Y0261776D01*
X0035244Y0261853D01*
X0035291Y0261928D01*
X0035341Y0262000D01*
X0035395Y0262071D01*
X0035451Y0262138D01*
X0035511Y0262204D01*
X0035573Y0262266D01*
X0035639Y0262326D01*
X0035706Y0262382D01*
X0035777Y0262436D01*
X0035849Y0262486D01*
X0035924Y0262533D01*
X0036001Y0262577D01*
X0036080Y0262617D01*
X0036160Y0262654D01*
X0036242Y0262686D01*
X0036326Y0262716D01*
X0036410Y0262741D01*
X0036496Y0262763D01*
X0036582Y0262780D01*
X0036670Y0262794D01*
X0036758Y0262804D01*
X0036846Y0262810D01*
X0036934Y0262812D01*
X0037022Y0262810D01*
X0037110Y0262804D01*
X0037198Y0262794D01*
X0037286Y0262780D01*
X0037372Y0262763D01*
X0037458Y0262741D01*
X0037542Y0262716D01*
X0037626Y0262686D01*
X0037708Y0262654D01*
X0037788Y0262617D01*
X0037867Y0262577D01*
X0037944Y0262533D01*
X0038019Y0262486D01*
X0038091Y0262436D01*
X0038162Y0262382D01*
X0038229Y0262326D01*
X0038295Y0262266D01*
X0038357Y0262204D01*
X0038417Y0262138D01*
X0038473Y0262071D01*
X0038527Y0262000D01*
X0038577Y0261928D01*
X0038624Y0261853D01*
X0038668Y0261776D01*
X0038708Y0261697D01*
X0038745Y0261617D01*
X0038777Y0261535D01*
X0038807Y0261451D01*
X0038832Y0261367D01*
X0038854Y0261281D01*
X0038871Y0261195D01*
X0038885Y0261107D01*
X0038895Y0261019D01*
X0038901Y0260931D01*
X0038903Y0260843D01*
X0038901Y0260755D01*
X0038895Y0260667D01*
X0038885Y0260579D01*
X0038871Y0260491D01*
X0038854Y0260405D01*
X0038832Y0260319D01*
X0038807Y0260235D01*
X0038777Y0260151D01*
X0038745Y0260069D01*
X0038708Y0259989D01*
X0038668Y0259910D01*
X0038624Y0259833D01*
X0038577Y0259758D01*
X0038527Y0259686D01*
X0038473Y0259615D01*
X0038417Y0259548D01*
X0038357Y0259482D01*
X0038295Y0259420D01*
X0038229Y0259360D01*
X0038162Y0259304D01*
X0038091Y0259250D01*
X0038019Y0259200D01*
X0037944Y0259153D01*
X0037867Y0259109D01*
X0037788Y0259069D01*
X0037708Y0259032D01*
X0037626Y0259000D01*
X0037542Y0258970D01*
X0037458Y0258945D01*
X0037372Y0258923D01*
X0037286Y0258906D01*
X0037198Y0258892D01*
X0037110Y0258882D01*
X0037022Y0258876D01*
X0036934Y0258874D01*
X0036846Y0258876D01*
X0036758Y0258882D01*
X0036670Y0258892D01*
X0036582Y0258906D01*
X0036496Y0258923D01*
X0036410Y0258945D01*
X0036326Y0258970D01*
X0036242Y0259000D01*
X0036160Y0259032D01*
X0036080Y0259069D01*
X0036001Y0259109D01*
X0035924Y0259153D01*
X0035849Y0259200D01*
X0035777Y0259250D01*
X0035706Y0259304D01*
X0035639Y0259360D01*
X0035573Y0259420D01*
X0035511Y0259482D01*
X0035451Y0259548D01*
X0035395Y0259615D01*
X0035341Y0259686D01*
X0035291Y0259758D01*
X0035244Y0259833D01*
X0035200Y0259910D01*
X0035160Y0259989D01*
X0035123Y0260069D01*
X0035091Y0260151D01*
X0035061Y0260235D01*
X0035036Y0260319D01*
X0035014Y0260405D01*
X0034997Y0260491D01*
X0034983Y0260579D01*
X0034973Y0260667D01*
X0034967Y0260755D01*
X0034965Y0260843D01*
X0249531Y0268717D02*
X0249533Y0268910D01*
X0249540Y0269103D01*
X0249552Y0269296D01*
X0249569Y0269489D01*
X0249590Y0269681D01*
X0249616Y0269873D01*
X0249647Y0270063D01*
X0249682Y0270253D01*
X0249722Y0270442D01*
X0249767Y0270630D01*
X0249816Y0270817D01*
X0249870Y0271003D01*
X0249928Y0271187D01*
X0249991Y0271370D01*
X0250059Y0271551D01*
X0250130Y0271731D01*
X0250207Y0271908D01*
X0250287Y0272084D01*
X0250372Y0272258D01*
X0250461Y0272429D01*
X0250554Y0272599D01*
X0250651Y0272766D01*
X0250753Y0272930D01*
X0250858Y0273092D01*
X0250968Y0273251D01*
X0251081Y0273408D01*
X0251198Y0273562D01*
X0251319Y0273713D01*
X0251443Y0273861D01*
X0251571Y0274006D01*
X0251703Y0274147D01*
X0251838Y0274285D01*
X0251976Y0274420D01*
X0252117Y0274552D01*
X0252262Y0274680D01*
X0252410Y0274804D01*
X0252561Y0274925D01*
X0252715Y0275042D01*
X0252872Y0275155D01*
X0253031Y0275265D01*
X0253193Y0275370D01*
X0253357Y0275472D01*
X0253524Y0275569D01*
X0253694Y0275662D01*
X0253865Y0275751D01*
X0254039Y0275836D01*
X0254215Y0275916D01*
X0254392Y0275993D01*
X0254572Y0276064D01*
X0254753Y0276132D01*
X0254936Y0276195D01*
X0255120Y0276253D01*
X0255306Y0276307D01*
X0255493Y0276356D01*
X0255681Y0276401D01*
X0255870Y0276441D01*
X0256060Y0276476D01*
X0256250Y0276507D01*
X0256442Y0276533D01*
X0256634Y0276554D01*
X0256827Y0276571D01*
X0257020Y0276583D01*
X0257213Y0276590D01*
X0257406Y0276592D01*
X0257599Y0276590D01*
X0257792Y0276583D01*
X0257985Y0276571D01*
X0258178Y0276554D01*
X0258370Y0276533D01*
X0258562Y0276507D01*
X0258752Y0276476D01*
X0258942Y0276441D01*
X0259131Y0276401D01*
X0259319Y0276356D01*
X0259506Y0276307D01*
X0259692Y0276253D01*
X0259876Y0276195D01*
X0260059Y0276132D01*
X0260240Y0276064D01*
X0260420Y0275993D01*
X0260597Y0275916D01*
X0260773Y0275836D01*
X0260947Y0275751D01*
X0261118Y0275662D01*
X0261288Y0275569D01*
X0261455Y0275472D01*
X0261619Y0275370D01*
X0261781Y0275265D01*
X0261940Y0275155D01*
X0262097Y0275042D01*
X0262251Y0274925D01*
X0262402Y0274804D01*
X0262550Y0274680D01*
X0262695Y0274552D01*
X0262836Y0274420D01*
X0262974Y0274285D01*
X0263109Y0274147D01*
X0263241Y0274006D01*
X0263369Y0273861D01*
X0263493Y0273713D01*
X0263614Y0273562D01*
X0263731Y0273408D01*
X0263844Y0273251D01*
X0263954Y0273092D01*
X0264059Y0272930D01*
X0264161Y0272766D01*
X0264258Y0272599D01*
X0264351Y0272429D01*
X0264440Y0272258D01*
X0264525Y0272084D01*
X0264605Y0271908D01*
X0264682Y0271731D01*
X0264753Y0271551D01*
X0264821Y0271370D01*
X0264884Y0271187D01*
X0264942Y0271003D01*
X0264996Y0270817D01*
X0265045Y0270630D01*
X0265090Y0270442D01*
X0265130Y0270253D01*
X0265165Y0270063D01*
X0265196Y0269873D01*
X0265222Y0269681D01*
X0265243Y0269489D01*
X0265260Y0269296D01*
X0265272Y0269103D01*
X0265279Y0268910D01*
X0265281Y0268717D01*
X0265279Y0268524D01*
X0265272Y0268331D01*
X0265260Y0268138D01*
X0265243Y0267945D01*
X0265222Y0267753D01*
X0265196Y0267561D01*
X0265165Y0267371D01*
X0265130Y0267181D01*
X0265090Y0266992D01*
X0265045Y0266804D01*
X0264996Y0266617D01*
X0264942Y0266431D01*
X0264884Y0266247D01*
X0264821Y0266064D01*
X0264753Y0265883D01*
X0264682Y0265703D01*
X0264605Y0265526D01*
X0264525Y0265350D01*
X0264440Y0265176D01*
X0264351Y0265005D01*
X0264258Y0264835D01*
X0264161Y0264668D01*
X0264059Y0264504D01*
X0263954Y0264342D01*
X0263844Y0264183D01*
X0263731Y0264026D01*
X0263614Y0263872D01*
X0263493Y0263721D01*
X0263369Y0263573D01*
X0263241Y0263428D01*
X0263109Y0263287D01*
X0262974Y0263149D01*
X0262836Y0263014D01*
X0262695Y0262882D01*
X0262550Y0262754D01*
X0262402Y0262630D01*
X0262251Y0262509D01*
X0262097Y0262392D01*
X0261940Y0262279D01*
X0261781Y0262169D01*
X0261619Y0262064D01*
X0261455Y0261962D01*
X0261288Y0261865D01*
X0261118Y0261772D01*
X0260947Y0261683D01*
X0260773Y0261598D01*
X0260597Y0261518D01*
X0260420Y0261441D01*
X0260240Y0261370D01*
X0260059Y0261302D01*
X0259876Y0261239D01*
X0259692Y0261181D01*
X0259506Y0261127D01*
X0259319Y0261078D01*
X0259131Y0261033D01*
X0258942Y0260993D01*
X0258752Y0260958D01*
X0258562Y0260927D01*
X0258370Y0260901D01*
X0258178Y0260880D01*
X0257985Y0260863D01*
X0257792Y0260851D01*
X0257599Y0260844D01*
X0257406Y0260842D01*
X0257213Y0260844D01*
X0257020Y0260851D01*
X0256827Y0260863D01*
X0256634Y0260880D01*
X0256442Y0260901D01*
X0256250Y0260927D01*
X0256060Y0260958D01*
X0255870Y0260993D01*
X0255681Y0261033D01*
X0255493Y0261078D01*
X0255306Y0261127D01*
X0255120Y0261181D01*
X0254936Y0261239D01*
X0254753Y0261302D01*
X0254572Y0261370D01*
X0254392Y0261441D01*
X0254215Y0261518D01*
X0254039Y0261598D01*
X0253865Y0261683D01*
X0253694Y0261772D01*
X0253524Y0261865D01*
X0253357Y0261962D01*
X0253193Y0262064D01*
X0253031Y0262169D01*
X0252872Y0262279D01*
X0252715Y0262392D01*
X0252561Y0262509D01*
X0252410Y0262630D01*
X0252262Y0262754D01*
X0252117Y0262882D01*
X0251976Y0263014D01*
X0251838Y0263149D01*
X0251703Y0263287D01*
X0251571Y0263428D01*
X0251443Y0263573D01*
X0251319Y0263721D01*
X0251198Y0263872D01*
X0251081Y0264026D01*
X0250968Y0264183D01*
X0250858Y0264342D01*
X0250753Y0264504D01*
X0250651Y0264668D01*
X0250554Y0264835D01*
X0250461Y0265005D01*
X0250372Y0265176D01*
X0250287Y0265350D01*
X0250207Y0265526D01*
X0250130Y0265703D01*
X0250059Y0265883D01*
X0249991Y0266064D01*
X0249928Y0266247D01*
X0249870Y0266431D01*
X0249816Y0266617D01*
X0249767Y0266804D01*
X0249722Y0266992D01*
X0249682Y0267181D01*
X0249647Y0267371D01*
X0249616Y0267561D01*
X0249590Y0267753D01*
X0249569Y0267945D01*
X0249552Y0268138D01*
X0249540Y0268331D01*
X0249533Y0268524D01*
X0249531Y0268717D01*
X0324335Y0268717D02*
X0324337Y0268910D01*
X0324344Y0269103D01*
X0324356Y0269296D01*
X0324373Y0269489D01*
X0324394Y0269681D01*
X0324420Y0269873D01*
X0324451Y0270063D01*
X0324486Y0270253D01*
X0324526Y0270442D01*
X0324571Y0270630D01*
X0324620Y0270817D01*
X0324674Y0271003D01*
X0324732Y0271187D01*
X0324795Y0271370D01*
X0324863Y0271551D01*
X0324934Y0271731D01*
X0325011Y0271908D01*
X0325091Y0272084D01*
X0325176Y0272258D01*
X0325265Y0272429D01*
X0325358Y0272599D01*
X0325455Y0272766D01*
X0325557Y0272930D01*
X0325662Y0273092D01*
X0325772Y0273251D01*
X0325885Y0273408D01*
X0326002Y0273562D01*
X0326123Y0273713D01*
X0326247Y0273861D01*
X0326375Y0274006D01*
X0326507Y0274147D01*
X0326642Y0274285D01*
X0326780Y0274420D01*
X0326921Y0274552D01*
X0327066Y0274680D01*
X0327214Y0274804D01*
X0327365Y0274925D01*
X0327519Y0275042D01*
X0327676Y0275155D01*
X0327835Y0275265D01*
X0327997Y0275370D01*
X0328161Y0275472D01*
X0328328Y0275569D01*
X0328498Y0275662D01*
X0328669Y0275751D01*
X0328843Y0275836D01*
X0329019Y0275916D01*
X0329196Y0275993D01*
X0329376Y0276064D01*
X0329557Y0276132D01*
X0329740Y0276195D01*
X0329924Y0276253D01*
X0330110Y0276307D01*
X0330297Y0276356D01*
X0330485Y0276401D01*
X0330674Y0276441D01*
X0330864Y0276476D01*
X0331054Y0276507D01*
X0331246Y0276533D01*
X0331438Y0276554D01*
X0331631Y0276571D01*
X0331824Y0276583D01*
X0332017Y0276590D01*
X0332210Y0276592D01*
X0332403Y0276590D01*
X0332596Y0276583D01*
X0332789Y0276571D01*
X0332982Y0276554D01*
X0333174Y0276533D01*
X0333366Y0276507D01*
X0333556Y0276476D01*
X0333746Y0276441D01*
X0333935Y0276401D01*
X0334123Y0276356D01*
X0334310Y0276307D01*
X0334496Y0276253D01*
X0334680Y0276195D01*
X0334863Y0276132D01*
X0335044Y0276064D01*
X0335224Y0275993D01*
X0335401Y0275916D01*
X0335577Y0275836D01*
X0335751Y0275751D01*
X0335922Y0275662D01*
X0336092Y0275569D01*
X0336259Y0275472D01*
X0336423Y0275370D01*
X0336585Y0275265D01*
X0336744Y0275155D01*
X0336901Y0275042D01*
X0337055Y0274925D01*
X0337206Y0274804D01*
X0337354Y0274680D01*
X0337499Y0274552D01*
X0337640Y0274420D01*
X0337778Y0274285D01*
X0337913Y0274147D01*
X0338045Y0274006D01*
X0338173Y0273861D01*
X0338297Y0273713D01*
X0338418Y0273562D01*
X0338535Y0273408D01*
X0338648Y0273251D01*
X0338758Y0273092D01*
X0338863Y0272930D01*
X0338965Y0272766D01*
X0339062Y0272599D01*
X0339155Y0272429D01*
X0339244Y0272258D01*
X0339329Y0272084D01*
X0339409Y0271908D01*
X0339486Y0271731D01*
X0339557Y0271551D01*
X0339625Y0271370D01*
X0339688Y0271187D01*
X0339746Y0271003D01*
X0339800Y0270817D01*
X0339849Y0270630D01*
X0339894Y0270442D01*
X0339934Y0270253D01*
X0339969Y0270063D01*
X0340000Y0269873D01*
X0340026Y0269681D01*
X0340047Y0269489D01*
X0340064Y0269296D01*
X0340076Y0269103D01*
X0340083Y0268910D01*
X0340085Y0268717D01*
X0340083Y0268524D01*
X0340076Y0268331D01*
X0340064Y0268138D01*
X0340047Y0267945D01*
X0340026Y0267753D01*
X0340000Y0267561D01*
X0339969Y0267371D01*
X0339934Y0267181D01*
X0339894Y0266992D01*
X0339849Y0266804D01*
X0339800Y0266617D01*
X0339746Y0266431D01*
X0339688Y0266247D01*
X0339625Y0266064D01*
X0339557Y0265883D01*
X0339486Y0265703D01*
X0339409Y0265526D01*
X0339329Y0265350D01*
X0339244Y0265176D01*
X0339155Y0265005D01*
X0339062Y0264835D01*
X0338965Y0264668D01*
X0338863Y0264504D01*
X0338758Y0264342D01*
X0338648Y0264183D01*
X0338535Y0264026D01*
X0338418Y0263872D01*
X0338297Y0263721D01*
X0338173Y0263573D01*
X0338045Y0263428D01*
X0337913Y0263287D01*
X0337778Y0263149D01*
X0337640Y0263014D01*
X0337499Y0262882D01*
X0337354Y0262754D01*
X0337206Y0262630D01*
X0337055Y0262509D01*
X0336901Y0262392D01*
X0336744Y0262279D01*
X0336585Y0262169D01*
X0336423Y0262064D01*
X0336259Y0261962D01*
X0336092Y0261865D01*
X0335922Y0261772D01*
X0335751Y0261683D01*
X0335577Y0261598D01*
X0335401Y0261518D01*
X0335224Y0261441D01*
X0335044Y0261370D01*
X0334863Y0261302D01*
X0334680Y0261239D01*
X0334496Y0261181D01*
X0334310Y0261127D01*
X0334123Y0261078D01*
X0333935Y0261033D01*
X0333746Y0260993D01*
X0333556Y0260958D01*
X0333366Y0260927D01*
X0333174Y0260901D01*
X0332982Y0260880D01*
X0332789Y0260863D01*
X0332596Y0260851D01*
X0332403Y0260844D01*
X0332210Y0260842D01*
X0332017Y0260844D01*
X0331824Y0260851D01*
X0331631Y0260863D01*
X0331438Y0260880D01*
X0331246Y0260901D01*
X0331054Y0260927D01*
X0330864Y0260958D01*
X0330674Y0260993D01*
X0330485Y0261033D01*
X0330297Y0261078D01*
X0330110Y0261127D01*
X0329924Y0261181D01*
X0329740Y0261239D01*
X0329557Y0261302D01*
X0329376Y0261370D01*
X0329196Y0261441D01*
X0329019Y0261518D01*
X0328843Y0261598D01*
X0328669Y0261683D01*
X0328498Y0261772D01*
X0328328Y0261865D01*
X0328161Y0261962D01*
X0327997Y0262064D01*
X0327835Y0262169D01*
X0327676Y0262279D01*
X0327519Y0262392D01*
X0327365Y0262509D01*
X0327214Y0262630D01*
X0327066Y0262754D01*
X0326921Y0262882D01*
X0326780Y0263014D01*
X0326642Y0263149D01*
X0326507Y0263287D01*
X0326375Y0263428D01*
X0326247Y0263573D01*
X0326123Y0263721D01*
X0326002Y0263872D01*
X0325885Y0264026D01*
X0325772Y0264183D01*
X0325662Y0264342D01*
X0325557Y0264504D01*
X0325455Y0264668D01*
X0325358Y0264835D01*
X0325265Y0265005D01*
X0325176Y0265176D01*
X0325091Y0265350D01*
X0325011Y0265526D01*
X0324934Y0265703D01*
X0324863Y0265883D01*
X0324795Y0266064D01*
X0324732Y0266247D01*
X0324674Y0266431D01*
X0324620Y0266617D01*
X0324571Y0266804D01*
X0324526Y0266992D01*
X0324486Y0267181D01*
X0324451Y0267371D01*
X0324420Y0267561D01*
X0324394Y0267753D01*
X0324373Y0267945D01*
X0324356Y0268138D01*
X0324344Y0268331D01*
X0324337Y0268524D01*
X0324335Y0268717D01*
X0367642Y0231315D02*
X0367644Y0231403D01*
X0367650Y0231491D01*
X0367660Y0231579D01*
X0367674Y0231667D01*
X0367691Y0231753D01*
X0367713Y0231839D01*
X0367738Y0231923D01*
X0367768Y0232007D01*
X0367800Y0232089D01*
X0367837Y0232169D01*
X0367877Y0232248D01*
X0367921Y0232325D01*
X0367968Y0232400D01*
X0368018Y0232472D01*
X0368072Y0232543D01*
X0368128Y0232610D01*
X0368188Y0232676D01*
X0368250Y0232738D01*
X0368316Y0232798D01*
X0368383Y0232854D01*
X0368454Y0232908D01*
X0368526Y0232958D01*
X0368601Y0233005D01*
X0368678Y0233049D01*
X0368757Y0233089D01*
X0368837Y0233126D01*
X0368919Y0233158D01*
X0369003Y0233188D01*
X0369087Y0233213D01*
X0369173Y0233235D01*
X0369259Y0233252D01*
X0369347Y0233266D01*
X0369435Y0233276D01*
X0369523Y0233282D01*
X0369611Y0233284D01*
X0369699Y0233282D01*
X0369787Y0233276D01*
X0369875Y0233266D01*
X0369963Y0233252D01*
X0370049Y0233235D01*
X0370135Y0233213D01*
X0370219Y0233188D01*
X0370303Y0233158D01*
X0370385Y0233126D01*
X0370465Y0233089D01*
X0370544Y0233049D01*
X0370621Y0233005D01*
X0370696Y0232958D01*
X0370768Y0232908D01*
X0370839Y0232854D01*
X0370906Y0232798D01*
X0370972Y0232738D01*
X0371034Y0232676D01*
X0371094Y0232610D01*
X0371150Y0232543D01*
X0371204Y0232472D01*
X0371254Y0232400D01*
X0371301Y0232325D01*
X0371345Y0232248D01*
X0371385Y0232169D01*
X0371422Y0232089D01*
X0371454Y0232007D01*
X0371484Y0231923D01*
X0371509Y0231839D01*
X0371531Y0231753D01*
X0371548Y0231667D01*
X0371562Y0231579D01*
X0371572Y0231491D01*
X0371578Y0231403D01*
X0371580Y0231315D01*
X0371578Y0231227D01*
X0371572Y0231139D01*
X0371562Y0231051D01*
X0371548Y0230963D01*
X0371531Y0230877D01*
X0371509Y0230791D01*
X0371484Y0230707D01*
X0371454Y0230623D01*
X0371422Y0230541D01*
X0371385Y0230461D01*
X0371345Y0230382D01*
X0371301Y0230305D01*
X0371254Y0230230D01*
X0371204Y0230158D01*
X0371150Y0230087D01*
X0371094Y0230020D01*
X0371034Y0229954D01*
X0370972Y0229892D01*
X0370906Y0229832D01*
X0370839Y0229776D01*
X0370768Y0229722D01*
X0370696Y0229672D01*
X0370621Y0229625D01*
X0370544Y0229581D01*
X0370465Y0229541D01*
X0370385Y0229504D01*
X0370303Y0229472D01*
X0370219Y0229442D01*
X0370135Y0229417D01*
X0370049Y0229395D01*
X0369963Y0229378D01*
X0369875Y0229364D01*
X0369787Y0229354D01*
X0369699Y0229348D01*
X0369611Y0229346D01*
X0369523Y0229348D01*
X0369435Y0229354D01*
X0369347Y0229364D01*
X0369259Y0229378D01*
X0369173Y0229395D01*
X0369087Y0229417D01*
X0369003Y0229442D01*
X0368919Y0229472D01*
X0368837Y0229504D01*
X0368757Y0229541D01*
X0368678Y0229581D01*
X0368601Y0229625D01*
X0368526Y0229672D01*
X0368454Y0229722D01*
X0368383Y0229776D01*
X0368316Y0229832D01*
X0368250Y0229892D01*
X0368188Y0229954D01*
X0368128Y0230020D01*
X0368072Y0230087D01*
X0368018Y0230158D01*
X0367968Y0230230D01*
X0367921Y0230305D01*
X0367877Y0230382D01*
X0367837Y0230461D01*
X0367800Y0230541D01*
X0367768Y0230623D01*
X0367738Y0230707D01*
X0367713Y0230791D01*
X0367691Y0230877D01*
X0367674Y0230963D01*
X0367660Y0231051D01*
X0367650Y0231139D01*
X0367644Y0231227D01*
X0367642Y0231315D01*
X0399138Y0268717D02*
X0399140Y0268910D01*
X0399147Y0269103D01*
X0399159Y0269296D01*
X0399176Y0269489D01*
X0399197Y0269681D01*
X0399223Y0269873D01*
X0399254Y0270063D01*
X0399289Y0270253D01*
X0399329Y0270442D01*
X0399374Y0270630D01*
X0399423Y0270817D01*
X0399477Y0271003D01*
X0399535Y0271187D01*
X0399598Y0271370D01*
X0399666Y0271551D01*
X0399737Y0271731D01*
X0399814Y0271908D01*
X0399894Y0272084D01*
X0399979Y0272258D01*
X0400068Y0272429D01*
X0400161Y0272599D01*
X0400258Y0272766D01*
X0400360Y0272930D01*
X0400465Y0273092D01*
X0400575Y0273251D01*
X0400688Y0273408D01*
X0400805Y0273562D01*
X0400926Y0273713D01*
X0401050Y0273861D01*
X0401178Y0274006D01*
X0401310Y0274147D01*
X0401445Y0274285D01*
X0401583Y0274420D01*
X0401724Y0274552D01*
X0401869Y0274680D01*
X0402017Y0274804D01*
X0402168Y0274925D01*
X0402322Y0275042D01*
X0402479Y0275155D01*
X0402638Y0275265D01*
X0402800Y0275370D01*
X0402964Y0275472D01*
X0403131Y0275569D01*
X0403301Y0275662D01*
X0403472Y0275751D01*
X0403646Y0275836D01*
X0403822Y0275916D01*
X0403999Y0275993D01*
X0404179Y0276064D01*
X0404360Y0276132D01*
X0404543Y0276195D01*
X0404727Y0276253D01*
X0404913Y0276307D01*
X0405100Y0276356D01*
X0405288Y0276401D01*
X0405477Y0276441D01*
X0405667Y0276476D01*
X0405857Y0276507D01*
X0406049Y0276533D01*
X0406241Y0276554D01*
X0406434Y0276571D01*
X0406627Y0276583D01*
X0406820Y0276590D01*
X0407013Y0276592D01*
X0407206Y0276590D01*
X0407399Y0276583D01*
X0407592Y0276571D01*
X0407785Y0276554D01*
X0407977Y0276533D01*
X0408169Y0276507D01*
X0408359Y0276476D01*
X0408549Y0276441D01*
X0408738Y0276401D01*
X0408926Y0276356D01*
X0409113Y0276307D01*
X0409299Y0276253D01*
X0409483Y0276195D01*
X0409666Y0276132D01*
X0409847Y0276064D01*
X0410027Y0275993D01*
X0410204Y0275916D01*
X0410380Y0275836D01*
X0410554Y0275751D01*
X0410725Y0275662D01*
X0410895Y0275569D01*
X0411062Y0275472D01*
X0411226Y0275370D01*
X0411388Y0275265D01*
X0411547Y0275155D01*
X0411704Y0275042D01*
X0411858Y0274925D01*
X0412009Y0274804D01*
X0412157Y0274680D01*
X0412302Y0274552D01*
X0412443Y0274420D01*
X0412581Y0274285D01*
X0412716Y0274147D01*
X0412848Y0274006D01*
X0412976Y0273861D01*
X0413100Y0273713D01*
X0413221Y0273562D01*
X0413338Y0273408D01*
X0413451Y0273251D01*
X0413561Y0273092D01*
X0413666Y0272930D01*
X0413768Y0272766D01*
X0413865Y0272599D01*
X0413958Y0272429D01*
X0414047Y0272258D01*
X0414132Y0272084D01*
X0414212Y0271908D01*
X0414289Y0271731D01*
X0414360Y0271551D01*
X0414428Y0271370D01*
X0414491Y0271187D01*
X0414549Y0271003D01*
X0414603Y0270817D01*
X0414652Y0270630D01*
X0414697Y0270442D01*
X0414737Y0270253D01*
X0414772Y0270063D01*
X0414803Y0269873D01*
X0414829Y0269681D01*
X0414850Y0269489D01*
X0414867Y0269296D01*
X0414879Y0269103D01*
X0414886Y0268910D01*
X0414888Y0268717D01*
X0414886Y0268524D01*
X0414879Y0268331D01*
X0414867Y0268138D01*
X0414850Y0267945D01*
X0414829Y0267753D01*
X0414803Y0267561D01*
X0414772Y0267371D01*
X0414737Y0267181D01*
X0414697Y0266992D01*
X0414652Y0266804D01*
X0414603Y0266617D01*
X0414549Y0266431D01*
X0414491Y0266247D01*
X0414428Y0266064D01*
X0414360Y0265883D01*
X0414289Y0265703D01*
X0414212Y0265526D01*
X0414132Y0265350D01*
X0414047Y0265176D01*
X0413958Y0265005D01*
X0413865Y0264835D01*
X0413768Y0264668D01*
X0413666Y0264504D01*
X0413561Y0264342D01*
X0413451Y0264183D01*
X0413338Y0264026D01*
X0413221Y0263872D01*
X0413100Y0263721D01*
X0412976Y0263573D01*
X0412848Y0263428D01*
X0412716Y0263287D01*
X0412581Y0263149D01*
X0412443Y0263014D01*
X0412302Y0262882D01*
X0412157Y0262754D01*
X0412009Y0262630D01*
X0411858Y0262509D01*
X0411704Y0262392D01*
X0411547Y0262279D01*
X0411388Y0262169D01*
X0411226Y0262064D01*
X0411062Y0261962D01*
X0410895Y0261865D01*
X0410725Y0261772D01*
X0410554Y0261683D01*
X0410380Y0261598D01*
X0410204Y0261518D01*
X0410027Y0261441D01*
X0409847Y0261370D01*
X0409666Y0261302D01*
X0409483Y0261239D01*
X0409299Y0261181D01*
X0409113Y0261127D01*
X0408926Y0261078D01*
X0408738Y0261033D01*
X0408549Y0260993D01*
X0408359Y0260958D01*
X0408169Y0260927D01*
X0407977Y0260901D01*
X0407785Y0260880D01*
X0407592Y0260863D01*
X0407399Y0260851D01*
X0407206Y0260844D01*
X0407013Y0260842D01*
X0406820Y0260844D01*
X0406627Y0260851D01*
X0406434Y0260863D01*
X0406241Y0260880D01*
X0406049Y0260901D01*
X0405857Y0260927D01*
X0405667Y0260958D01*
X0405477Y0260993D01*
X0405288Y0261033D01*
X0405100Y0261078D01*
X0404913Y0261127D01*
X0404727Y0261181D01*
X0404543Y0261239D01*
X0404360Y0261302D01*
X0404179Y0261370D01*
X0403999Y0261441D01*
X0403822Y0261518D01*
X0403646Y0261598D01*
X0403472Y0261683D01*
X0403301Y0261772D01*
X0403131Y0261865D01*
X0402964Y0261962D01*
X0402800Y0262064D01*
X0402638Y0262169D01*
X0402479Y0262279D01*
X0402322Y0262392D01*
X0402168Y0262509D01*
X0402017Y0262630D01*
X0401869Y0262754D01*
X0401724Y0262882D01*
X0401583Y0263014D01*
X0401445Y0263149D01*
X0401310Y0263287D01*
X0401178Y0263428D01*
X0401050Y0263573D01*
X0400926Y0263721D01*
X0400805Y0263872D01*
X0400688Y0264026D01*
X0400575Y0264183D01*
X0400465Y0264342D01*
X0400360Y0264504D01*
X0400258Y0264668D01*
X0400161Y0264835D01*
X0400068Y0265005D01*
X0399979Y0265176D01*
X0399894Y0265350D01*
X0399814Y0265526D01*
X0399737Y0265703D01*
X0399666Y0265883D01*
X0399598Y0266064D01*
X0399535Y0266247D01*
X0399477Y0266431D01*
X0399423Y0266617D01*
X0399374Y0266804D01*
X0399329Y0266992D01*
X0399289Y0267181D01*
X0399254Y0267371D01*
X0399223Y0267561D01*
X0399197Y0267753D01*
X0399176Y0267945D01*
X0399159Y0268138D01*
X0399147Y0268331D01*
X0399140Y0268524D01*
X0399138Y0268717D01*
X0399138Y0193913D02*
X0399140Y0194106D01*
X0399147Y0194299D01*
X0399159Y0194492D01*
X0399176Y0194685D01*
X0399197Y0194877D01*
X0399223Y0195069D01*
X0399254Y0195259D01*
X0399289Y0195449D01*
X0399329Y0195638D01*
X0399374Y0195826D01*
X0399423Y0196013D01*
X0399477Y0196199D01*
X0399535Y0196383D01*
X0399598Y0196566D01*
X0399666Y0196747D01*
X0399737Y0196927D01*
X0399814Y0197104D01*
X0399894Y0197280D01*
X0399979Y0197454D01*
X0400068Y0197625D01*
X0400161Y0197795D01*
X0400258Y0197962D01*
X0400360Y0198126D01*
X0400465Y0198288D01*
X0400575Y0198447D01*
X0400688Y0198604D01*
X0400805Y0198758D01*
X0400926Y0198909D01*
X0401050Y0199057D01*
X0401178Y0199202D01*
X0401310Y0199343D01*
X0401445Y0199481D01*
X0401583Y0199616D01*
X0401724Y0199748D01*
X0401869Y0199876D01*
X0402017Y0200000D01*
X0402168Y0200121D01*
X0402322Y0200238D01*
X0402479Y0200351D01*
X0402638Y0200461D01*
X0402800Y0200566D01*
X0402964Y0200668D01*
X0403131Y0200765D01*
X0403301Y0200858D01*
X0403472Y0200947D01*
X0403646Y0201032D01*
X0403822Y0201112D01*
X0403999Y0201189D01*
X0404179Y0201260D01*
X0404360Y0201328D01*
X0404543Y0201391D01*
X0404727Y0201449D01*
X0404913Y0201503D01*
X0405100Y0201552D01*
X0405288Y0201597D01*
X0405477Y0201637D01*
X0405667Y0201672D01*
X0405857Y0201703D01*
X0406049Y0201729D01*
X0406241Y0201750D01*
X0406434Y0201767D01*
X0406627Y0201779D01*
X0406820Y0201786D01*
X0407013Y0201788D01*
X0407206Y0201786D01*
X0407399Y0201779D01*
X0407592Y0201767D01*
X0407785Y0201750D01*
X0407977Y0201729D01*
X0408169Y0201703D01*
X0408359Y0201672D01*
X0408549Y0201637D01*
X0408738Y0201597D01*
X0408926Y0201552D01*
X0409113Y0201503D01*
X0409299Y0201449D01*
X0409483Y0201391D01*
X0409666Y0201328D01*
X0409847Y0201260D01*
X0410027Y0201189D01*
X0410204Y0201112D01*
X0410380Y0201032D01*
X0410554Y0200947D01*
X0410725Y0200858D01*
X0410895Y0200765D01*
X0411062Y0200668D01*
X0411226Y0200566D01*
X0411388Y0200461D01*
X0411547Y0200351D01*
X0411704Y0200238D01*
X0411858Y0200121D01*
X0412009Y0200000D01*
X0412157Y0199876D01*
X0412302Y0199748D01*
X0412443Y0199616D01*
X0412581Y0199481D01*
X0412716Y0199343D01*
X0412848Y0199202D01*
X0412976Y0199057D01*
X0413100Y0198909D01*
X0413221Y0198758D01*
X0413338Y0198604D01*
X0413451Y0198447D01*
X0413561Y0198288D01*
X0413666Y0198126D01*
X0413768Y0197962D01*
X0413865Y0197795D01*
X0413958Y0197625D01*
X0414047Y0197454D01*
X0414132Y0197280D01*
X0414212Y0197104D01*
X0414289Y0196927D01*
X0414360Y0196747D01*
X0414428Y0196566D01*
X0414491Y0196383D01*
X0414549Y0196199D01*
X0414603Y0196013D01*
X0414652Y0195826D01*
X0414697Y0195638D01*
X0414737Y0195449D01*
X0414772Y0195259D01*
X0414803Y0195069D01*
X0414829Y0194877D01*
X0414850Y0194685D01*
X0414867Y0194492D01*
X0414879Y0194299D01*
X0414886Y0194106D01*
X0414888Y0193913D01*
X0414886Y0193720D01*
X0414879Y0193527D01*
X0414867Y0193334D01*
X0414850Y0193141D01*
X0414829Y0192949D01*
X0414803Y0192757D01*
X0414772Y0192567D01*
X0414737Y0192377D01*
X0414697Y0192188D01*
X0414652Y0192000D01*
X0414603Y0191813D01*
X0414549Y0191627D01*
X0414491Y0191443D01*
X0414428Y0191260D01*
X0414360Y0191079D01*
X0414289Y0190899D01*
X0414212Y0190722D01*
X0414132Y0190546D01*
X0414047Y0190372D01*
X0413958Y0190201D01*
X0413865Y0190031D01*
X0413768Y0189864D01*
X0413666Y0189700D01*
X0413561Y0189538D01*
X0413451Y0189379D01*
X0413338Y0189222D01*
X0413221Y0189068D01*
X0413100Y0188917D01*
X0412976Y0188769D01*
X0412848Y0188624D01*
X0412716Y0188483D01*
X0412581Y0188345D01*
X0412443Y0188210D01*
X0412302Y0188078D01*
X0412157Y0187950D01*
X0412009Y0187826D01*
X0411858Y0187705D01*
X0411704Y0187588D01*
X0411547Y0187475D01*
X0411388Y0187365D01*
X0411226Y0187260D01*
X0411062Y0187158D01*
X0410895Y0187061D01*
X0410725Y0186968D01*
X0410554Y0186879D01*
X0410380Y0186794D01*
X0410204Y0186714D01*
X0410027Y0186637D01*
X0409847Y0186566D01*
X0409666Y0186498D01*
X0409483Y0186435D01*
X0409299Y0186377D01*
X0409113Y0186323D01*
X0408926Y0186274D01*
X0408738Y0186229D01*
X0408549Y0186189D01*
X0408359Y0186154D01*
X0408169Y0186123D01*
X0407977Y0186097D01*
X0407785Y0186076D01*
X0407592Y0186059D01*
X0407399Y0186047D01*
X0407206Y0186040D01*
X0407013Y0186038D01*
X0406820Y0186040D01*
X0406627Y0186047D01*
X0406434Y0186059D01*
X0406241Y0186076D01*
X0406049Y0186097D01*
X0405857Y0186123D01*
X0405667Y0186154D01*
X0405477Y0186189D01*
X0405288Y0186229D01*
X0405100Y0186274D01*
X0404913Y0186323D01*
X0404727Y0186377D01*
X0404543Y0186435D01*
X0404360Y0186498D01*
X0404179Y0186566D01*
X0403999Y0186637D01*
X0403822Y0186714D01*
X0403646Y0186794D01*
X0403472Y0186879D01*
X0403301Y0186968D01*
X0403131Y0187061D01*
X0402964Y0187158D01*
X0402800Y0187260D01*
X0402638Y0187365D01*
X0402479Y0187475D01*
X0402322Y0187588D01*
X0402168Y0187705D01*
X0402017Y0187826D01*
X0401869Y0187950D01*
X0401724Y0188078D01*
X0401583Y0188210D01*
X0401445Y0188345D01*
X0401310Y0188483D01*
X0401178Y0188624D01*
X0401050Y0188769D01*
X0400926Y0188917D01*
X0400805Y0189068D01*
X0400688Y0189222D01*
X0400575Y0189379D01*
X0400465Y0189538D01*
X0400360Y0189700D01*
X0400258Y0189864D01*
X0400161Y0190031D01*
X0400068Y0190201D01*
X0399979Y0190372D01*
X0399894Y0190546D01*
X0399814Y0190722D01*
X0399737Y0190899D01*
X0399666Y0191079D01*
X0399598Y0191260D01*
X0399535Y0191443D01*
X0399477Y0191627D01*
X0399423Y0191813D01*
X0399374Y0192000D01*
X0399329Y0192188D01*
X0399289Y0192377D01*
X0399254Y0192567D01*
X0399223Y0192757D01*
X0399197Y0192949D01*
X0399176Y0193141D01*
X0399159Y0193334D01*
X0399147Y0193527D01*
X0399140Y0193720D01*
X0399138Y0193913D01*
X0324335Y0193913D02*
X0324337Y0194106D01*
X0324344Y0194299D01*
X0324356Y0194492D01*
X0324373Y0194685D01*
X0324394Y0194877D01*
X0324420Y0195069D01*
X0324451Y0195259D01*
X0324486Y0195449D01*
X0324526Y0195638D01*
X0324571Y0195826D01*
X0324620Y0196013D01*
X0324674Y0196199D01*
X0324732Y0196383D01*
X0324795Y0196566D01*
X0324863Y0196747D01*
X0324934Y0196927D01*
X0325011Y0197104D01*
X0325091Y0197280D01*
X0325176Y0197454D01*
X0325265Y0197625D01*
X0325358Y0197795D01*
X0325455Y0197962D01*
X0325557Y0198126D01*
X0325662Y0198288D01*
X0325772Y0198447D01*
X0325885Y0198604D01*
X0326002Y0198758D01*
X0326123Y0198909D01*
X0326247Y0199057D01*
X0326375Y0199202D01*
X0326507Y0199343D01*
X0326642Y0199481D01*
X0326780Y0199616D01*
X0326921Y0199748D01*
X0327066Y0199876D01*
X0327214Y0200000D01*
X0327365Y0200121D01*
X0327519Y0200238D01*
X0327676Y0200351D01*
X0327835Y0200461D01*
X0327997Y0200566D01*
X0328161Y0200668D01*
X0328328Y0200765D01*
X0328498Y0200858D01*
X0328669Y0200947D01*
X0328843Y0201032D01*
X0329019Y0201112D01*
X0329196Y0201189D01*
X0329376Y0201260D01*
X0329557Y0201328D01*
X0329740Y0201391D01*
X0329924Y0201449D01*
X0330110Y0201503D01*
X0330297Y0201552D01*
X0330485Y0201597D01*
X0330674Y0201637D01*
X0330864Y0201672D01*
X0331054Y0201703D01*
X0331246Y0201729D01*
X0331438Y0201750D01*
X0331631Y0201767D01*
X0331824Y0201779D01*
X0332017Y0201786D01*
X0332210Y0201788D01*
X0332403Y0201786D01*
X0332596Y0201779D01*
X0332789Y0201767D01*
X0332982Y0201750D01*
X0333174Y0201729D01*
X0333366Y0201703D01*
X0333556Y0201672D01*
X0333746Y0201637D01*
X0333935Y0201597D01*
X0334123Y0201552D01*
X0334310Y0201503D01*
X0334496Y0201449D01*
X0334680Y0201391D01*
X0334863Y0201328D01*
X0335044Y0201260D01*
X0335224Y0201189D01*
X0335401Y0201112D01*
X0335577Y0201032D01*
X0335751Y0200947D01*
X0335922Y0200858D01*
X0336092Y0200765D01*
X0336259Y0200668D01*
X0336423Y0200566D01*
X0336585Y0200461D01*
X0336744Y0200351D01*
X0336901Y0200238D01*
X0337055Y0200121D01*
X0337206Y0200000D01*
X0337354Y0199876D01*
X0337499Y0199748D01*
X0337640Y0199616D01*
X0337778Y0199481D01*
X0337913Y0199343D01*
X0338045Y0199202D01*
X0338173Y0199057D01*
X0338297Y0198909D01*
X0338418Y0198758D01*
X0338535Y0198604D01*
X0338648Y0198447D01*
X0338758Y0198288D01*
X0338863Y0198126D01*
X0338965Y0197962D01*
X0339062Y0197795D01*
X0339155Y0197625D01*
X0339244Y0197454D01*
X0339329Y0197280D01*
X0339409Y0197104D01*
X0339486Y0196927D01*
X0339557Y0196747D01*
X0339625Y0196566D01*
X0339688Y0196383D01*
X0339746Y0196199D01*
X0339800Y0196013D01*
X0339849Y0195826D01*
X0339894Y0195638D01*
X0339934Y0195449D01*
X0339969Y0195259D01*
X0340000Y0195069D01*
X0340026Y0194877D01*
X0340047Y0194685D01*
X0340064Y0194492D01*
X0340076Y0194299D01*
X0340083Y0194106D01*
X0340085Y0193913D01*
X0340083Y0193720D01*
X0340076Y0193527D01*
X0340064Y0193334D01*
X0340047Y0193141D01*
X0340026Y0192949D01*
X0340000Y0192757D01*
X0339969Y0192567D01*
X0339934Y0192377D01*
X0339894Y0192188D01*
X0339849Y0192000D01*
X0339800Y0191813D01*
X0339746Y0191627D01*
X0339688Y0191443D01*
X0339625Y0191260D01*
X0339557Y0191079D01*
X0339486Y0190899D01*
X0339409Y0190722D01*
X0339329Y0190546D01*
X0339244Y0190372D01*
X0339155Y0190201D01*
X0339062Y0190031D01*
X0338965Y0189864D01*
X0338863Y0189700D01*
X0338758Y0189538D01*
X0338648Y0189379D01*
X0338535Y0189222D01*
X0338418Y0189068D01*
X0338297Y0188917D01*
X0338173Y0188769D01*
X0338045Y0188624D01*
X0337913Y0188483D01*
X0337778Y0188345D01*
X0337640Y0188210D01*
X0337499Y0188078D01*
X0337354Y0187950D01*
X0337206Y0187826D01*
X0337055Y0187705D01*
X0336901Y0187588D01*
X0336744Y0187475D01*
X0336585Y0187365D01*
X0336423Y0187260D01*
X0336259Y0187158D01*
X0336092Y0187061D01*
X0335922Y0186968D01*
X0335751Y0186879D01*
X0335577Y0186794D01*
X0335401Y0186714D01*
X0335224Y0186637D01*
X0335044Y0186566D01*
X0334863Y0186498D01*
X0334680Y0186435D01*
X0334496Y0186377D01*
X0334310Y0186323D01*
X0334123Y0186274D01*
X0333935Y0186229D01*
X0333746Y0186189D01*
X0333556Y0186154D01*
X0333366Y0186123D01*
X0333174Y0186097D01*
X0332982Y0186076D01*
X0332789Y0186059D01*
X0332596Y0186047D01*
X0332403Y0186040D01*
X0332210Y0186038D01*
X0332017Y0186040D01*
X0331824Y0186047D01*
X0331631Y0186059D01*
X0331438Y0186076D01*
X0331246Y0186097D01*
X0331054Y0186123D01*
X0330864Y0186154D01*
X0330674Y0186189D01*
X0330485Y0186229D01*
X0330297Y0186274D01*
X0330110Y0186323D01*
X0329924Y0186377D01*
X0329740Y0186435D01*
X0329557Y0186498D01*
X0329376Y0186566D01*
X0329196Y0186637D01*
X0329019Y0186714D01*
X0328843Y0186794D01*
X0328669Y0186879D01*
X0328498Y0186968D01*
X0328328Y0187061D01*
X0328161Y0187158D01*
X0327997Y0187260D01*
X0327835Y0187365D01*
X0327676Y0187475D01*
X0327519Y0187588D01*
X0327365Y0187705D01*
X0327214Y0187826D01*
X0327066Y0187950D01*
X0326921Y0188078D01*
X0326780Y0188210D01*
X0326642Y0188345D01*
X0326507Y0188483D01*
X0326375Y0188624D01*
X0326247Y0188769D01*
X0326123Y0188917D01*
X0326002Y0189068D01*
X0325885Y0189222D01*
X0325772Y0189379D01*
X0325662Y0189538D01*
X0325557Y0189700D01*
X0325455Y0189864D01*
X0325358Y0190031D01*
X0325265Y0190201D01*
X0325176Y0190372D01*
X0325091Y0190546D01*
X0325011Y0190722D01*
X0324934Y0190899D01*
X0324863Y0191079D01*
X0324795Y0191260D01*
X0324732Y0191443D01*
X0324674Y0191627D01*
X0324620Y0191813D01*
X0324571Y0192000D01*
X0324526Y0192188D01*
X0324486Y0192377D01*
X0324451Y0192567D01*
X0324420Y0192757D01*
X0324394Y0192949D01*
X0324373Y0193141D01*
X0324356Y0193334D01*
X0324344Y0193527D01*
X0324337Y0193720D01*
X0324335Y0193913D01*
X0249531Y0193913D02*
X0249533Y0194106D01*
X0249540Y0194299D01*
X0249552Y0194492D01*
X0249569Y0194685D01*
X0249590Y0194877D01*
X0249616Y0195069D01*
X0249647Y0195259D01*
X0249682Y0195449D01*
X0249722Y0195638D01*
X0249767Y0195826D01*
X0249816Y0196013D01*
X0249870Y0196199D01*
X0249928Y0196383D01*
X0249991Y0196566D01*
X0250059Y0196747D01*
X0250130Y0196927D01*
X0250207Y0197104D01*
X0250287Y0197280D01*
X0250372Y0197454D01*
X0250461Y0197625D01*
X0250554Y0197795D01*
X0250651Y0197962D01*
X0250753Y0198126D01*
X0250858Y0198288D01*
X0250968Y0198447D01*
X0251081Y0198604D01*
X0251198Y0198758D01*
X0251319Y0198909D01*
X0251443Y0199057D01*
X0251571Y0199202D01*
X0251703Y0199343D01*
X0251838Y0199481D01*
X0251976Y0199616D01*
X0252117Y0199748D01*
X0252262Y0199876D01*
X0252410Y0200000D01*
X0252561Y0200121D01*
X0252715Y0200238D01*
X0252872Y0200351D01*
X0253031Y0200461D01*
X0253193Y0200566D01*
X0253357Y0200668D01*
X0253524Y0200765D01*
X0253694Y0200858D01*
X0253865Y0200947D01*
X0254039Y0201032D01*
X0254215Y0201112D01*
X0254392Y0201189D01*
X0254572Y0201260D01*
X0254753Y0201328D01*
X0254936Y0201391D01*
X0255120Y0201449D01*
X0255306Y0201503D01*
X0255493Y0201552D01*
X0255681Y0201597D01*
X0255870Y0201637D01*
X0256060Y0201672D01*
X0256250Y0201703D01*
X0256442Y0201729D01*
X0256634Y0201750D01*
X0256827Y0201767D01*
X0257020Y0201779D01*
X0257213Y0201786D01*
X0257406Y0201788D01*
X0257599Y0201786D01*
X0257792Y0201779D01*
X0257985Y0201767D01*
X0258178Y0201750D01*
X0258370Y0201729D01*
X0258562Y0201703D01*
X0258752Y0201672D01*
X0258942Y0201637D01*
X0259131Y0201597D01*
X0259319Y0201552D01*
X0259506Y0201503D01*
X0259692Y0201449D01*
X0259876Y0201391D01*
X0260059Y0201328D01*
X0260240Y0201260D01*
X0260420Y0201189D01*
X0260597Y0201112D01*
X0260773Y0201032D01*
X0260947Y0200947D01*
X0261118Y0200858D01*
X0261288Y0200765D01*
X0261455Y0200668D01*
X0261619Y0200566D01*
X0261781Y0200461D01*
X0261940Y0200351D01*
X0262097Y0200238D01*
X0262251Y0200121D01*
X0262402Y0200000D01*
X0262550Y0199876D01*
X0262695Y0199748D01*
X0262836Y0199616D01*
X0262974Y0199481D01*
X0263109Y0199343D01*
X0263241Y0199202D01*
X0263369Y0199057D01*
X0263493Y0198909D01*
X0263614Y0198758D01*
X0263731Y0198604D01*
X0263844Y0198447D01*
X0263954Y0198288D01*
X0264059Y0198126D01*
X0264161Y0197962D01*
X0264258Y0197795D01*
X0264351Y0197625D01*
X0264440Y0197454D01*
X0264525Y0197280D01*
X0264605Y0197104D01*
X0264682Y0196927D01*
X0264753Y0196747D01*
X0264821Y0196566D01*
X0264884Y0196383D01*
X0264942Y0196199D01*
X0264996Y0196013D01*
X0265045Y0195826D01*
X0265090Y0195638D01*
X0265130Y0195449D01*
X0265165Y0195259D01*
X0265196Y0195069D01*
X0265222Y0194877D01*
X0265243Y0194685D01*
X0265260Y0194492D01*
X0265272Y0194299D01*
X0265279Y0194106D01*
X0265281Y0193913D01*
X0265279Y0193720D01*
X0265272Y0193527D01*
X0265260Y0193334D01*
X0265243Y0193141D01*
X0265222Y0192949D01*
X0265196Y0192757D01*
X0265165Y0192567D01*
X0265130Y0192377D01*
X0265090Y0192188D01*
X0265045Y0192000D01*
X0264996Y0191813D01*
X0264942Y0191627D01*
X0264884Y0191443D01*
X0264821Y0191260D01*
X0264753Y0191079D01*
X0264682Y0190899D01*
X0264605Y0190722D01*
X0264525Y0190546D01*
X0264440Y0190372D01*
X0264351Y0190201D01*
X0264258Y0190031D01*
X0264161Y0189864D01*
X0264059Y0189700D01*
X0263954Y0189538D01*
X0263844Y0189379D01*
X0263731Y0189222D01*
X0263614Y0189068D01*
X0263493Y0188917D01*
X0263369Y0188769D01*
X0263241Y0188624D01*
X0263109Y0188483D01*
X0262974Y0188345D01*
X0262836Y0188210D01*
X0262695Y0188078D01*
X0262550Y0187950D01*
X0262402Y0187826D01*
X0262251Y0187705D01*
X0262097Y0187588D01*
X0261940Y0187475D01*
X0261781Y0187365D01*
X0261619Y0187260D01*
X0261455Y0187158D01*
X0261288Y0187061D01*
X0261118Y0186968D01*
X0260947Y0186879D01*
X0260773Y0186794D01*
X0260597Y0186714D01*
X0260420Y0186637D01*
X0260240Y0186566D01*
X0260059Y0186498D01*
X0259876Y0186435D01*
X0259692Y0186377D01*
X0259506Y0186323D01*
X0259319Y0186274D01*
X0259131Y0186229D01*
X0258942Y0186189D01*
X0258752Y0186154D01*
X0258562Y0186123D01*
X0258370Y0186097D01*
X0258178Y0186076D01*
X0257985Y0186059D01*
X0257792Y0186047D01*
X0257599Y0186040D01*
X0257406Y0186038D01*
X0257213Y0186040D01*
X0257020Y0186047D01*
X0256827Y0186059D01*
X0256634Y0186076D01*
X0256442Y0186097D01*
X0256250Y0186123D01*
X0256060Y0186154D01*
X0255870Y0186189D01*
X0255681Y0186229D01*
X0255493Y0186274D01*
X0255306Y0186323D01*
X0255120Y0186377D01*
X0254936Y0186435D01*
X0254753Y0186498D01*
X0254572Y0186566D01*
X0254392Y0186637D01*
X0254215Y0186714D01*
X0254039Y0186794D01*
X0253865Y0186879D01*
X0253694Y0186968D01*
X0253524Y0187061D01*
X0253357Y0187158D01*
X0253193Y0187260D01*
X0253031Y0187365D01*
X0252872Y0187475D01*
X0252715Y0187588D01*
X0252561Y0187705D01*
X0252410Y0187826D01*
X0252262Y0187950D01*
X0252117Y0188078D01*
X0251976Y0188210D01*
X0251838Y0188345D01*
X0251703Y0188483D01*
X0251571Y0188624D01*
X0251443Y0188769D01*
X0251319Y0188917D01*
X0251198Y0189068D01*
X0251081Y0189222D01*
X0250968Y0189379D01*
X0250858Y0189538D01*
X0250753Y0189700D01*
X0250651Y0189864D01*
X0250554Y0190031D01*
X0250461Y0190201D01*
X0250372Y0190372D01*
X0250287Y0190546D01*
X0250207Y0190722D01*
X0250130Y0190899D01*
X0250059Y0191079D01*
X0249991Y0191260D01*
X0249928Y0191443D01*
X0249870Y0191627D01*
X0249816Y0191813D01*
X0249767Y0192000D01*
X0249722Y0192188D01*
X0249682Y0192377D01*
X0249647Y0192567D01*
X0249616Y0192757D01*
X0249590Y0192949D01*
X0249569Y0193141D01*
X0249552Y0193334D01*
X0249540Y0193527D01*
X0249533Y0193720D01*
X0249531Y0193913D01*
X0249531Y0119110D02*
X0249533Y0119303D01*
X0249540Y0119496D01*
X0249552Y0119689D01*
X0249569Y0119882D01*
X0249590Y0120074D01*
X0249616Y0120266D01*
X0249647Y0120456D01*
X0249682Y0120646D01*
X0249722Y0120835D01*
X0249767Y0121023D01*
X0249816Y0121210D01*
X0249870Y0121396D01*
X0249928Y0121580D01*
X0249991Y0121763D01*
X0250059Y0121944D01*
X0250130Y0122124D01*
X0250207Y0122301D01*
X0250287Y0122477D01*
X0250372Y0122651D01*
X0250461Y0122822D01*
X0250554Y0122992D01*
X0250651Y0123159D01*
X0250753Y0123323D01*
X0250858Y0123485D01*
X0250968Y0123644D01*
X0251081Y0123801D01*
X0251198Y0123955D01*
X0251319Y0124106D01*
X0251443Y0124254D01*
X0251571Y0124399D01*
X0251703Y0124540D01*
X0251838Y0124678D01*
X0251976Y0124813D01*
X0252117Y0124945D01*
X0252262Y0125073D01*
X0252410Y0125197D01*
X0252561Y0125318D01*
X0252715Y0125435D01*
X0252872Y0125548D01*
X0253031Y0125658D01*
X0253193Y0125763D01*
X0253357Y0125865D01*
X0253524Y0125962D01*
X0253694Y0126055D01*
X0253865Y0126144D01*
X0254039Y0126229D01*
X0254215Y0126309D01*
X0254392Y0126386D01*
X0254572Y0126457D01*
X0254753Y0126525D01*
X0254936Y0126588D01*
X0255120Y0126646D01*
X0255306Y0126700D01*
X0255493Y0126749D01*
X0255681Y0126794D01*
X0255870Y0126834D01*
X0256060Y0126869D01*
X0256250Y0126900D01*
X0256442Y0126926D01*
X0256634Y0126947D01*
X0256827Y0126964D01*
X0257020Y0126976D01*
X0257213Y0126983D01*
X0257406Y0126985D01*
X0257599Y0126983D01*
X0257792Y0126976D01*
X0257985Y0126964D01*
X0258178Y0126947D01*
X0258370Y0126926D01*
X0258562Y0126900D01*
X0258752Y0126869D01*
X0258942Y0126834D01*
X0259131Y0126794D01*
X0259319Y0126749D01*
X0259506Y0126700D01*
X0259692Y0126646D01*
X0259876Y0126588D01*
X0260059Y0126525D01*
X0260240Y0126457D01*
X0260420Y0126386D01*
X0260597Y0126309D01*
X0260773Y0126229D01*
X0260947Y0126144D01*
X0261118Y0126055D01*
X0261288Y0125962D01*
X0261455Y0125865D01*
X0261619Y0125763D01*
X0261781Y0125658D01*
X0261940Y0125548D01*
X0262097Y0125435D01*
X0262251Y0125318D01*
X0262402Y0125197D01*
X0262550Y0125073D01*
X0262695Y0124945D01*
X0262836Y0124813D01*
X0262974Y0124678D01*
X0263109Y0124540D01*
X0263241Y0124399D01*
X0263369Y0124254D01*
X0263493Y0124106D01*
X0263614Y0123955D01*
X0263731Y0123801D01*
X0263844Y0123644D01*
X0263954Y0123485D01*
X0264059Y0123323D01*
X0264161Y0123159D01*
X0264258Y0122992D01*
X0264351Y0122822D01*
X0264440Y0122651D01*
X0264525Y0122477D01*
X0264605Y0122301D01*
X0264682Y0122124D01*
X0264753Y0121944D01*
X0264821Y0121763D01*
X0264884Y0121580D01*
X0264942Y0121396D01*
X0264996Y0121210D01*
X0265045Y0121023D01*
X0265090Y0120835D01*
X0265130Y0120646D01*
X0265165Y0120456D01*
X0265196Y0120266D01*
X0265222Y0120074D01*
X0265243Y0119882D01*
X0265260Y0119689D01*
X0265272Y0119496D01*
X0265279Y0119303D01*
X0265281Y0119110D01*
X0265279Y0118917D01*
X0265272Y0118724D01*
X0265260Y0118531D01*
X0265243Y0118338D01*
X0265222Y0118146D01*
X0265196Y0117954D01*
X0265165Y0117764D01*
X0265130Y0117574D01*
X0265090Y0117385D01*
X0265045Y0117197D01*
X0264996Y0117010D01*
X0264942Y0116824D01*
X0264884Y0116640D01*
X0264821Y0116457D01*
X0264753Y0116276D01*
X0264682Y0116096D01*
X0264605Y0115919D01*
X0264525Y0115743D01*
X0264440Y0115569D01*
X0264351Y0115398D01*
X0264258Y0115228D01*
X0264161Y0115061D01*
X0264059Y0114897D01*
X0263954Y0114735D01*
X0263844Y0114576D01*
X0263731Y0114419D01*
X0263614Y0114265D01*
X0263493Y0114114D01*
X0263369Y0113966D01*
X0263241Y0113821D01*
X0263109Y0113680D01*
X0262974Y0113542D01*
X0262836Y0113407D01*
X0262695Y0113275D01*
X0262550Y0113147D01*
X0262402Y0113023D01*
X0262251Y0112902D01*
X0262097Y0112785D01*
X0261940Y0112672D01*
X0261781Y0112562D01*
X0261619Y0112457D01*
X0261455Y0112355D01*
X0261288Y0112258D01*
X0261118Y0112165D01*
X0260947Y0112076D01*
X0260773Y0111991D01*
X0260597Y0111911D01*
X0260420Y0111834D01*
X0260240Y0111763D01*
X0260059Y0111695D01*
X0259876Y0111632D01*
X0259692Y0111574D01*
X0259506Y0111520D01*
X0259319Y0111471D01*
X0259131Y0111426D01*
X0258942Y0111386D01*
X0258752Y0111351D01*
X0258562Y0111320D01*
X0258370Y0111294D01*
X0258178Y0111273D01*
X0257985Y0111256D01*
X0257792Y0111244D01*
X0257599Y0111237D01*
X0257406Y0111235D01*
X0257213Y0111237D01*
X0257020Y0111244D01*
X0256827Y0111256D01*
X0256634Y0111273D01*
X0256442Y0111294D01*
X0256250Y0111320D01*
X0256060Y0111351D01*
X0255870Y0111386D01*
X0255681Y0111426D01*
X0255493Y0111471D01*
X0255306Y0111520D01*
X0255120Y0111574D01*
X0254936Y0111632D01*
X0254753Y0111695D01*
X0254572Y0111763D01*
X0254392Y0111834D01*
X0254215Y0111911D01*
X0254039Y0111991D01*
X0253865Y0112076D01*
X0253694Y0112165D01*
X0253524Y0112258D01*
X0253357Y0112355D01*
X0253193Y0112457D01*
X0253031Y0112562D01*
X0252872Y0112672D01*
X0252715Y0112785D01*
X0252561Y0112902D01*
X0252410Y0113023D01*
X0252262Y0113147D01*
X0252117Y0113275D01*
X0251976Y0113407D01*
X0251838Y0113542D01*
X0251703Y0113680D01*
X0251571Y0113821D01*
X0251443Y0113966D01*
X0251319Y0114114D01*
X0251198Y0114265D01*
X0251081Y0114419D01*
X0250968Y0114576D01*
X0250858Y0114735D01*
X0250753Y0114897D01*
X0250651Y0115061D01*
X0250554Y0115228D01*
X0250461Y0115398D01*
X0250372Y0115569D01*
X0250287Y0115743D01*
X0250207Y0115919D01*
X0250130Y0116096D01*
X0250059Y0116276D01*
X0249991Y0116457D01*
X0249928Y0116640D01*
X0249870Y0116824D01*
X0249816Y0117010D01*
X0249767Y0117197D01*
X0249722Y0117385D01*
X0249682Y0117574D01*
X0249647Y0117764D01*
X0249616Y0117954D01*
X0249590Y0118146D01*
X0249569Y0118338D01*
X0249552Y0118531D01*
X0249540Y0118724D01*
X0249533Y0118917D01*
X0249531Y0119110D01*
X0324335Y0119110D02*
X0324337Y0119303D01*
X0324344Y0119496D01*
X0324356Y0119689D01*
X0324373Y0119882D01*
X0324394Y0120074D01*
X0324420Y0120266D01*
X0324451Y0120456D01*
X0324486Y0120646D01*
X0324526Y0120835D01*
X0324571Y0121023D01*
X0324620Y0121210D01*
X0324674Y0121396D01*
X0324732Y0121580D01*
X0324795Y0121763D01*
X0324863Y0121944D01*
X0324934Y0122124D01*
X0325011Y0122301D01*
X0325091Y0122477D01*
X0325176Y0122651D01*
X0325265Y0122822D01*
X0325358Y0122992D01*
X0325455Y0123159D01*
X0325557Y0123323D01*
X0325662Y0123485D01*
X0325772Y0123644D01*
X0325885Y0123801D01*
X0326002Y0123955D01*
X0326123Y0124106D01*
X0326247Y0124254D01*
X0326375Y0124399D01*
X0326507Y0124540D01*
X0326642Y0124678D01*
X0326780Y0124813D01*
X0326921Y0124945D01*
X0327066Y0125073D01*
X0327214Y0125197D01*
X0327365Y0125318D01*
X0327519Y0125435D01*
X0327676Y0125548D01*
X0327835Y0125658D01*
X0327997Y0125763D01*
X0328161Y0125865D01*
X0328328Y0125962D01*
X0328498Y0126055D01*
X0328669Y0126144D01*
X0328843Y0126229D01*
X0329019Y0126309D01*
X0329196Y0126386D01*
X0329376Y0126457D01*
X0329557Y0126525D01*
X0329740Y0126588D01*
X0329924Y0126646D01*
X0330110Y0126700D01*
X0330297Y0126749D01*
X0330485Y0126794D01*
X0330674Y0126834D01*
X0330864Y0126869D01*
X0331054Y0126900D01*
X0331246Y0126926D01*
X0331438Y0126947D01*
X0331631Y0126964D01*
X0331824Y0126976D01*
X0332017Y0126983D01*
X0332210Y0126985D01*
X0332403Y0126983D01*
X0332596Y0126976D01*
X0332789Y0126964D01*
X0332982Y0126947D01*
X0333174Y0126926D01*
X0333366Y0126900D01*
X0333556Y0126869D01*
X0333746Y0126834D01*
X0333935Y0126794D01*
X0334123Y0126749D01*
X0334310Y0126700D01*
X0334496Y0126646D01*
X0334680Y0126588D01*
X0334863Y0126525D01*
X0335044Y0126457D01*
X0335224Y0126386D01*
X0335401Y0126309D01*
X0335577Y0126229D01*
X0335751Y0126144D01*
X0335922Y0126055D01*
X0336092Y0125962D01*
X0336259Y0125865D01*
X0336423Y0125763D01*
X0336585Y0125658D01*
X0336744Y0125548D01*
X0336901Y0125435D01*
X0337055Y0125318D01*
X0337206Y0125197D01*
X0337354Y0125073D01*
X0337499Y0124945D01*
X0337640Y0124813D01*
X0337778Y0124678D01*
X0337913Y0124540D01*
X0338045Y0124399D01*
X0338173Y0124254D01*
X0338297Y0124106D01*
X0338418Y0123955D01*
X0338535Y0123801D01*
X0338648Y0123644D01*
X0338758Y0123485D01*
X0338863Y0123323D01*
X0338965Y0123159D01*
X0339062Y0122992D01*
X0339155Y0122822D01*
X0339244Y0122651D01*
X0339329Y0122477D01*
X0339409Y0122301D01*
X0339486Y0122124D01*
X0339557Y0121944D01*
X0339625Y0121763D01*
X0339688Y0121580D01*
X0339746Y0121396D01*
X0339800Y0121210D01*
X0339849Y0121023D01*
X0339894Y0120835D01*
X0339934Y0120646D01*
X0339969Y0120456D01*
X0340000Y0120266D01*
X0340026Y0120074D01*
X0340047Y0119882D01*
X0340064Y0119689D01*
X0340076Y0119496D01*
X0340083Y0119303D01*
X0340085Y0119110D01*
X0340083Y0118917D01*
X0340076Y0118724D01*
X0340064Y0118531D01*
X0340047Y0118338D01*
X0340026Y0118146D01*
X0340000Y0117954D01*
X0339969Y0117764D01*
X0339934Y0117574D01*
X0339894Y0117385D01*
X0339849Y0117197D01*
X0339800Y0117010D01*
X0339746Y0116824D01*
X0339688Y0116640D01*
X0339625Y0116457D01*
X0339557Y0116276D01*
X0339486Y0116096D01*
X0339409Y0115919D01*
X0339329Y0115743D01*
X0339244Y0115569D01*
X0339155Y0115398D01*
X0339062Y0115228D01*
X0338965Y0115061D01*
X0338863Y0114897D01*
X0338758Y0114735D01*
X0338648Y0114576D01*
X0338535Y0114419D01*
X0338418Y0114265D01*
X0338297Y0114114D01*
X0338173Y0113966D01*
X0338045Y0113821D01*
X0337913Y0113680D01*
X0337778Y0113542D01*
X0337640Y0113407D01*
X0337499Y0113275D01*
X0337354Y0113147D01*
X0337206Y0113023D01*
X0337055Y0112902D01*
X0336901Y0112785D01*
X0336744Y0112672D01*
X0336585Y0112562D01*
X0336423Y0112457D01*
X0336259Y0112355D01*
X0336092Y0112258D01*
X0335922Y0112165D01*
X0335751Y0112076D01*
X0335577Y0111991D01*
X0335401Y0111911D01*
X0335224Y0111834D01*
X0335044Y0111763D01*
X0334863Y0111695D01*
X0334680Y0111632D01*
X0334496Y0111574D01*
X0334310Y0111520D01*
X0334123Y0111471D01*
X0333935Y0111426D01*
X0333746Y0111386D01*
X0333556Y0111351D01*
X0333366Y0111320D01*
X0333174Y0111294D01*
X0332982Y0111273D01*
X0332789Y0111256D01*
X0332596Y0111244D01*
X0332403Y0111237D01*
X0332210Y0111235D01*
X0332017Y0111237D01*
X0331824Y0111244D01*
X0331631Y0111256D01*
X0331438Y0111273D01*
X0331246Y0111294D01*
X0331054Y0111320D01*
X0330864Y0111351D01*
X0330674Y0111386D01*
X0330485Y0111426D01*
X0330297Y0111471D01*
X0330110Y0111520D01*
X0329924Y0111574D01*
X0329740Y0111632D01*
X0329557Y0111695D01*
X0329376Y0111763D01*
X0329196Y0111834D01*
X0329019Y0111911D01*
X0328843Y0111991D01*
X0328669Y0112076D01*
X0328498Y0112165D01*
X0328328Y0112258D01*
X0328161Y0112355D01*
X0327997Y0112457D01*
X0327835Y0112562D01*
X0327676Y0112672D01*
X0327519Y0112785D01*
X0327365Y0112902D01*
X0327214Y0113023D01*
X0327066Y0113147D01*
X0326921Y0113275D01*
X0326780Y0113407D01*
X0326642Y0113542D01*
X0326507Y0113680D01*
X0326375Y0113821D01*
X0326247Y0113966D01*
X0326123Y0114114D01*
X0326002Y0114265D01*
X0325885Y0114419D01*
X0325772Y0114576D01*
X0325662Y0114735D01*
X0325557Y0114897D01*
X0325455Y0115061D01*
X0325358Y0115228D01*
X0325265Y0115398D01*
X0325176Y0115569D01*
X0325091Y0115743D01*
X0325011Y0115919D01*
X0324934Y0116096D01*
X0324863Y0116276D01*
X0324795Y0116457D01*
X0324732Y0116640D01*
X0324674Y0116824D01*
X0324620Y0117010D01*
X0324571Y0117197D01*
X0324526Y0117385D01*
X0324486Y0117574D01*
X0324451Y0117764D01*
X0324420Y0117954D01*
X0324394Y0118146D01*
X0324373Y0118338D01*
X0324356Y0118531D01*
X0324344Y0118724D01*
X0324337Y0118917D01*
X0324335Y0119110D01*
X0367642Y0081709D02*
X0367644Y0081797D01*
X0367650Y0081885D01*
X0367660Y0081973D01*
X0367674Y0082061D01*
X0367691Y0082147D01*
X0367713Y0082233D01*
X0367738Y0082317D01*
X0367768Y0082401D01*
X0367800Y0082483D01*
X0367837Y0082563D01*
X0367877Y0082642D01*
X0367921Y0082719D01*
X0367968Y0082794D01*
X0368018Y0082866D01*
X0368072Y0082937D01*
X0368128Y0083004D01*
X0368188Y0083070D01*
X0368250Y0083132D01*
X0368316Y0083192D01*
X0368383Y0083248D01*
X0368454Y0083302D01*
X0368526Y0083352D01*
X0368601Y0083399D01*
X0368678Y0083443D01*
X0368757Y0083483D01*
X0368837Y0083520D01*
X0368919Y0083552D01*
X0369003Y0083582D01*
X0369087Y0083607D01*
X0369173Y0083629D01*
X0369259Y0083646D01*
X0369347Y0083660D01*
X0369435Y0083670D01*
X0369523Y0083676D01*
X0369611Y0083678D01*
X0369699Y0083676D01*
X0369787Y0083670D01*
X0369875Y0083660D01*
X0369963Y0083646D01*
X0370049Y0083629D01*
X0370135Y0083607D01*
X0370219Y0083582D01*
X0370303Y0083552D01*
X0370385Y0083520D01*
X0370465Y0083483D01*
X0370544Y0083443D01*
X0370621Y0083399D01*
X0370696Y0083352D01*
X0370768Y0083302D01*
X0370839Y0083248D01*
X0370906Y0083192D01*
X0370972Y0083132D01*
X0371034Y0083070D01*
X0371094Y0083004D01*
X0371150Y0082937D01*
X0371204Y0082866D01*
X0371254Y0082794D01*
X0371301Y0082719D01*
X0371345Y0082642D01*
X0371385Y0082563D01*
X0371422Y0082483D01*
X0371454Y0082401D01*
X0371484Y0082317D01*
X0371509Y0082233D01*
X0371531Y0082147D01*
X0371548Y0082061D01*
X0371562Y0081973D01*
X0371572Y0081885D01*
X0371578Y0081797D01*
X0371580Y0081709D01*
X0371578Y0081621D01*
X0371572Y0081533D01*
X0371562Y0081445D01*
X0371548Y0081357D01*
X0371531Y0081271D01*
X0371509Y0081185D01*
X0371484Y0081101D01*
X0371454Y0081017D01*
X0371422Y0080935D01*
X0371385Y0080855D01*
X0371345Y0080776D01*
X0371301Y0080699D01*
X0371254Y0080624D01*
X0371204Y0080552D01*
X0371150Y0080481D01*
X0371094Y0080414D01*
X0371034Y0080348D01*
X0370972Y0080286D01*
X0370906Y0080226D01*
X0370839Y0080170D01*
X0370768Y0080116D01*
X0370696Y0080066D01*
X0370621Y0080019D01*
X0370544Y0079975D01*
X0370465Y0079935D01*
X0370385Y0079898D01*
X0370303Y0079866D01*
X0370219Y0079836D01*
X0370135Y0079811D01*
X0370049Y0079789D01*
X0369963Y0079772D01*
X0369875Y0079758D01*
X0369787Y0079748D01*
X0369699Y0079742D01*
X0369611Y0079740D01*
X0369523Y0079742D01*
X0369435Y0079748D01*
X0369347Y0079758D01*
X0369259Y0079772D01*
X0369173Y0079789D01*
X0369087Y0079811D01*
X0369003Y0079836D01*
X0368919Y0079866D01*
X0368837Y0079898D01*
X0368757Y0079935D01*
X0368678Y0079975D01*
X0368601Y0080019D01*
X0368526Y0080066D01*
X0368454Y0080116D01*
X0368383Y0080170D01*
X0368316Y0080226D01*
X0368250Y0080286D01*
X0368188Y0080348D01*
X0368128Y0080414D01*
X0368072Y0080481D01*
X0368018Y0080552D01*
X0367968Y0080624D01*
X0367921Y0080699D01*
X0367877Y0080776D01*
X0367837Y0080855D01*
X0367800Y0080935D01*
X0367768Y0081017D01*
X0367738Y0081101D01*
X0367713Y0081185D01*
X0367691Y0081271D01*
X0367674Y0081357D01*
X0367660Y0081445D01*
X0367650Y0081533D01*
X0367644Y0081621D01*
X0367642Y0081709D01*
X0324335Y0044307D02*
X0324337Y0044500D01*
X0324344Y0044693D01*
X0324356Y0044886D01*
X0324373Y0045079D01*
X0324394Y0045271D01*
X0324420Y0045463D01*
X0324451Y0045653D01*
X0324486Y0045843D01*
X0324526Y0046032D01*
X0324571Y0046220D01*
X0324620Y0046407D01*
X0324674Y0046593D01*
X0324732Y0046777D01*
X0324795Y0046960D01*
X0324863Y0047141D01*
X0324934Y0047321D01*
X0325011Y0047498D01*
X0325091Y0047674D01*
X0325176Y0047848D01*
X0325265Y0048019D01*
X0325358Y0048189D01*
X0325455Y0048356D01*
X0325557Y0048520D01*
X0325662Y0048682D01*
X0325772Y0048841D01*
X0325885Y0048998D01*
X0326002Y0049152D01*
X0326123Y0049303D01*
X0326247Y0049451D01*
X0326375Y0049596D01*
X0326507Y0049737D01*
X0326642Y0049875D01*
X0326780Y0050010D01*
X0326921Y0050142D01*
X0327066Y0050270D01*
X0327214Y0050394D01*
X0327365Y0050515D01*
X0327519Y0050632D01*
X0327676Y0050745D01*
X0327835Y0050855D01*
X0327997Y0050960D01*
X0328161Y0051062D01*
X0328328Y0051159D01*
X0328498Y0051252D01*
X0328669Y0051341D01*
X0328843Y0051426D01*
X0329019Y0051506D01*
X0329196Y0051583D01*
X0329376Y0051654D01*
X0329557Y0051722D01*
X0329740Y0051785D01*
X0329924Y0051843D01*
X0330110Y0051897D01*
X0330297Y0051946D01*
X0330485Y0051991D01*
X0330674Y0052031D01*
X0330864Y0052066D01*
X0331054Y0052097D01*
X0331246Y0052123D01*
X0331438Y0052144D01*
X0331631Y0052161D01*
X0331824Y0052173D01*
X0332017Y0052180D01*
X0332210Y0052182D01*
X0332403Y0052180D01*
X0332596Y0052173D01*
X0332789Y0052161D01*
X0332982Y0052144D01*
X0333174Y0052123D01*
X0333366Y0052097D01*
X0333556Y0052066D01*
X0333746Y0052031D01*
X0333935Y0051991D01*
X0334123Y0051946D01*
X0334310Y0051897D01*
X0334496Y0051843D01*
X0334680Y0051785D01*
X0334863Y0051722D01*
X0335044Y0051654D01*
X0335224Y0051583D01*
X0335401Y0051506D01*
X0335577Y0051426D01*
X0335751Y0051341D01*
X0335922Y0051252D01*
X0336092Y0051159D01*
X0336259Y0051062D01*
X0336423Y0050960D01*
X0336585Y0050855D01*
X0336744Y0050745D01*
X0336901Y0050632D01*
X0337055Y0050515D01*
X0337206Y0050394D01*
X0337354Y0050270D01*
X0337499Y0050142D01*
X0337640Y0050010D01*
X0337778Y0049875D01*
X0337913Y0049737D01*
X0338045Y0049596D01*
X0338173Y0049451D01*
X0338297Y0049303D01*
X0338418Y0049152D01*
X0338535Y0048998D01*
X0338648Y0048841D01*
X0338758Y0048682D01*
X0338863Y0048520D01*
X0338965Y0048356D01*
X0339062Y0048189D01*
X0339155Y0048019D01*
X0339244Y0047848D01*
X0339329Y0047674D01*
X0339409Y0047498D01*
X0339486Y0047321D01*
X0339557Y0047141D01*
X0339625Y0046960D01*
X0339688Y0046777D01*
X0339746Y0046593D01*
X0339800Y0046407D01*
X0339849Y0046220D01*
X0339894Y0046032D01*
X0339934Y0045843D01*
X0339969Y0045653D01*
X0340000Y0045463D01*
X0340026Y0045271D01*
X0340047Y0045079D01*
X0340064Y0044886D01*
X0340076Y0044693D01*
X0340083Y0044500D01*
X0340085Y0044307D01*
X0340083Y0044114D01*
X0340076Y0043921D01*
X0340064Y0043728D01*
X0340047Y0043535D01*
X0340026Y0043343D01*
X0340000Y0043151D01*
X0339969Y0042961D01*
X0339934Y0042771D01*
X0339894Y0042582D01*
X0339849Y0042394D01*
X0339800Y0042207D01*
X0339746Y0042021D01*
X0339688Y0041837D01*
X0339625Y0041654D01*
X0339557Y0041473D01*
X0339486Y0041293D01*
X0339409Y0041116D01*
X0339329Y0040940D01*
X0339244Y0040766D01*
X0339155Y0040595D01*
X0339062Y0040425D01*
X0338965Y0040258D01*
X0338863Y0040094D01*
X0338758Y0039932D01*
X0338648Y0039773D01*
X0338535Y0039616D01*
X0338418Y0039462D01*
X0338297Y0039311D01*
X0338173Y0039163D01*
X0338045Y0039018D01*
X0337913Y0038877D01*
X0337778Y0038739D01*
X0337640Y0038604D01*
X0337499Y0038472D01*
X0337354Y0038344D01*
X0337206Y0038220D01*
X0337055Y0038099D01*
X0336901Y0037982D01*
X0336744Y0037869D01*
X0336585Y0037759D01*
X0336423Y0037654D01*
X0336259Y0037552D01*
X0336092Y0037455D01*
X0335922Y0037362D01*
X0335751Y0037273D01*
X0335577Y0037188D01*
X0335401Y0037108D01*
X0335224Y0037031D01*
X0335044Y0036960D01*
X0334863Y0036892D01*
X0334680Y0036829D01*
X0334496Y0036771D01*
X0334310Y0036717D01*
X0334123Y0036668D01*
X0333935Y0036623D01*
X0333746Y0036583D01*
X0333556Y0036548D01*
X0333366Y0036517D01*
X0333174Y0036491D01*
X0332982Y0036470D01*
X0332789Y0036453D01*
X0332596Y0036441D01*
X0332403Y0036434D01*
X0332210Y0036432D01*
X0332017Y0036434D01*
X0331824Y0036441D01*
X0331631Y0036453D01*
X0331438Y0036470D01*
X0331246Y0036491D01*
X0331054Y0036517D01*
X0330864Y0036548D01*
X0330674Y0036583D01*
X0330485Y0036623D01*
X0330297Y0036668D01*
X0330110Y0036717D01*
X0329924Y0036771D01*
X0329740Y0036829D01*
X0329557Y0036892D01*
X0329376Y0036960D01*
X0329196Y0037031D01*
X0329019Y0037108D01*
X0328843Y0037188D01*
X0328669Y0037273D01*
X0328498Y0037362D01*
X0328328Y0037455D01*
X0328161Y0037552D01*
X0327997Y0037654D01*
X0327835Y0037759D01*
X0327676Y0037869D01*
X0327519Y0037982D01*
X0327365Y0038099D01*
X0327214Y0038220D01*
X0327066Y0038344D01*
X0326921Y0038472D01*
X0326780Y0038604D01*
X0326642Y0038739D01*
X0326507Y0038877D01*
X0326375Y0039018D01*
X0326247Y0039163D01*
X0326123Y0039311D01*
X0326002Y0039462D01*
X0325885Y0039616D01*
X0325772Y0039773D01*
X0325662Y0039932D01*
X0325557Y0040094D01*
X0325455Y0040258D01*
X0325358Y0040425D01*
X0325265Y0040595D01*
X0325176Y0040766D01*
X0325091Y0040940D01*
X0325011Y0041116D01*
X0324934Y0041293D01*
X0324863Y0041473D01*
X0324795Y0041654D01*
X0324732Y0041837D01*
X0324674Y0042021D01*
X0324620Y0042207D01*
X0324571Y0042394D01*
X0324526Y0042582D01*
X0324486Y0042771D01*
X0324451Y0042961D01*
X0324420Y0043151D01*
X0324394Y0043343D01*
X0324373Y0043535D01*
X0324356Y0043728D01*
X0324344Y0043921D01*
X0324337Y0044114D01*
X0324335Y0044307D01*
X0249531Y0044307D02*
X0249533Y0044500D01*
X0249540Y0044693D01*
X0249552Y0044886D01*
X0249569Y0045079D01*
X0249590Y0045271D01*
X0249616Y0045463D01*
X0249647Y0045653D01*
X0249682Y0045843D01*
X0249722Y0046032D01*
X0249767Y0046220D01*
X0249816Y0046407D01*
X0249870Y0046593D01*
X0249928Y0046777D01*
X0249991Y0046960D01*
X0250059Y0047141D01*
X0250130Y0047321D01*
X0250207Y0047498D01*
X0250287Y0047674D01*
X0250372Y0047848D01*
X0250461Y0048019D01*
X0250554Y0048189D01*
X0250651Y0048356D01*
X0250753Y0048520D01*
X0250858Y0048682D01*
X0250968Y0048841D01*
X0251081Y0048998D01*
X0251198Y0049152D01*
X0251319Y0049303D01*
X0251443Y0049451D01*
X0251571Y0049596D01*
X0251703Y0049737D01*
X0251838Y0049875D01*
X0251976Y0050010D01*
X0252117Y0050142D01*
X0252262Y0050270D01*
X0252410Y0050394D01*
X0252561Y0050515D01*
X0252715Y0050632D01*
X0252872Y0050745D01*
X0253031Y0050855D01*
X0253193Y0050960D01*
X0253357Y0051062D01*
X0253524Y0051159D01*
X0253694Y0051252D01*
X0253865Y0051341D01*
X0254039Y0051426D01*
X0254215Y0051506D01*
X0254392Y0051583D01*
X0254572Y0051654D01*
X0254753Y0051722D01*
X0254936Y0051785D01*
X0255120Y0051843D01*
X0255306Y0051897D01*
X0255493Y0051946D01*
X0255681Y0051991D01*
X0255870Y0052031D01*
X0256060Y0052066D01*
X0256250Y0052097D01*
X0256442Y0052123D01*
X0256634Y0052144D01*
X0256827Y0052161D01*
X0257020Y0052173D01*
X0257213Y0052180D01*
X0257406Y0052182D01*
X0257599Y0052180D01*
X0257792Y0052173D01*
X0257985Y0052161D01*
X0258178Y0052144D01*
X0258370Y0052123D01*
X0258562Y0052097D01*
X0258752Y0052066D01*
X0258942Y0052031D01*
X0259131Y0051991D01*
X0259319Y0051946D01*
X0259506Y0051897D01*
X0259692Y0051843D01*
X0259876Y0051785D01*
X0260059Y0051722D01*
X0260240Y0051654D01*
X0260420Y0051583D01*
X0260597Y0051506D01*
X0260773Y0051426D01*
X0260947Y0051341D01*
X0261118Y0051252D01*
X0261288Y0051159D01*
X0261455Y0051062D01*
X0261619Y0050960D01*
X0261781Y0050855D01*
X0261940Y0050745D01*
X0262097Y0050632D01*
X0262251Y0050515D01*
X0262402Y0050394D01*
X0262550Y0050270D01*
X0262695Y0050142D01*
X0262836Y0050010D01*
X0262974Y0049875D01*
X0263109Y0049737D01*
X0263241Y0049596D01*
X0263369Y0049451D01*
X0263493Y0049303D01*
X0263614Y0049152D01*
X0263731Y0048998D01*
X0263844Y0048841D01*
X0263954Y0048682D01*
X0264059Y0048520D01*
X0264161Y0048356D01*
X0264258Y0048189D01*
X0264351Y0048019D01*
X0264440Y0047848D01*
X0264525Y0047674D01*
X0264605Y0047498D01*
X0264682Y0047321D01*
X0264753Y0047141D01*
X0264821Y0046960D01*
X0264884Y0046777D01*
X0264942Y0046593D01*
X0264996Y0046407D01*
X0265045Y0046220D01*
X0265090Y0046032D01*
X0265130Y0045843D01*
X0265165Y0045653D01*
X0265196Y0045463D01*
X0265222Y0045271D01*
X0265243Y0045079D01*
X0265260Y0044886D01*
X0265272Y0044693D01*
X0265279Y0044500D01*
X0265281Y0044307D01*
X0265279Y0044114D01*
X0265272Y0043921D01*
X0265260Y0043728D01*
X0265243Y0043535D01*
X0265222Y0043343D01*
X0265196Y0043151D01*
X0265165Y0042961D01*
X0265130Y0042771D01*
X0265090Y0042582D01*
X0265045Y0042394D01*
X0264996Y0042207D01*
X0264942Y0042021D01*
X0264884Y0041837D01*
X0264821Y0041654D01*
X0264753Y0041473D01*
X0264682Y0041293D01*
X0264605Y0041116D01*
X0264525Y0040940D01*
X0264440Y0040766D01*
X0264351Y0040595D01*
X0264258Y0040425D01*
X0264161Y0040258D01*
X0264059Y0040094D01*
X0263954Y0039932D01*
X0263844Y0039773D01*
X0263731Y0039616D01*
X0263614Y0039462D01*
X0263493Y0039311D01*
X0263369Y0039163D01*
X0263241Y0039018D01*
X0263109Y0038877D01*
X0262974Y0038739D01*
X0262836Y0038604D01*
X0262695Y0038472D01*
X0262550Y0038344D01*
X0262402Y0038220D01*
X0262251Y0038099D01*
X0262097Y0037982D01*
X0261940Y0037869D01*
X0261781Y0037759D01*
X0261619Y0037654D01*
X0261455Y0037552D01*
X0261288Y0037455D01*
X0261118Y0037362D01*
X0260947Y0037273D01*
X0260773Y0037188D01*
X0260597Y0037108D01*
X0260420Y0037031D01*
X0260240Y0036960D01*
X0260059Y0036892D01*
X0259876Y0036829D01*
X0259692Y0036771D01*
X0259506Y0036717D01*
X0259319Y0036668D01*
X0259131Y0036623D01*
X0258942Y0036583D01*
X0258752Y0036548D01*
X0258562Y0036517D01*
X0258370Y0036491D01*
X0258178Y0036470D01*
X0257985Y0036453D01*
X0257792Y0036441D01*
X0257599Y0036434D01*
X0257406Y0036432D01*
X0257213Y0036434D01*
X0257020Y0036441D01*
X0256827Y0036453D01*
X0256634Y0036470D01*
X0256442Y0036491D01*
X0256250Y0036517D01*
X0256060Y0036548D01*
X0255870Y0036583D01*
X0255681Y0036623D01*
X0255493Y0036668D01*
X0255306Y0036717D01*
X0255120Y0036771D01*
X0254936Y0036829D01*
X0254753Y0036892D01*
X0254572Y0036960D01*
X0254392Y0037031D01*
X0254215Y0037108D01*
X0254039Y0037188D01*
X0253865Y0037273D01*
X0253694Y0037362D01*
X0253524Y0037455D01*
X0253357Y0037552D01*
X0253193Y0037654D01*
X0253031Y0037759D01*
X0252872Y0037869D01*
X0252715Y0037982D01*
X0252561Y0038099D01*
X0252410Y0038220D01*
X0252262Y0038344D01*
X0252117Y0038472D01*
X0251976Y0038604D01*
X0251838Y0038739D01*
X0251703Y0038877D01*
X0251571Y0039018D01*
X0251443Y0039163D01*
X0251319Y0039311D01*
X0251198Y0039462D01*
X0251081Y0039616D01*
X0250968Y0039773D01*
X0250858Y0039932D01*
X0250753Y0040094D01*
X0250651Y0040258D01*
X0250554Y0040425D01*
X0250461Y0040595D01*
X0250372Y0040766D01*
X0250287Y0040940D01*
X0250207Y0041116D01*
X0250130Y0041293D01*
X0250059Y0041473D01*
X0249991Y0041654D01*
X0249928Y0041837D01*
X0249870Y0042021D01*
X0249816Y0042207D01*
X0249767Y0042394D01*
X0249722Y0042582D01*
X0249682Y0042771D01*
X0249647Y0042961D01*
X0249616Y0043151D01*
X0249590Y0043343D01*
X0249569Y0043535D01*
X0249552Y0043728D01*
X0249540Y0043921D01*
X0249533Y0044114D01*
X0249531Y0044307D01*
X0399138Y0044307D02*
X0399140Y0044500D01*
X0399147Y0044693D01*
X0399159Y0044886D01*
X0399176Y0045079D01*
X0399197Y0045271D01*
X0399223Y0045463D01*
X0399254Y0045653D01*
X0399289Y0045843D01*
X0399329Y0046032D01*
X0399374Y0046220D01*
X0399423Y0046407D01*
X0399477Y0046593D01*
X0399535Y0046777D01*
X0399598Y0046960D01*
X0399666Y0047141D01*
X0399737Y0047321D01*
X0399814Y0047498D01*
X0399894Y0047674D01*
X0399979Y0047848D01*
X0400068Y0048019D01*
X0400161Y0048189D01*
X0400258Y0048356D01*
X0400360Y0048520D01*
X0400465Y0048682D01*
X0400575Y0048841D01*
X0400688Y0048998D01*
X0400805Y0049152D01*
X0400926Y0049303D01*
X0401050Y0049451D01*
X0401178Y0049596D01*
X0401310Y0049737D01*
X0401445Y0049875D01*
X0401583Y0050010D01*
X0401724Y0050142D01*
X0401869Y0050270D01*
X0402017Y0050394D01*
X0402168Y0050515D01*
X0402322Y0050632D01*
X0402479Y0050745D01*
X0402638Y0050855D01*
X0402800Y0050960D01*
X0402964Y0051062D01*
X0403131Y0051159D01*
X0403301Y0051252D01*
X0403472Y0051341D01*
X0403646Y0051426D01*
X0403822Y0051506D01*
X0403999Y0051583D01*
X0404179Y0051654D01*
X0404360Y0051722D01*
X0404543Y0051785D01*
X0404727Y0051843D01*
X0404913Y0051897D01*
X0405100Y0051946D01*
X0405288Y0051991D01*
X0405477Y0052031D01*
X0405667Y0052066D01*
X0405857Y0052097D01*
X0406049Y0052123D01*
X0406241Y0052144D01*
X0406434Y0052161D01*
X0406627Y0052173D01*
X0406820Y0052180D01*
X0407013Y0052182D01*
X0407206Y0052180D01*
X0407399Y0052173D01*
X0407592Y0052161D01*
X0407785Y0052144D01*
X0407977Y0052123D01*
X0408169Y0052097D01*
X0408359Y0052066D01*
X0408549Y0052031D01*
X0408738Y0051991D01*
X0408926Y0051946D01*
X0409113Y0051897D01*
X0409299Y0051843D01*
X0409483Y0051785D01*
X0409666Y0051722D01*
X0409847Y0051654D01*
X0410027Y0051583D01*
X0410204Y0051506D01*
X0410380Y0051426D01*
X0410554Y0051341D01*
X0410725Y0051252D01*
X0410895Y0051159D01*
X0411062Y0051062D01*
X0411226Y0050960D01*
X0411388Y0050855D01*
X0411547Y0050745D01*
X0411704Y0050632D01*
X0411858Y0050515D01*
X0412009Y0050394D01*
X0412157Y0050270D01*
X0412302Y0050142D01*
X0412443Y0050010D01*
X0412581Y0049875D01*
X0412716Y0049737D01*
X0412848Y0049596D01*
X0412976Y0049451D01*
X0413100Y0049303D01*
X0413221Y0049152D01*
X0413338Y0048998D01*
X0413451Y0048841D01*
X0413561Y0048682D01*
X0413666Y0048520D01*
X0413768Y0048356D01*
X0413865Y0048189D01*
X0413958Y0048019D01*
X0414047Y0047848D01*
X0414132Y0047674D01*
X0414212Y0047498D01*
X0414289Y0047321D01*
X0414360Y0047141D01*
X0414428Y0046960D01*
X0414491Y0046777D01*
X0414549Y0046593D01*
X0414603Y0046407D01*
X0414652Y0046220D01*
X0414697Y0046032D01*
X0414737Y0045843D01*
X0414772Y0045653D01*
X0414803Y0045463D01*
X0414829Y0045271D01*
X0414850Y0045079D01*
X0414867Y0044886D01*
X0414879Y0044693D01*
X0414886Y0044500D01*
X0414888Y0044307D01*
X0414886Y0044114D01*
X0414879Y0043921D01*
X0414867Y0043728D01*
X0414850Y0043535D01*
X0414829Y0043343D01*
X0414803Y0043151D01*
X0414772Y0042961D01*
X0414737Y0042771D01*
X0414697Y0042582D01*
X0414652Y0042394D01*
X0414603Y0042207D01*
X0414549Y0042021D01*
X0414491Y0041837D01*
X0414428Y0041654D01*
X0414360Y0041473D01*
X0414289Y0041293D01*
X0414212Y0041116D01*
X0414132Y0040940D01*
X0414047Y0040766D01*
X0413958Y0040595D01*
X0413865Y0040425D01*
X0413768Y0040258D01*
X0413666Y0040094D01*
X0413561Y0039932D01*
X0413451Y0039773D01*
X0413338Y0039616D01*
X0413221Y0039462D01*
X0413100Y0039311D01*
X0412976Y0039163D01*
X0412848Y0039018D01*
X0412716Y0038877D01*
X0412581Y0038739D01*
X0412443Y0038604D01*
X0412302Y0038472D01*
X0412157Y0038344D01*
X0412009Y0038220D01*
X0411858Y0038099D01*
X0411704Y0037982D01*
X0411547Y0037869D01*
X0411388Y0037759D01*
X0411226Y0037654D01*
X0411062Y0037552D01*
X0410895Y0037455D01*
X0410725Y0037362D01*
X0410554Y0037273D01*
X0410380Y0037188D01*
X0410204Y0037108D01*
X0410027Y0037031D01*
X0409847Y0036960D01*
X0409666Y0036892D01*
X0409483Y0036829D01*
X0409299Y0036771D01*
X0409113Y0036717D01*
X0408926Y0036668D01*
X0408738Y0036623D01*
X0408549Y0036583D01*
X0408359Y0036548D01*
X0408169Y0036517D01*
X0407977Y0036491D01*
X0407785Y0036470D01*
X0407592Y0036453D01*
X0407399Y0036441D01*
X0407206Y0036434D01*
X0407013Y0036432D01*
X0406820Y0036434D01*
X0406627Y0036441D01*
X0406434Y0036453D01*
X0406241Y0036470D01*
X0406049Y0036491D01*
X0405857Y0036517D01*
X0405667Y0036548D01*
X0405477Y0036583D01*
X0405288Y0036623D01*
X0405100Y0036668D01*
X0404913Y0036717D01*
X0404727Y0036771D01*
X0404543Y0036829D01*
X0404360Y0036892D01*
X0404179Y0036960D01*
X0403999Y0037031D01*
X0403822Y0037108D01*
X0403646Y0037188D01*
X0403472Y0037273D01*
X0403301Y0037362D01*
X0403131Y0037455D01*
X0402964Y0037552D01*
X0402800Y0037654D01*
X0402638Y0037759D01*
X0402479Y0037869D01*
X0402322Y0037982D01*
X0402168Y0038099D01*
X0402017Y0038220D01*
X0401869Y0038344D01*
X0401724Y0038472D01*
X0401583Y0038604D01*
X0401445Y0038739D01*
X0401310Y0038877D01*
X0401178Y0039018D01*
X0401050Y0039163D01*
X0400926Y0039311D01*
X0400805Y0039462D01*
X0400688Y0039616D01*
X0400575Y0039773D01*
X0400465Y0039932D01*
X0400360Y0040094D01*
X0400258Y0040258D01*
X0400161Y0040425D01*
X0400068Y0040595D01*
X0399979Y0040766D01*
X0399894Y0040940D01*
X0399814Y0041116D01*
X0399737Y0041293D01*
X0399666Y0041473D01*
X0399598Y0041654D01*
X0399535Y0041837D01*
X0399477Y0042021D01*
X0399423Y0042207D01*
X0399374Y0042394D01*
X0399329Y0042582D01*
X0399289Y0042771D01*
X0399254Y0042961D01*
X0399223Y0043151D01*
X0399197Y0043343D01*
X0399176Y0043535D01*
X0399159Y0043728D01*
X0399147Y0043921D01*
X0399140Y0044114D01*
X0399138Y0044307D01*
X0399138Y0119110D02*
X0399140Y0119303D01*
X0399147Y0119496D01*
X0399159Y0119689D01*
X0399176Y0119882D01*
X0399197Y0120074D01*
X0399223Y0120266D01*
X0399254Y0120456D01*
X0399289Y0120646D01*
X0399329Y0120835D01*
X0399374Y0121023D01*
X0399423Y0121210D01*
X0399477Y0121396D01*
X0399535Y0121580D01*
X0399598Y0121763D01*
X0399666Y0121944D01*
X0399737Y0122124D01*
X0399814Y0122301D01*
X0399894Y0122477D01*
X0399979Y0122651D01*
X0400068Y0122822D01*
X0400161Y0122992D01*
X0400258Y0123159D01*
X0400360Y0123323D01*
X0400465Y0123485D01*
X0400575Y0123644D01*
X0400688Y0123801D01*
X0400805Y0123955D01*
X0400926Y0124106D01*
X0401050Y0124254D01*
X0401178Y0124399D01*
X0401310Y0124540D01*
X0401445Y0124678D01*
X0401583Y0124813D01*
X0401724Y0124945D01*
X0401869Y0125073D01*
X0402017Y0125197D01*
X0402168Y0125318D01*
X0402322Y0125435D01*
X0402479Y0125548D01*
X0402638Y0125658D01*
X0402800Y0125763D01*
X0402964Y0125865D01*
X0403131Y0125962D01*
X0403301Y0126055D01*
X0403472Y0126144D01*
X0403646Y0126229D01*
X0403822Y0126309D01*
X0403999Y0126386D01*
X0404179Y0126457D01*
X0404360Y0126525D01*
X0404543Y0126588D01*
X0404727Y0126646D01*
X0404913Y0126700D01*
X0405100Y0126749D01*
X0405288Y0126794D01*
X0405477Y0126834D01*
X0405667Y0126869D01*
X0405857Y0126900D01*
X0406049Y0126926D01*
X0406241Y0126947D01*
X0406434Y0126964D01*
X0406627Y0126976D01*
X0406820Y0126983D01*
X0407013Y0126985D01*
X0407206Y0126983D01*
X0407399Y0126976D01*
X0407592Y0126964D01*
X0407785Y0126947D01*
X0407977Y0126926D01*
X0408169Y0126900D01*
X0408359Y0126869D01*
X0408549Y0126834D01*
X0408738Y0126794D01*
X0408926Y0126749D01*
X0409113Y0126700D01*
X0409299Y0126646D01*
X0409483Y0126588D01*
X0409666Y0126525D01*
X0409847Y0126457D01*
X0410027Y0126386D01*
X0410204Y0126309D01*
X0410380Y0126229D01*
X0410554Y0126144D01*
X0410725Y0126055D01*
X0410895Y0125962D01*
X0411062Y0125865D01*
X0411226Y0125763D01*
X0411388Y0125658D01*
X0411547Y0125548D01*
X0411704Y0125435D01*
X0411858Y0125318D01*
X0412009Y0125197D01*
X0412157Y0125073D01*
X0412302Y0124945D01*
X0412443Y0124813D01*
X0412581Y0124678D01*
X0412716Y0124540D01*
X0412848Y0124399D01*
X0412976Y0124254D01*
X0413100Y0124106D01*
X0413221Y0123955D01*
X0413338Y0123801D01*
X0413451Y0123644D01*
X0413561Y0123485D01*
X0413666Y0123323D01*
X0413768Y0123159D01*
X0413865Y0122992D01*
X0413958Y0122822D01*
X0414047Y0122651D01*
X0414132Y0122477D01*
X0414212Y0122301D01*
X0414289Y0122124D01*
X0414360Y0121944D01*
X0414428Y0121763D01*
X0414491Y0121580D01*
X0414549Y0121396D01*
X0414603Y0121210D01*
X0414652Y0121023D01*
X0414697Y0120835D01*
X0414737Y0120646D01*
X0414772Y0120456D01*
X0414803Y0120266D01*
X0414829Y0120074D01*
X0414850Y0119882D01*
X0414867Y0119689D01*
X0414879Y0119496D01*
X0414886Y0119303D01*
X0414888Y0119110D01*
X0414886Y0118917D01*
X0414879Y0118724D01*
X0414867Y0118531D01*
X0414850Y0118338D01*
X0414829Y0118146D01*
X0414803Y0117954D01*
X0414772Y0117764D01*
X0414737Y0117574D01*
X0414697Y0117385D01*
X0414652Y0117197D01*
X0414603Y0117010D01*
X0414549Y0116824D01*
X0414491Y0116640D01*
X0414428Y0116457D01*
X0414360Y0116276D01*
X0414289Y0116096D01*
X0414212Y0115919D01*
X0414132Y0115743D01*
X0414047Y0115569D01*
X0413958Y0115398D01*
X0413865Y0115228D01*
X0413768Y0115061D01*
X0413666Y0114897D01*
X0413561Y0114735D01*
X0413451Y0114576D01*
X0413338Y0114419D01*
X0413221Y0114265D01*
X0413100Y0114114D01*
X0412976Y0113966D01*
X0412848Y0113821D01*
X0412716Y0113680D01*
X0412581Y0113542D01*
X0412443Y0113407D01*
X0412302Y0113275D01*
X0412157Y0113147D01*
X0412009Y0113023D01*
X0411858Y0112902D01*
X0411704Y0112785D01*
X0411547Y0112672D01*
X0411388Y0112562D01*
X0411226Y0112457D01*
X0411062Y0112355D01*
X0410895Y0112258D01*
X0410725Y0112165D01*
X0410554Y0112076D01*
X0410380Y0111991D01*
X0410204Y0111911D01*
X0410027Y0111834D01*
X0409847Y0111763D01*
X0409666Y0111695D01*
X0409483Y0111632D01*
X0409299Y0111574D01*
X0409113Y0111520D01*
X0408926Y0111471D01*
X0408738Y0111426D01*
X0408549Y0111386D01*
X0408359Y0111351D01*
X0408169Y0111320D01*
X0407977Y0111294D01*
X0407785Y0111273D01*
X0407592Y0111256D01*
X0407399Y0111244D01*
X0407206Y0111237D01*
X0407013Y0111235D01*
X0406820Y0111237D01*
X0406627Y0111244D01*
X0406434Y0111256D01*
X0406241Y0111273D01*
X0406049Y0111294D01*
X0405857Y0111320D01*
X0405667Y0111351D01*
X0405477Y0111386D01*
X0405288Y0111426D01*
X0405100Y0111471D01*
X0404913Y0111520D01*
X0404727Y0111574D01*
X0404543Y0111632D01*
X0404360Y0111695D01*
X0404179Y0111763D01*
X0403999Y0111834D01*
X0403822Y0111911D01*
X0403646Y0111991D01*
X0403472Y0112076D01*
X0403301Y0112165D01*
X0403131Y0112258D01*
X0402964Y0112355D01*
X0402800Y0112457D01*
X0402638Y0112562D01*
X0402479Y0112672D01*
X0402322Y0112785D01*
X0402168Y0112902D01*
X0402017Y0113023D01*
X0401869Y0113147D01*
X0401724Y0113275D01*
X0401583Y0113407D01*
X0401445Y0113542D01*
X0401310Y0113680D01*
X0401178Y0113821D01*
X0401050Y0113966D01*
X0400926Y0114114D01*
X0400805Y0114265D01*
X0400688Y0114419D01*
X0400575Y0114576D01*
X0400465Y0114735D01*
X0400360Y0114897D01*
X0400258Y0115061D01*
X0400161Y0115228D01*
X0400068Y0115398D01*
X0399979Y0115569D01*
X0399894Y0115743D01*
X0399814Y0115919D01*
X0399737Y0116096D01*
X0399666Y0116276D01*
X0399598Y0116457D01*
X0399535Y0116640D01*
X0399477Y0116824D01*
X0399423Y0117010D01*
X0399374Y0117197D01*
X0399329Y0117385D01*
X0399289Y0117574D01*
X0399254Y0117764D01*
X0399223Y0117954D01*
X0399197Y0118146D01*
X0399176Y0118338D01*
X0399159Y0118531D01*
X0399147Y0118724D01*
X0399140Y0118917D01*
X0399138Y0119110D01*
D11*
X0422761Y0115173D02*
X0426698Y0115173D01*
X0426698Y0107299D01*
X0426698Y0115173D02*
X0430635Y0115173D01*
X0426698Y0123047D01*
X0426698Y0130921D01*
X0426698Y0123047D02*
X0422761Y0123047D01*
X0426698Y0123047D02*
X0430635Y0123047D01*
X0426698Y0123047D02*
X0422761Y0115173D01*
X0355832Y0115173D02*
X0351895Y0115173D01*
X0351895Y0107299D01*
X0351895Y0115173D02*
X0347958Y0115173D01*
X0351895Y0123047D01*
X0351895Y0130921D01*
X0351895Y0123047D02*
X0347958Y0123047D01*
X0351895Y0123047D02*
X0355832Y0123047D01*
X0351895Y0123047D02*
X0355832Y0115173D01*
X0281028Y0115173D02*
X0277091Y0115173D01*
X0277091Y0107299D01*
X0277091Y0115173D02*
X0273154Y0115173D01*
X0277091Y0123047D01*
X0277091Y0130921D01*
X0277091Y0123047D02*
X0273154Y0123047D01*
X0277091Y0123047D02*
X0281028Y0123047D01*
X0277091Y0123047D02*
X0281028Y0115173D01*
X0206225Y0115173D02*
X0202288Y0115173D01*
X0202288Y0107299D01*
X0202288Y0115173D02*
X0198351Y0115173D01*
X0202288Y0123047D01*
X0202288Y0130921D01*
X0202288Y0123047D02*
X0198351Y0123047D01*
X0202288Y0123047D02*
X0206225Y0123047D01*
X0202288Y0123047D02*
X0206225Y0115173D01*
X0131422Y0115173D02*
X0127485Y0115173D01*
X0127485Y0107299D01*
X0127485Y0115173D02*
X0123548Y0115173D01*
X0127485Y0123047D01*
X0127485Y0130921D01*
X0127485Y0123047D02*
X0123548Y0123047D01*
X0127485Y0123047D02*
X0131422Y0123047D01*
X0127485Y0123047D02*
X0131422Y0115173D01*
X0127485Y0056118D02*
X0127485Y0048244D01*
X0131422Y0048244D01*
X0127485Y0048244D02*
X0123548Y0048244D01*
X0127485Y0048244D02*
X0131422Y0040370D01*
X0127485Y0040370D01*
X0127485Y0032496D01*
X0127485Y0040370D02*
X0123548Y0040370D01*
X0127485Y0048244D01*
X0198351Y0048244D02*
X0202288Y0048244D01*
X0202288Y0056118D01*
X0202288Y0048244D02*
X0206225Y0048244D01*
X0202288Y0048244D02*
X0206225Y0040370D01*
X0202288Y0040370D01*
X0202288Y0032496D01*
X0202288Y0040370D02*
X0198351Y0040370D01*
X0202288Y0048244D01*
X0273154Y0048244D02*
X0277091Y0048244D01*
X0277091Y0056118D01*
X0277091Y0048244D02*
X0281028Y0048244D01*
X0277091Y0048244D02*
X0281028Y0040370D01*
X0277091Y0040370D01*
X0277091Y0032496D01*
X0277091Y0040370D02*
X0273154Y0040370D01*
X0277091Y0048244D01*
X0347958Y0048244D02*
X0351895Y0048244D01*
X0351895Y0056118D01*
X0351895Y0048244D02*
X0355832Y0048244D01*
X0351895Y0048244D02*
X0355832Y0040370D01*
X0351895Y0040370D01*
X0351895Y0032496D01*
X0351895Y0040370D02*
X0347958Y0040370D01*
X0351895Y0048244D01*
X0422761Y0048244D02*
X0426698Y0048244D01*
X0426698Y0056118D01*
X0426698Y0048244D02*
X0430635Y0048244D01*
X0426698Y0048244D02*
X0430635Y0040370D01*
X0426698Y0040370D01*
X0426698Y0032496D01*
X0426698Y0040370D02*
X0422761Y0040370D01*
X0426698Y0048244D01*
X0426698Y0182102D02*
X0426698Y0189976D01*
X0422761Y0189976D01*
X0426698Y0197850D01*
X0426698Y0205724D01*
X0426698Y0197850D02*
X0422761Y0197850D01*
X0426698Y0197850D02*
X0430635Y0197850D01*
X0426698Y0197850D02*
X0430635Y0189976D01*
X0426698Y0189976D01*
X0355832Y0189976D02*
X0351895Y0189976D01*
X0351895Y0182102D01*
X0351895Y0189976D02*
X0347958Y0189976D01*
X0351895Y0197850D01*
X0351895Y0205724D01*
X0351895Y0197850D02*
X0347958Y0197850D01*
X0351895Y0197850D02*
X0355832Y0197850D01*
X0351895Y0197850D02*
X0355832Y0189976D01*
X0281028Y0189976D02*
X0277091Y0189976D01*
X0277091Y0182102D01*
X0277091Y0189976D02*
X0273154Y0189976D01*
X0277091Y0197850D01*
X0277091Y0205724D01*
X0277091Y0197850D02*
X0273154Y0197850D01*
X0277091Y0197850D02*
X0281028Y0197850D01*
X0277091Y0197850D02*
X0281028Y0189976D01*
X0206225Y0189976D02*
X0202288Y0189976D01*
X0202288Y0182102D01*
X0202288Y0189976D02*
X0198351Y0189976D01*
X0202288Y0197850D01*
X0202288Y0205724D01*
X0202288Y0197850D02*
X0198351Y0197850D01*
X0202288Y0197850D02*
X0206225Y0197850D01*
X0202288Y0197850D02*
X0206225Y0189976D01*
X0131422Y0189976D02*
X0127485Y0189976D01*
X0127485Y0182102D01*
X0127485Y0189976D02*
X0123548Y0189976D01*
X0127485Y0197850D01*
X0127485Y0205724D01*
X0127485Y0197850D02*
X0123548Y0197850D01*
X0127485Y0197850D02*
X0131422Y0197850D01*
X0127485Y0197850D02*
X0131422Y0189976D01*
X0127485Y0256906D02*
X0127485Y0264780D01*
X0123548Y0264780D01*
X0127485Y0272654D01*
X0127485Y0280528D01*
X0127485Y0272654D02*
X0123548Y0272654D01*
X0127485Y0272654D02*
X0131422Y0272654D01*
X0127485Y0272654D02*
X0131422Y0264780D01*
X0127485Y0264780D01*
X0198351Y0264780D02*
X0202288Y0264780D01*
X0202288Y0256906D01*
X0202288Y0264780D02*
X0206225Y0264780D01*
X0202288Y0272654D01*
X0202288Y0280528D01*
X0202288Y0272654D02*
X0198351Y0272654D01*
X0202288Y0272654D02*
X0206225Y0272654D01*
X0202288Y0272654D02*
X0198351Y0264780D01*
X0273154Y0264780D02*
X0277091Y0264780D01*
X0277091Y0256906D01*
X0277091Y0264780D02*
X0281028Y0264780D01*
X0277091Y0272654D01*
X0277091Y0280528D01*
X0277091Y0272654D02*
X0273154Y0272654D01*
X0277091Y0272654D02*
X0281028Y0272654D01*
X0277091Y0272654D02*
X0273154Y0264780D01*
X0347958Y0264780D02*
X0351895Y0264780D01*
X0351895Y0256906D01*
X0351895Y0264780D02*
X0355832Y0264780D01*
X0351895Y0272654D01*
X0351895Y0280528D01*
X0351895Y0272654D02*
X0347958Y0272654D01*
X0351895Y0272654D02*
X0355832Y0272654D01*
X0351895Y0272654D02*
X0347958Y0264780D01*
X0422761Y0264780D02*
X0426698Y0264780D01*
X0426698Y0256906D01*
X0426698Y0264780D02*
X0430635Y0264780D01*
X0426698Y0272654D01*
X0426698Y0280528D01*
X0426698Y0272654D02*
X0422761Y0272654D01*
X0426698Y0272654D02*
X0430635Y0272654D01*
X0426698Y0272654D02*
X0422761Y0264780D01*
D12*
X0437013Y0238717D02*
X0377013Y0238717D01*
X0377013Y0298717D01*
X0437013Y0298717D01*
X0437013Y0238717D01*
X0437013Y0223913D02*
X0437013Y0163913D01*
X0377013Y0163913D01*
X0377013Y0223913D01*
X0437013Y0223913D01*
X0362210Y0223913D02*
X0362210Y0163913D01*
X0302210Y0163913D01*
X0302210Y0223913D01*
X0362210Y0223913D01*
X0362210Y0238717D02*
X0302210Y0238717D01*
X0302210Y0298717D01*
X0362210Y0298717D01*
X0362210Y0238717D01*
X0287406Y0238717D02*
X0227406Y0238717D01*
X0227406Y0298717D01*
X0287406Y0298717D01*
X0287406Y0238717D01*
X0287406Y0223913D02*
X0287406Y0163913D01*
X0227406Y0163913D01*
X0227406Y0223913D01*
X0287406Y0223913D01*
X0212603Y0223913D02*
X0212603Y0163913D01*
X0152603Y0163913D01*
X0152603Y0223913D01*
X0212603Y0223913D01*
X0212603Y0238717D02*
X0152603Y0238717D01*
X0152603Y0298717D01*
X0212603Y0298717D01*
X0212603Y0238717D01*
X0137800Y0238717D02*
X0077800Y0238717D01*
X0077800Y0298717D01*
X0137800Y0298717D01*
X0137800Y0238717D01*
X0137800Y0223913D02*
X0137800Y0163913D01*
X0077800Y0163913D01*
X0077800Y0223913D01*
X0137800Y0223913D01*
X0137800Y0149110D02*
X0077800Y0149110D01*
X0077800Y0089110D01*
X0137800Y0089110D01*
X0137800Y0149110D01*
X0152603Y0149110D02*
X0212603Y0149110D01*
X0212603Y0089110D01*
X0152603Y0089110D01*
X0152603Y0149110D01*
X0227406Y0149110D02*
X0287406Y0149110D01*
X0287406Y0089110D01*
X0227406Y0089110D01*
X0227406Y0149110D01*
X0302210Y0149110D02*
X0362210Y0149110D01*
X0362210Y0089110D01*
X0302210Y0089110D01*
X0302210Y0149110D01*
X0377013Y0149110D02*
X0437013Y0149110D01*
X0437013Y0089110D01*
X0377013Y0089110D01*
X0377013Y0149110D01*
X0377013Y0074307D02*
X0437013Y0074307D01*
X0437013Y0014307D01*
X0377013Y0014307D01*
X0377013Y0074307D01*
X0362210Y0074307D02*
X0362210Y0014307D01*
X0302210Y0014307D01*
X0302210Y0074307D01*
X0362210Y0074307D01*
X0287406Y0074307D02*
X0287406Y0014307D01*
X0227406Y0014307D01*
X0227406Y0074307D01*
X0287406Y0074307D01*
X0212603Y0074307D02*
X0212603Y0014307D01*
X0152603Y0014307D01*
X0152603Y0074307D01*
X0212603Y0074307D01*
X0137800Y0074307D02*
X0137800Y0014307D01*
X0077800Y0014307D01*
X0077800Y0074307D01*
X0137800Y0074307D01*
X0004310Y0109899D02*
X0002408Y0109899D01*
X0002408Y0110849D01*
X0002725Y0111166D01*
X0003359Y0111166D01*
X0003676Y0110849D01*
X0003676Y0109899D01*
X0003676Y0110532D02*
X0004310Y0111166D01*
X0004310Y0112108D02*
X0004310Y0113376D01*
X0003993Y0114318D02*
X0004310Y0114635D01*
X0004310Y0115269D01*
X0003993Y0115586D01*
X0003676Y0115586D01*
X0003359Y0115269D01*
X0003359Y0114635D01*
X0003042Y0114318D01*
X0002725Y0114318D01*
X0002408Y0114635D01*
X0002408Y0115269D01*
X0002725Y0115586D01*
X0002408Y0116528D02*
X0004310Y0116528D01*
X0004310Y0117796D01*
X0003359Y0117162D02*
X0003359Y0116528D01*
X0002408Y0116528D02*
X0002408Y0117796D01*
X0002408Y0118738D02*
X0002408Y0120006D01*
X0002408Y0119372D02*
X0004310Y0119372D01*
X0002408Y0113376D02*
X0002408Y0112108D01*
X0004310Y0112108D01*
X0003359Y0112108D02*
X0003359Y0112742D01*
X0034974Y0316344D02*
X0035925Y0316344D01*
X0036242Y0316661D01*
X0036242Y0316978D01*
X0035925Y0317295D01*
X0034974Y0317295D01*
X0034974Y0316344D02*
X0034974Y0318246D01*
X0035925Y0318246D01*
X0036242Y0317929D01*
X0036242Y0317612D01*
X0035925Y0317295D01*
X0037184Y0317612D02*
X0037818Y0318246D01*
X0037818Y0316344D01*
X0037184Y0316344D02*
X0038452Y0316344D01*
D13*
X0032997Y0138795D02*
X0025123Y0138795D01*
X0013312Y0138795D02*
X0009375Y0138795D01*
X0009251Y0138793D01*
X0009128Y0138787D01*
X0009004Y0138778D01*
X0008882Y0138764D01*
X0008759Y0138747D01*
X0008637Y0138725D01*
X0008516Y0138700D01*
X0008396Y0138671D01*
X0008277Y0138639D01*
X0008158Y0138602D01*
X0008041Y0138562D01*
X0007926Y0138519D01*
X0007811Y0138471D01*
X0007699Y0138420D01*
X0007588Y0138366D01*
X0007478Y0138308D01*
X0007371Y0138247D01*
X0007265Y0138182D01*
X0007162Y0138114D01*
X0007061Y0138043D01*
X0006962Y0137969D01*
X0006865Y0137892D01*
X0006771Y0137811D01*
X0006680Y0137728D01*
X0006591Y0137642D01*
X0006505Y0137553D01*
X0006422Y0137462D01*
X0006341Y0137368D01*
X0006264Y0137271D01*
X0006190Y0137172D01*
X0006119Y0137071D01*
X0006051Y0136968D01*
X0005986Y0136862D01*
X0005925Y0136755D01*
X0005867Y0136645D01*
X0005813Y0136534D01*
X0005762Y0136422D01*
X0005714Y0136307D01*
X0005671Y0136192D01*
X0005631Y0136075D01*
X0005594Y0135956D01*
X0005562Y0135837D01*
X0005533Y0135717D01*
X0005508Y0135596D01*
X0005486Y0135474D01*
X0005469Y0135351D01*
X0005455Y0135229D01*
X0005446Y0135105D01*
X0005440Y0134982D01*
X0005438Y0134858D01*
X0005438Y0095488D01*
X0005440Y0095364D01*
X0005446Y0095241D01*
X0005455Y0095117D01*
X0005469Y0094995D01*
X0005486Y0094872D01*
X0005508Y0094750D01*
X0005533Y0094629D01*
X0005562Y0094509D01*
X0005594Y0094390D01*
X0005631Y0094271D01*
X0005671Y0094154D01*
X0005714Y0094039D01*
X0005762Y0093924D01*
X0005813Y0093812D01*
X0005867Y0093701D01*
X0005925Y0093591D01*
X0005986Y0093484D01*
X0006051Y0093378D01*
X0006119Y0093275D01*
X0006190Y0093174D01*
X0006264Y0093075D01*
X0006341Y0092978D01*
X0006422Y0092884D01*
X0006505Y0092793D01*
X0006591Y0092704D01*
X0006680Y0092618D01*
X0006771Y0092535D01*
X0006865Y0092454D01*
X0006962Y0092377D01*
X0007061Y0092303D01*
X0007162Y0092232D01*
X0007265Y0092164D01*
X0007371Y0092099D01*
X0007478Y0092038D01*
X0007588Y0091980D01*
X0007699Y0091926D01*
X0007811Y0091875D01*
X0007926Y0091827D01*
X0008041Y0091784D01*
X0008158Y0091744D01*
X0008277Y0091707D01*
X0008396Y0091675D01*
X0008516Y0091646D01*
X0008637Y0091621D01*
X0008759Y0091599D01*
X0008882Y0091582D01*
X0009004Y0091568D01*
X0009128Y0091559D01*
X0009251Y0091553D01*
X0009375Y0091551D01*
X0013312Y0091551D01*
X0025123Y0091551D02*
X0032997Y0091551D01*
X0044808Y0091551D02*
X0048745Y0091551D01*
X0048869Y0091553D01*
X0048992Y0091559D01*
X0049116Y0091568D01*
X0049238Y0091582D01*
X0049361Y0091599D01*
X0049483Y0091621D01*
X0049604Y0091646D01*
X0049724Y0091675D01*
X0049843Y0091707D01*
X0049962Y0091744D01*
X0050079Y0091784D01*
X0050194Y0091827D01*
X0050309Y0091875D01*
X0050421Y0091926D01*
X0050532Y0091980D01*
X0050642Y0092038D01*
X0050749Y0092099D01*
X0050855Y0092164D01*
X0050958Y0092232D01*
X0051059Y0092303D01*
X0051158Y0092377D01*
X0051255Y0092454D01*
X0051349Y0092535D01*
X0051440Y0092618D01*
X0051529Y0092704D01*
X0051615Y0092793D01*
X0051698Y0092884D01*
X0051779Y0092978D01*
X0051856Y0093075D01*
X0051930Y0093174D01*
X0052001Y0093275D01*
X0052069Y0093378D01*
X0052134Y0093484D01*
X0052195Y0093591D01*
X0052253Y0093701D01*
X0052307Y0093812D01*
X0052358Y0093924D01*
X0052406Y0094039D01*
X0052449Y0094154D01*
X0052489Y0094271D01*
X0052526Y0094390D01*
X0052558Y0094509D01*
X0052587Y0094629D01*
X0052612Y0094750D01*
X0052634Y0094872D01*
X0052651Y0094995D01*
X0052665Y0095117D01*
X0052674Y0095241D01*
X0052680Y0095364D01*
X0052682Y0095488D01*
X0052682Y0134858D01*
X0052680Y0134982D01*
X0052674Y0135105D01*
X0052665Y0135229D01*
X0052651Y0135351D01*
X0052634Y0135474D01*
X0052612Y0135596D01*
X0052587Y0135717D01*
X0052558Y0135837D01*
X0052526Y0135956D01*
X0052489Y0136075D01*
X0052449Y0136192D01*
X0052406Y0136307D01*
X0052358Y0136422D01*
X0052307Y0136534D01*
X0052253Y0136645D01*
X0052195Y0136755D01*
X0052134Y0136862D01*
X0052069Y0136968D01*
X0052001Y0137071D01*
X0051930Y0137172D01*
X0051856Y0137271D01*
X0051779Y0137368D01*
X0051698Y0137462D01*
X0051615Y0137553D01*
X0051529Y0137642D01*
X0051440Y0137728D01*
X0051349Y0137811D01*
X0051255Y0137892D01*
X0051158Y0137969D01*
X0051059Y0138043D01*
X0050958Y0138114D01*
X0050855Y0138182D01*
X0050749Y0138247D01*
X0050642Y0138308D01*
X0050532Y0138366D01*
X0050421Y0138420D01*
X0050309Y0138471D01*
X0050194Y0138519D01*
X0050079Y0138562D01*
X0049962Y0138602D01*
X0049843Y0138639D01*
X0049724Y0138671D01*
X0049604Y0138700D01*
X0049483Y0138725D01*
X0049361Y0138747D01*
X0049238Y0138764D01*
X0049116Y0138778D01*
X0048992Y0138787D01*
X0048869Y0138793D01*
X0048745Y0138795D01*
X0044808Y0138795D01*
X0015280Y0115173D02*
X0015284Y0115511D01*
X0015297Y0115849D01*
X0015317Y0116187D01*
X0015346Y0116524D01*
X0015384Y0116860D01*
X0015429Y0117195D01*
X0015483Y0117529D01*
X0015545Y0117861D01*
X0015615Y0118192D01*
X0015693Y0118521D01*
X0015779Y0118848D01*
X0015873Y0119173D01*
X0015976Y0119496D01*
X0016086Y0119815D01*
X0016203Y0120132D01*
X0016329Y0120446D01*
X0016462Y0120757D01*
X0016603Y0121065D01*
X0016751Y0121369D01*
X0016907Y0121669D01*
X0017070Y0121965D01*
X0017240Y0122257D01*
X0017418Y0122545D01*
X0017602Y0122829D01*
X0017794Y0123108D01*
X0017992Y0123382D01*
X0018197Y0123651D01*
X0018408Y0123915D01*
X0018626Y0124174D01*
X0018850Y0124427D01*
X0019080Y0124675D01*
X0019316Y0124917D01*
X0019558Y0125153D01*
X0019806Y0125383D01*
X0020059Y0125607D01*
X0020318Y0125825D01*
X0020582Y0126036D01*
X0020851Y0126241D01*
X0021125Y0126439D01*
X0021404Y0126631D01*
X0021688Y0126815D01*
X0021976Y0126993D01*
X0022268Y0127163D01*
X0022564Y0127326D01*
X0022864Y0127482D01*
X0023168Y0127630D01*
X0023476Y0127771D01*
X0023787Y0127904D01*
X0024101Y0128030D01*
X0024418Y0128147D01*
X0024737Y0128257D01*
X0025060Y0128360D01*
X0025385Y0128454D01*
X0025712Y0128540D01*
X0026041Y0128618D01*
X0026372Y0128688D01*
X0026704Y0128750D01*
X0027038Y0128804D01*
X0027373Y0128849D01*
X0027709Y0128887D01*
X0028046Y0128916D01*
X0028384Y0128936D01*
X0028722Y0128949D01*
X0029060Y0128953D01*
X0029398Y0128949D01*
X0029736Y0128936D01*
X0030074Y0128916D01*
X0030411Y0128887D01*
X0030747Y0128849D01*
X0031082Y0128804D01*
X0031416Y0128750D01*
X0031748Y0128688D01*
X0032079Y0128618D01*
X0032408Y0128540D01*
X0032735Y0128454D01*
X0033060Y0128360D01*
X0033383Y0128257D01*
X0033702Y0128147D01*
X0034019Y0128030D01*
X0034333Y0127904D01*
X0034644Y0127771D01*
X0034952Y0127630D01*
X0035256Y0127482D01*
X0035556Y0127326D01*
X0035852Y0127163D01*
X0036144Y0126993D01*
X0036432Y0126815D01*
X0036716Y0126631D01*
X0036995Y0126439D01*
X0037269Y0126241D01*
X0037538Y0126036D01*
X0037802Y0125825D01*
X0038061Y0125607D01*
X0038314Y0125383D01*
X0038562Y0125153D01*
X0038804Y0124917D01*
X0039040Y0124675D01*
X0039270Y0124427D01*
X0039494Y0124174D01*
X0039712Y0123915D01*
X0039923Y0123651D01*
X0040128Y0123382D01*
X0040326Y0123108D01*
X0040518Y0122829D01*
X0040702Y0122545D01*
X0040880Y0122257D01*
X0041050Y0121965D01*
X0041213Y0121669D01*
X0041369Y0121369D01*
X0041517Y0121065D01*
X0041658Y0120757D01*
X0041791Y0120446D01*
X0041917Y0120132D01*
X0042034Y0119815D01*
X0042144Y0119496D01*
X0042247Y0119173D01*
X0042341Y0118848D01*
X0042427Y0118521D01*
X0042505Y0118192D01*
X0042575Y0117861D01*
X0042637Y0117529D01*
X0042691Y0117195D01*
X0042736Y0116860D01*
X0042774Y0116524D01*
X0042803Y0116187D01*
X0042823Y0115849D01*
X0042836Y0115511D01*
X0042840Y0115173D01*
X0042836Y0114835D01*
X0042823Y0114497D01*
X0042803Y0114159D01*
X0042774Y0113822D01*
X0042736Y0113486D01*
X0042691Y0113151D01*
X0042637Y0112817D01*
X0042575Y0112485D01*
X0042505Y0112154D01*
X0042427Y0111825D01*
X0042341Y0111498D01*
X0042247Y0111173D01*
X0042144Y0110850D01*
X0042034Y0110531D01*
X0041917Y0110214D01*
X0041791Y0109900D01*
X0041658Y0109589D01*
X0041517Y0109281D01*
X0041369Y0108977D01*
X0041213Y0108677D01*
X0041050Y0108381D01*
X0040880Y0108089D01*
X0040702Y0107801D01*
X0040518Y0107517D01*
X0040326Y0107238D01*
X0040128Y0106964D01*
X0039923Y0106695D01*
X0039712Y0106431D01*
X0039494Y0106172D01*
X0039270Y0105919D01*
X0039040Y0105671D01*
X0038804Y0105429D01*
X0038562Y0105193D01*
X0038314Y0104963D01*
X0038061Y0104739D01*
X0037802Y0104521D01*
X0037538Y0104310D01*
X0037269Y0104105D01*
X0036995Y0103907D01*
X0036716Y0103715D01*
X0036432Y0103531D01*
X0036144Y0103353D01*
X0035852Y0103183D01*
X0035556Y0103020D01*
X0035256Y0102864D01*
X0034952Y0102716D01*
X0034644Y0102575D01*
X0034333Y0102442D01*
X0034019Y0102316D01*
X0033702Y0102199D01*
X0033383Y0102089D01*
X0033060Y0101986D01*
X0032735Y0101892D01*
X0032408Y0101806D01*
X0032079Y0101728D01*
X0031748Y0101658D01*
X0031416Y0101596D01*
X0031082Y0101542D01*
X0030747Y0101497D01*
X0030411Y0101459D01*
X0030074Y0101430D01*
X0029736Y0101410D01*
X0029398Y0101397D01*
X0029060Y0101393D01*
X0028722Y0101397D01*
X0028384Y0101410D01*
X0028046Y0101430D01*
X0027709Y0101459D01*
X0027373Y0101497D01*
X0027038Y0101542D01*
X0026704Y0101596D01*
X0026372Y0101658D01*
X0026041Y0101728D01*
X0025712Y0101806D01*
X0025385Y0101892D01*
X0025060Y0101986D01*
X0024737Y0102089D01*
X0024418Y0102199D01*
X0024101Y0102316D01*
X0023787Y0102442D01*
X0023476Y0102575D01*
X0023168Y0102716D01*
X0022864Y0102864D01*
X0022564Y0103020D01*
X0022268Y0103183D01*
X0021976Y0103353D01*
X0021688Y0103531D01*
X0021404Y0103715D01*
X0021125Y0103907D01*
X0020851Y0104105D01*
X0020582Y0104310D01*
X0020318Y0104521D01*
X0020059Y0104739D01*
X0019806Y0104963D01*
X0019558Y0105193D01*
X0019316Y0105429D01*
X0019080Y0105671D01*
X0018850Y0105919D01*
X0018626Y0106172D01*
X0018408Y0106431D01*
X0018197Y0106695D01*
X0017992Y0106964D01*
X0017794Y0107238D01*
X0017602Y0107517D01*
X0017418Y0107801D01*
X0017240Y0108089D01*
X0017070Y0108381D01*
X0016907Y0108677D01*
X0016751Y0108977D01*
X0016603Y0109281D01*
X0016462Y0109589D01*
X0016329Y0109900D01*
X0016203Y0110214D01*
X0016086Y0110531D01*
X0015976Y0110850D01*
X0015873Y0111173D01*
X0015779Y0111498D01*
X0015693Y0111825D01*
X0015615Y0112154D01*
X0015545Y0112485D01*
X0015483Y0112817D01*
X0015429Y0113151D01*
X0015384Y0113486D01*
X0015346Y0113822D01*
X0015317Y0114159D01*
X0015297Y0114497D01*
X0015284Y0114835D01*
X0015280Y0115173D01*
D14*
X0010162Y0097457D02*
X0010164Y0097526D01*
X0010170Y0097594D01*
X0010180Y0097662D01*
X0010194Y0097729D01*
X0010212Y0097796D01*
X0010233Y0097861D01*
X0010259Y0097925D01*
X0010288Y0097987D01*
X0010320Y0098047D01*
X0010356Y0098106D01*
X0010396Y0098162D01*
X0010438Y0098216D01*
X0010484Y0098267D01*
X0010533Y0098316D01*
X0010584Y0098362D01*
X0010638Y0098404D01*
X0010694Y0098444D01*
X0010752Y0098480D01*
X0010813Y0098512D01*
X0010875Y0098541D01*
X0010939Y0098567D01*
X0011004Y0098588D01*
X0011071Y0098606D01*
X0011138Y0098620D01*
X0011206Y0098630D01*
X0011274Y0098636D01*
X0011343Y0098638D01*
X0011412Y0098636D01*
X0011480Y0098630D01*
X0011548Y0098620D01*
X0011615Y0098606D01*
X0011682Y0098588D01*
X0011747Y0098567D01*
X0011811Y0098541D01*
X0011873Y0098512D01*
X0011933Y0098480D01*
X0011992Y0098444D01*
X0012048Y0098404D01*
X0012102Y0098362D01*
X0012153Y0098316D01*
X0012202Y0098267D01*
X0012248Y0098216D01*
X0012290Y0098162D01*
X0012330Y0098106D01*
X0012366Y0098047D01*
X0012398Y0097987D01*
X0012427Y0097925D01*
X0012453Y0097861D01*
X0012474Y0097796D01*
X0012492Y0097729D01*
X0012506Y0097662D01*
X0012516Y0097594D01*
X0012522Y0097526D01*
X0012524Y0097457D01*
X0012522Y0097388D01*
X0012516Y0097320D01*
X0012506Y0097252D01*
X0012492Y0097185D01*
X0012474Y0097118D01*
X0012453Y0097053D01*
X0012427Y0096989D01*
X0012398Y0096927D01*
X0012366Y0096866D01*
X0012330Y0096808D01*
X0012290Y0096752D01*
X0012248Y0096698D01*
X0012202Y0096647D01*
X0012153Y0096598D01*
X0012102Y0096552D01*
X0012048Y0096510D01*
X0011992Y0096470D01*
X0011934Y0096434D01*
X0011873Y0096402D01*
X0011811Y0096373D01*
X0011747Y0096347D01*
X0011682Y0096326D01*
X0011615Y0096308D01*
X0011548Y0096294D01*
X0011480Y0096284D01*
X0011412Y0096278D01*
X0011343Y0096276D01*
X0011274Y0096278D01*
X0011206Y0096284D01*
X0011138Y0096294D01*
X0011071Y0096308D01*
X0011004Y0096326D01*
X0010939Y0096347D01*
X0010875Y0096373D01*
X0010813Y0096402D01*
X0010752Y0096434D01*
X0010694Y0096470D01*
X0010638Y0096510D01*
X0010584Y0096552D01*
X0010533Y0096598D01*
X0010484Y0096647D01*
X0010438Y0096698D01*
X0010396Y0096752D01*
X0010356Y0096808D01*
X0010320Y0096866D01*
X0010288Y0096927D01*
X0010259Y0096989D01*
X0010233Y0097053D01*
X0010212Y0097118D01*
X0010194Y0097185D01*
X0010180Y0097252D01*
X0010170Y0097320D01*
X0010164Y0097388D01*
X0010162Y0097457D01*
X0045596Y0097457D02*
X0045598Y0097526D01*
X0045604Y0097594D01*
X0045614Y0097662D01*
X0045628Y0097729D01*
X0045646Y0097796D01*
X0045667Y0097861D01*
X0045693Y0097925D01*
X0045722Y0097987D01*
X0045754Y0098047D01*
X0045790Y0098106D01*
X0045830Y0098162D01*
X0045872Y0098216D01*
X0045918Y0098267D01*
X0045967Y0098316D01*
X0046018Y0098362D01*
X0046072Y0098404D01*
X0046128Y0098444D01*
X0046186Y0098480D01*
X0046247Y0098512D01*
X0046309Y0098541D01*
X0046373Y0098567D01*
X0046438Y0098588D01*
X0046505Y0098606D01*
X0046572Y0098620D01*
X0046640Y0098630D01*
X0046708Y0098636D01*
X0046777Y0098638D01*
X0046846Y0098636D01*
X0046914Y0098630D01*
X0046982Y0098620D01*
X0047049Y0098606D01*
X0047116Y0098588D01*
X0047181Y0098567D01*
X0047245Y0098541D01*
X0047307Y0098512D01*
X0047367Y0098480D01*
X0047426Y0098444D01*
X0047482Y0098404D01*
X0047536Y0098362D01*
X0047587Y0098316D01*
X0047636Y0098267D01*
X0047682Y0098216D01*
X0047724Y0098162D01*
X0047764Y0098106D01*
X0047800Y0098047D01*
X0047832Y0097987D01*
X0047861Y0097925D01*
X0047887Y0097861D01*
X0047908Y0097796D01*
X0047926Y0097729D01*
X0047940Y0097662D01*
X0047950Y0097594D01*
X0047956Y0097526D01*
X0047958Y0097457D01*
X0047956Y0097388D01*
X0047950Y0097320D01*
X0047940Y0097252D01*
X0047926Y0097185D01*
X0047908Y0097118D01*
X0047887Y0097053D01*
X0047861Y0096989D01*
X0047832Y0096927D01*
X0047800Y0096866D01*
X0047764Y0096808D01*
X0047724Y0096752D01*
X0047682Y0096698D01*
X0047636Y0096647D01*
X0047587Y0096598D01*
X0047536Y0096552D01*
X0047482Y0096510D01*
X0047426Y0096470D01*
X0047368Y0096434D01*
X0047307Y0096402D01*
X0047245Y0096373D01*
X0047181Y0096347D01*
X0047116Y0096326D01*
X0047049Y0096308D01*
X0046982Y0096294D01*
X0046914Y0096284D01*
X0046846Y0096278D01*
X0046777Y0096276D01*
X0046708Y0096278D01*
X0046640Y0096284D01*
X0046572Y0096294D01*
X0046505Y0096308D01*
X0046438Y0096326D01*
X0046373Y0096347D01*
X0046309Y0096373D01*
X0046247Y0096402D01*
X0046186Y0096434D01*
X0046128Y0096470D01*
X0046072Y0096510D01*
X0046018Y0096552D01*
X0045967Y0096598D01*
X0045918Y0096647D01*
X0045872Y0096698D01*
X0045830Y0096752D01*
X0045790Y0096808D01*
X0045754Y0096866D01*
X0045722Y0096927D01*
X0045693Y0096989D01*
X0045667Y0097053D01*
X0045646Y0097118D01*
X0045628Y0097185D01*
X0045614Y0097252D01*
X0045604Y0097320D01*
X0045598Y0097388D01*
X0045596Y0097457D01*
X0045596Y0132890D02*
X0045598Y0132959D01*
X0045604Y0133027D01*
X0045614Y0133095D01*
X0045628Y0133162D01*
X0045646Y0133229D01*
X0045667Y0133294D01*
X0045693Y0133358D01*
X0045722Y0133420D01*
X0045754Y0133480D01*
X0045790Y0133539D01*
X0045830Y0133595D01*
X0045872Y0133649D01*
X0045918Y0133700D01*
X0045967Y0133749D01*
X0046018Y0133795D01*
X0046072Y0133837D01*
X0046128Y0133877D01*
X0046186Y0133913D01*
X0046247Y0133945D01*
X0046309Y0133974D01*
X0046373Y0134000D01*
X0046438Y0134021D01*
X0046505Y0134039D01*
X0046572Y0134053D01*
X0046640Y0134063D01*
X0046708Y0134069D01*
X0046777Y0134071D01*
X0046846Y0134069D01*
X0046914Y0134063D01*
X0046982Y0134053D01*
X0047049Y0134039D01*
X0047116Y0134021D01*
X0047181Y0134000D01*
X0047245Y0133974D01*
X0047307Y0133945D01*
X0047367Y0133913D01*
X0047426Y0133877D01*
X0047482Y0133837D01*
X0047536Y0133795D01*
X0047587Y0133749D01*
X0047636Y0133700D01*
X0047682Y0133649D01*
X0047724Y0133595D01*
X0047764Y0133539D01*
X0047800Y0133480D01*
X0047832Y0133420D01*
X0047861Y0133358D01*
X0047887Y0133294D01*
X0047908Y0133229D01*
X0047926Y0133162D01*
X0047940Y0133095D01*
X0047950Y0133027D01*
X0047956Y0132959D01*
X0047958Y0132890D01*
X0047956Y0132821D01*
X0047950Y0132753D01*
X0047940Y0132685D01*
X0047926Y0132618D01*
X0047908Y0132551D01*
X0047887Y0132486D01*
X0047861Y0132422D01*
X0047832Y0132360D01*
X0047800Y0132299D01*
X0047764Y0132241D01*
X0047724Y0132185D01*
X0047682Y0132131D01*
X0047636Y0132080D01*
X0047587Y0132031D01*
X0047536Y0131985D01*
X0047482Y0131943D01*
X0047426Y0131903D01*
X0047368Y0131867D01*
X0047307Y0131835D01*
X0047245Y0131806D01*
X0047181Y0131780D01*
X0047116Y0131759D01*
X0047049Y0131741D01*
X0046982Y0131727D01*
X0046914Y0131717D01*
X0046846Y0131711D01*
X0046777Y0131709D01*
X0046708Y0131711D01*
X0046640Y0131717D01*
X0046572Y0131727D01*
X0046505Y0131741D01*
X0046438Y0131759D01*
X0046373Y0131780D01*
X0046309Y0131806D01*
X0046247Y0131835D01*
X0046186Y0131867D01*
X0046128Y0131903D01*
X0046072Y0131943D01*
X0046018Y0131985D01*
X0045967Y0132031D01*
X0045918Y0132080D01*
X0045872Y0132131D01*
X0045830Y0132185D01*
X0045790Y0132241D01*
X0045754Y0132299D01*
X0045722Y0132360D01*
X0045693Y0132422D01*
X0045667Y0132486D01*
X0045646Y0132551D01*
X0045628Y0132618D01*
X0045614Y0132685D01*
X0045604Y0132753D01*
X0045598Y0132821D01*
X0045596Y0132890D01*
X0010162Y0132890D02*
X0010164Y0132959D01*
X0010170Y0133027D01*
X0010180Y0133095D01*
X0010194Y0133162D01*
X0010212Y0133229D01*
X0010233Y0133294D01*
X0010259Y0133358D01*
X0010288Y0133420D01*
X0010320Y0133480D01*
X0010356Y0133539D01*
X0010396Y0133595D01*
X0010438Y0133649D01*
X0010484Y0133700D01*
X0010533Y0133749D01*
X0010584Y0133795D01*
X0010638Y0133837D01*
X0010694Y0133877D01*
X0010752Y0133913D01*
X0010813Y0133945D01*
X0010875Y0133974D01*
X0010939Y0134000D01*
X0011004Y0134021D01*
X0011071Y0134039D01*
X0011138Y0134053D01*
X0011206Y0134063D01*
X0011274Y0134069D01*
X0011343Y0134071D01*
X0011412Y0134069D01*
X0011480Y0134063D01*
X0011548Y0134053D01*
X0011615Y0134039D01*
X0011682Y0134021D01*
X0011747Y0134000D01*
X0011811Y0133974D01*
X0011873Y0133945D01*
X0011933Y0133913D01*
X0011992Y0133877D01*
X0012048Y0133837D01*
X0012102Y0133795D01*
X0012153Y0133749D01*
X0012202Y0133700D01*
X0012248Y0133649D01*
X0012290Y0133595D01*
X0012330Y0133539D01*
X0012366Y0133480D01*
X0012398Y0133420D01*
X0012427Y0133358D01*
X0012453Y0133294D01*
X0012474Y0133229D01*
X0012492Y0133162D01*
X0012506Y0133095D01*
X0012516Y0133027D01*
X0012522Y0132959D01*
X0012524Y0132890D01*
X0012522Y0132821D01*
X0012516Y0132753D01*
X0012506Y0132685D01*
X0012492Y0132618D01*
X0012474Y0132551D01*
X0012453Y0132486D01*
X0012427Y0132422D01*
X0012398Y0132360D01*
X0012366Y0132299D01*
X0012330Y0132241D01*
X0012290Y0132185D01*
X0012248Y0132131D01*
X0012202Y0132080D01*
X0012153Y0132031D01*
X0012102Y0131985D01*
X0012048Y0131943D01*
X0011992Y0131903D01*
X0011934Y0131867D01*
X0011873Y0131835D01*
X0011811Y0131806D01*
X0011747Y0131780D01*
X0011682Y0131759D01*
X0011615Y0131741D01*
X0011548Y0131727D01*
X0011480Y0131717D01*
X0011412Y0131711D01*
X0011343Y0131709D01*
X0011274Y0131711D01*
X0011206Y0131717D01*
X0011138Y0131727D01*
X0011071Y0131741D01*
X0011004Y0131759D01*
X0010939Y0131780D01*
X0010875Y0131806D01*
X0010813Y0131835D01*
X0010752Y0131867D01*
X0010694Y0131903D01*
X0010638Y0131943D01*
X0010584Y0131985D01*
X0010533Y0132031D01*
X0010484Y0132080D01*
X0010438Y0132131D01*
X0010396Y0132185D01*
X0010356Y0132241D01*
X0010320Y0132299D01*
X0010288Y0132360D01*
X0010259Y0132422D01*
X0010233Y0132486D01*
X0010212Y0132551D01*
X0010194Y0132618D01*
X0010180Y0132685D01*
X0010170Y0132753D01*
X0010164Y0132821D01*
X0010162Y0132890D01*
M02*
